<?xml version="1.0" encoding="UTF-8"?><svg id="b" xmlns="http://www.w3.org/2000/svg" width="589.84" height="400" viewBox="0 0 589.84 400"><g id="c"><path d="M59.98,390.33c-43.11-21.37-80.42-56.48-47.25-120.61C52.7,192.42-20.34,116.74,17.06,62.5,55.77,6.34,141.1-18.19,222.99,15.01c81.88,33.2,89.72,42.25,160.63,28.81,78.8-14.95,155.96,10.72,145.15,65.91-19.22,98.18,58.84,130.18,61.05,205.43,2.21,75.24-142.79,100.86-221.9,75.18-108.71-35.29-240.83,33.28-307.95,0Z" fill="#dce8f6"/><path d="M217.3,376.77c-82.98-.04-206.34-.25-187.46-3.9,18.88-3.65,118.4-.64,200.14-1.3,39.39-.32,27.88-1.9,81.27-.82,83.53,1.68,60.8,3.88,24.16,4.46-67.36,1.08-71.34,1.52-76.79,1.56-9.77.06-9.02.01-41.32,0Z" fill="#656d8f" opacity=".3"/><path d="M483.06,376.77c-41.49-.04-103.17-.25-93.73-3.9,9.44-3.65,59.2-.64,100.07-1.3,19.69-.32,13.94-1.9,40.64-.82,41.77,1.68,30.4,3.88,12.08,4.46-33.68,1.08-35.67,1.52-38.4,1.56-4.88.06-4.51.01-20.66,0Z" fill="#656d8f" opacity=".3"/><path d="M313.26,306.56l-49.22-3.06h-.1s-.14,0-.14,0h-.14s0,0,0,0h-.1s-49.22,3.06-49.22,3.06v59.51s3.52,2.7,8.93,6.25h81.06c5.42-3.55,8.94-6.25,8.94-6.25v-59.51Z" fill="#666"/><path d="M317.03,323.74c0,1.41-1.36,2.55-3.03,2.55h-99.75c-1.67,0-3.03-1.14-3.03-2.55h0c0-1.41,1.36-2.55,3.03-2.55h99.75c1.67,0,3.03,1.14,3.03,2.55h0Z" fill="#333"/><path d="M317.03,334.74c0,1.41-1.36,2.55-3.03,2.55h-99.75c-1.67,0-3.03-1.14-3.03-2.55h0c0-1.41,1.36-2.55,3.03-2.55h99.75c1.67,0,3.03,1.14,3.03,2.55h0Z" fill="#333"/><path d="M317.03,345.73c0,1.41-1.36,2.55-3.03,2.55h-99.75c-1.67,0-3.03-1.14-3.03-2.55h0c0-1.41,1.36-2.55,3.03-2.55h99.75c1.67,0,3.03,1.14,3.03,2.55h0Z" fill="#333"/><path d="M317.03,356.73c0,1.41-1.36,2.55-3.03,2.55h-99.75c-1.67,0-3.03-1.14-3.03-2.55h0c0-1.41,1.36-2.55,3.03-2.55h99.75c1.67,0,3.03,1.14,3.03,2.55h0Z" fill="#333"/><path d="M314.45,307.24c0-22.95,17.28-49.48,31.56-65.3,14.29-15.81,25.51-42.34,25.51-69.38s-24.4-99.67-107.13-99.97v-.02c-.09,0-.17,0-.25,0-.09,0-.17,0-.26,0v.02c-82.73.3-107.13,72.99-107.13,99.97s11.22,53.57,25.51,69.38c14.28,15.81,30.61,42.34,30.61,65.3,0,2.09.43,3.95,1.2,5.61h99.2c.76-1.67,1.19-3.52,1.19-5.61Z" fill="#589be5"/><path d="M360.73,166.9c0-19.83-16.52-70.52-70.61-78.73-1.38,1.51-2.63,2.9-3.72,4.15,51.77,12.21,67.86,62.58,67.86,82.83,0,15.75-4.45,31.29-11.15,43.89,10.07-12.84,17.63-32.31,17.63-52.14Z" fill="#fff" opacity=".72"/><path d="M268.05,83.26c-1.18,1.68-2.24,3.22-3.16,4.59,5.44.57,10.53,1.6,15.34,2.99l3.83-4.79c-5.2-1.14-10.07-2.65-16-2.79Z" fill="#fff" opacity=".72"/><path d="M294.58,288.73v-4.41l-6.19-1.07c-.22-1.33-.56-2.62-1.03-3.85l4.83-4.03-2.19-3.82-5.92,2.15c-.86-1.05-1.82-2.01-2.87-2.87l2.16-5.92-3.81-2.21-4.05,4.84c-1.26-.48-2.58-.83-3.94-1.05l-1.11-6.23h-4.41l-1.08,6.24c-1.34.22-2.64.58-3.88,1.05l-4.09-4.86-3.82,2.2,2.2,5.97c-1.03.85-1.98,1.81-2.83,2.85l-6-2.16-2.2,3.82,4.9,4.07c-.46,1.22-.8,2.5-1.01,3.81l-6.28,1.12v4.41l6.29,1.09c.21,1.31.55,2.57,1,3.78l-4.9,4.09,2.19,3.82,5.99-2.18c.84,1.04,1.79,1.99,2.82,2.84l-2.19,5.99,3.81,2.21,4.08-4.87c1.25.48,2.56.83,3.91,1.06l1.11,6.25h4.41l1.08-6.24c1.35-.22,2.65-.57,3.89-1.03l4.07,4.84,3.82-2.21-2.18-5.92c1.05-.86,2.01-1.82,2.87-2.87l5.93,2.14,2.2-3.82-4.84-4.02c.47-1.24.82-2.54,1.04-3.88l6.2-1.1ZM268.32,302.21c-8.65,0-15.67-7.02-15.67-15.67s7.02-15.67,15.67-15.67,15.67,7.01,15.67,15.67-7.02,15.67-15.67,15.67Z" fill="#dce9ff"/><path d="M297.85,142.99v-6.27l-8.82-1.53c-.31-1.89-.8-3.73-1.46-5.48l6.87-5.74-3.12-5.44-8.42,3.06c-1.22-1.5-2.59-2.87-4.08-4.09l3.08-8.43-5.42-3.15-5.77,6.88c-1.79-.68-3.67-1.18-5.61-1.49l-1.58-8.86h-6.27l-1.54,8.88c-1.91.32-3.75.82-5.51,1.49l-5.82-6.91-5.43,3.14,3.12,8.5c-1.47,1.21-2.82,2.57-4.03,4.05l-8.53-3.08-3.13,5.43,6.97,5.8c-.65,1.74-1.14,3.55-1.44,5.43l-8.94,1.59v6.27l8.95,1.55c.3,1.86.79,3.65,1.43,5.38l-6.97,5.82,3.12,5.44,8.53-3.1c1.2,1.47,2.54,2.83,4.01,4.04l-3.11,8.52,5.42,3.15,5.81-6.93c1.78.68,3.64,1.19,5.56,1.51l1.58,8.9h6.27l1.54-8.88c1.92-.31,3.77-.8,5.54-1.47l5.8,6.88,5.43-3.14-3.1-8.43c1.5-1.22,2.87-2.59,4.09-4.08l8.44,3.04,3.13-5.44-6.88-5.72c.67-1.77,1.16-3.62,1.48-5.53l8.82-1.57ZM260.48,162.17c-12.31,0-22.3-9.98-22.3-22.3s9.98-22.3,22.3-22.3,22.3,9.98,22.3,22.3-9.98,22.3-22.3,22.3Z" fill="#ffbcc1"/><path d="M339.07,189.53v-6.23l-8.76-1.52c-.31-1.88-.8-3.7-1.45-5.44l6.82-5.7-3.1-5.41-8.37,3.04c-1.21-1.49-2.57-2.85-4.05-4.06l3.06-8.38-5.39-3.13-5.73,6.84c-1.78-.67-3.64-1.17-5.57-1.48l-1.57-8.81h-6.23l-1.53,8.83c-1.9.31-3.73.81-5.48,1.48l-5.78-6.86-5.39,3.12,3.1,8.44c-1.46,1.21-2.8,2.55-4,4.02l-8.48-3.06-3.11,5.4,6.93,5.76c-.64,1.72-1.13,3.53-1.43,5.39l-8.88,1.58v6.23l8.89,1.54c.3,1.85.78,3.63,1.42,5.34l-6.92,5.78,3.1,5.41,8.47-3.08c1.19,1.47,2.53,2.81,3.98,4.01l-3.09,8.46,5.39,3.13,5.77-6.88c1.77.67,3.62,1.18,5.53,1.5l1.57,8.84h6.23l1.53-8.82c1.9-.31,3.74-.8,5.5-1.46l5.76,6.84,5.4-3.12-3.08-8.37c1.49-1.21,2.85-2.57,4.06-4.06l8.39,3.02,3.11-5.4-6.84-5.68c.66-1.75,1.16-3.59,1.47-5.49l8.76-1.56ZM301.94,208.59c-12.24,0-22.15-9.92-22.15-22.15s9.92-22.15,22.15-22.15,22.15,9.92,22.15,22.15-9.92,22.15-22.15,22.15Z" fill="#dce9ff"/><path d="M253.04,186.41v-4.41l-6.2-1.07c-.22-1.33-.56-2.62-1.02-3.85l4.83-4.03-2.19-3.82-5.92,2.15c-.86-1.05-1.82-2.01-2.87-2.87l2.16-5.92-3.81-2.21-4.05,4.84c-1.26-.48-2.58-.83-3.94-1.05l-1.11-6.23h-4.41l-1.08,6.24c-1.34.22-2.64.58-3.88,1.05l-4.09-4.85-3.82,2.2,2.2,5.97c-1.03.85-1.98,1.81-2.83,2.84l-5.99-2.16-2.2,3.82,4.9,4.07c-.46,1.22-.8,2.5-1.01,3.81l-6.28,1.12v4.41l6.29,1.09c.21,1.31.55,2.57,1,3.78l-4.9,4.09,2.19,3.82,5.99-2.18c.84,1.04,1.79,1.99,2.82,2.84l-2.19,5.99,3.81,2.21,4.08-4.87c1.25.48,2.56.83,3.91,1.06l1.11,6.25h4.41l1.08-6.24c1.35-.22,2.65-.57,3.89-1.03l4.07,4.84,3.82-2.21-2.18-5.92c1.05-.86,2.01-1.82,2.87-2.87l5.93,2.14,2.2-3.82-4.84-4.02c.47-1.24.82-2.54,1.04-3.88l6.2-1.1ZM226.78,199.89c-8.65,0-15.67-7.01-15.67-15.67s7.02-15.67,15.67-15.67,15.67,7.02,15.67,15.67-7.02,15.67-15.67,15.67Z" fill="#dce9ff"/><path d="M298,239.23v-7.62l-10.71-1.85c-.37-2.3-.97-4.53-1.77-6.66l8.34-6.97-3.79-6.61-10.23,3.72c-1.48-1.82-3.14-3.48-4.95-4.97l3.74-10.24-6.59-3.82-7,8.36c-2.18-.82-4.45-1.44-6.81-1.81l-1.91-10.76h-7.62l-1.87,10.79c-2.32.38-4.56.99-6.7,1.81l-7.07-8.39-6.59,3.81,3.8,10.32c-1.79,1.47-3.42,3.12-4.89,4.92l-10.36-3.74-3.8,6.6,8.47,7.04c-.79,2.11-1.38,4.31-1.75,6.59l-10.86,1.93v7.62l10.86,1.88c.37,2.26.96,4.44,1.73,6.53l-8.46,7.07,3.79,6.61,10.35-3.77c1.46,1.79,3.09,3.44,4.87,4.91l-3.78,10.35,6.59,3.82,7.05-8.41c2.16.82,4.42,1.44,6.76,1.83l1.92,10.8h7.62l1.87-10.78c2.33-.37,4.58-.98,6.73-1.78l7.04,8.36,6.59-3.81-3.76-10.23c1.82-1.48,3.48-3.15,4.97-4.96l10.25,3.7,3.8-6.6-8.36-6.95c.81-2.15,1.42-4.39,1.79-6.71l10.71-1.9ZM252.62,262.53c-14.96,0-27.08-12.12-27.08-27.08s12.12-27.08,27.08-27.08,27.08,12.12,27.08,27.08-12.12,27.08-27.08,27.08Z" fill="#ffbcc1"/><g opacity=".5"><path d="M255.22,305.21c0,.84-.68,1.52-1.52,1.52s-1.52-.68-1.52-1.52.68-1.52,1.52-1.52,1.52.68,1.52,1.52Z" fill="#fff"/><path d="M286.29,235.79c0,1.91-1.55,3.46-3.46,3.46s-3.46-1.55-3.46-3.46,1.55-3.46,3.46-3.46,3.46,1.55,3.46,3.46Z" fill="#fff"/><path d="M310.57,232.56c0,1.91-1.55,3.46-3.46,3.46s-3.46-1.55-3.46-3.46,1.54-3.46,3.46-3.46,3.46,1.55,3.46,3.46Z" fill="#fff"/><path d="M335.51,192.8c0,2.39-1.93,4.32-4.32,4.32s-4.33-1.94-4.33-4.32,1.94-4.32,4.33-4.32,4.32,1.94,4.32,4.32Z" fill="#fff"/><path d="M317.34,200.66c0,2.62-2.13,4.75-4.76,4.75s-4.76-2.13-4.76-4.75,2.13-4.76,4.76-4.76,4.76,2.13,4.76,4.76Z" fill="#fff"/><path d="M282.08,215.99c0,1.91-1.55,3.46-3.46,3.46s-3.46-1.55-3.46-3.46,1.55-3.46,3.46-3.46,3.46,1.55,3.46,3.46Z" fill="#fff"/><path d="M292.25,191.22c0,1.91-1.55,3.46-3.46,3.46s-3.46-1.55-3.46-3.46,1.55-3.46,3.46-3.46,3.46,1.55,3.46,3.46Z" fill="#fff"/><path d="M284.55,176c0,1.91-1.54,3.46-3.46,3.46s-3.46-1.55-3.46-3.46,1.55-3.46,3.46-3.46,3.46,1.55,3.46,3.46Z" fill="#fff"/><path d="M303.02,147.87c0,2.36-1.91,4.27-4.27,4.27s-4.27-1.91-4.27-4.27,1.91-4.27,4.27-4.27,4.27,1.91,4.27,4.27Z" fill="#fff"/><path d="M333.14,148.32c0,2.87-2.31,5.19-5.19,5.19s-5.19-2.32-5.19-5.19,2.32-5.19,5.19-5.19,5.19,2.32,5.19,5.19Z" fill="#fff"/><path d="M308.84,118.83c0,2.58-2.09,4.67-4.67,4.67s-4.67-2.09-4.67-4.67,2.09-4.67,4.67-4.67,4.67,2.09,4.67,4.67Z" fill="#fff"/><path d="M264.61,125.85c0,2.13-1.73,3.86-3.86,3.86s-3.86-1.73-3.86-3.86,1.73-3.86,3.86-3.86,3.86,1.73,3.86,3.86Z" fill="#fff"/><path d="M235.58,116.78c0,2.58-2.09,4.67-4.67,4.67s-4.67-2.09-4.67-4.67,2.09-4.67,4.67-4.67,4.67,2.09,4.67,4.67Z" fill="#fff"/><path d="M278.85,132.15c0,2.36-1.91,4.27-4.27,4.27s-4.27-1.91-4.27-4.27,1.91-4.27,4.27-4.27,4.27,1.91,4.27,4.27Z" fill="#fff"/><path d="M270.97,148.61c0,1.91-1.55,3.46-3.46,3.46s-3.46-1.55-3.46-3.46,1.55-3.46,3.46-3.46,3.46,1.55,3.46,3.46Z" fill="#fff"/><path d="M264.51,239.26c0,2.63-2.13,4.76-4.76,4.76s-4.76-2.13-4.76-4.76,2.13-4.75,4.76-4.75,4.76,2.13,4.76,4.75Z" fill="#fff"/><path d="M260.6,268.72c0,.43-.35.78-.78.78s-.78-.35-.78-.78.35-.78.78-.78.78.35.78.78Z" fill="#fff"/><path d="M259.75,261.12c0,.43-.35.78-.78.78s-.78-.35-.78-.78.35-.78.78-.78.78.35.78.78Z" fill="#fff"/><path d="M280.21,255.07c0,.43-.35.78-.78.78s-.79-.35-.79-.78.35-.78.79-.78.78.35.78.78Z" fill="#fff"/><path d="M251.4,252.1c0,.43-.35.78-.78.78s-.78-.35-.78-.78.35-.78.78-.78.78.35.78.78Z" fill="#fff"/><path d="M225.79,240.78c0,.43-.35.78-.78.78s-.78-.35-.78-.78.35-.78.78-.78.78.35.78.78Z" fill="#fff"/><path d="M244.66,224.34c0,.43-.35.78-.78.78s-.78-.35-.78-.78.35-.78.78-.78.78.35.78.78Z" fill="#fff"/><path d="M273.5,225.15c0,.43-.35.78-.78.78s-.78-.35-.78-.78.35-.78.78-.78.78.35.78.78Z" fill="#fff"/><path d="M269.18,248.06c0,.43-.35.78-.78.78s-.78-.35-.78-.78.35-.78.78-.78.78.35.78.78Z" fill="#fff"/><path d="M306.09,243.21c0,.43-.35.78-.78.78s-.78-.35-.78-.78.35-.78.78-.78.78.35.78.78Z" fill="#fff"/><path d="M300.42,226.23c0,.43-.35.78-.78.78s-.78-.35-.78-.78.35-.78.78-.78.78.35.78.78Z" fill="#fff"/><path d="M255.11,272.19c0,.62-.5,1.12-1.12,1.12s-1.12-.5-1.12-1.12.5-1.12,1.12-1.12,1.12.5,1.12,1.12Z" fill="#fff"/><path d="M262.26,280.95c0,.62-.5,1.12-1.12,1.12s-1.12-.5-1.12-1.12.5-1.12,1.12-1.12,1.12.5,1.12,1.12Z" fill="#fff"/><path d="M209.92,255.88c0,.62-.5,1.12-1.12,1.12s-1.12-.5-1.12-1.12.5-1.12,1.12-1.12,1.12.5,1.12,1.12Z" fill="#fff"/><path d="M281.86,270.97c0,.62-.5,1.12-1.12,1.12s-1.12-.5-1.12-1.12.5-1.12,1.12-1.12,1.12.5,1.12,1.12Z" fill="#fff"/><path d="M307.77,260.42c0,.62-.5,1.12-1.11,1.12s-1.12-.5-1.12-1.12.5-1.12,1.12-1.12,1.11.5,1.11,1.12Z" fill="#fff"/><path d="M237.15,269.9c0,.62-.5,1.12-1.12,1.12s-1.12-.5-1.12-1.12.5-1.12,1.12-1.12,1.12.5,1.12,1.12Z" fill="#fff"/><path d="M255.25,292.47c0,.66-.53,1.18-1.18,1.18s-1.19-.53-1.19-1.18.53-1.18,1.19-1.18,1.18.53,1.18,1.18Z" fill="#fff"/><path d="M264.91,299.95c0,.84-.68,1.52-1.52,1.52s-1.52-.68-1.52-1.52.68-1.52,1.52-1.52,1.52.68,1.52,1.52Z" fill="#fff"/><path d="M254.99,198.19c0,1.91-1.55,3.46-3.46,3.46s-3.46-1.55-3.46-3.46,1.55-3.46,3.46-3.46,3.46,1.55,3.46,3.46Z" fill="#fff"/><path d="M233.51,189.87c0,2.39-1.94,4.32-4.32,4.32s-4.33-1.93-4.33-4.32,1.94-4.32,4.33-4.32,4.32,1.93,4.32,4.32Z" fill="#fff"/><path d="M243.85,216.25c0,1.91-1.55,3.46-3.46,3.46s-3.46-1.55-3.46-3.46,1.55-3.46,3.46-3.46,3.46,1.55,3.46,3.46Z" fill="#fff"/><path d="M243.55,248.25c0,2.91-2.36,5.28-5.28,5.28s-5.28-2.36-5.28-5.28,2.36-5.28,5.28-5.28,5.28,2.36,5.28,5.28Z" fill="#fff"/><path d="M204.18,229.52c0,3.34-2.71,6.05-6.05,6.05s-6.05-2.71-6.05-6.05,2.71-6.05,6.05-6.05,6.05,2.71,6.05,6.05Z" fill="#fff"/><path d="M214.58,211.85c0,1.91-1.55,3.45-3.46,3.45s-3.46-1.55-3.46-3.45,1.55-3.46,3.46-3.46,3.46,1.55,3.46,3.46Z" fill="#fff"/><path d="M252.97,175.01c0,1.91-1.55,3.46-3.46,3.46s-3.46-1.55-3.46-3.46,1.55-3.46,3.46-3.46,3.46,1.55,3.46,3.46Z" fill="#fff"/><path d="M222.9,147.87c0,1.91-1.55,3.46-3.46,3.46s-3.46-1.55-3.46-3.46,1.55-3.46,3.46-3.46,3.46,1.55,3.46,3.46Z" fill="#fff"/><path d="M203.34,150.75c0,2.87-2.32,5.19-5.19,5.19s-5.19-2.32-5.19-5.19,2.32-5.19,5.19-5.19,5.19,2.32,5.19,5.19Z" fill="#fff"/><path d="M243.92,150.19c0,1.91-1.55,3.46-3.46,3.46s-3.46-1.55-3.46-3.46,1.55-3.46,3.46-3.46,3.46,1.55,3.46,3.46Z" fill="#fff"/><path d="M215.91,172.18c0,1.91-1.55,3.46-3.46,3.46s-3.46-1.55-3.46-3.46,1.55-3.46,3.46-3.46,3.46,1.55,3.46,3.46Z" fill="#fff"/></g><polygon points="152.65 140.02 147.09 140.02 207.28 370.09 212.83 370.09 152.65 140.02" fill="#666"/><polygon points="106.83 140.02 101.27 140.02 161.45 370.09 167.01 370.09 106.83 140.02" fill="#666"/><path d="M160,368.53h7.64c.08,0,.15.05.17.13l.96,3.66c.03.11-.06.23-.17.23h-7.64c-.08,0-.15-.06-.17-.13l-.96-3.66c-.03-.11.06-.23.17-.23Z" fill="#666"/><path d="M205.73,368.53h7.64c.08,0,.15.05.17.13l.96,3.66c.03.11-.06.23-.17.23h-7.64c-.08,0-.15-.06-.17-.13l-.96-3.66c-.03-.11.06-.23.17-.23Z" fill="#666"/><rect x="153.12" y="332.97" width="46.2" height="5.37" fill="#666"/><rect x="95.63" y="166.94" width="46.2" height="3.22" fill="#666"/><rect x="88.7" y="194.79" width="46.2" height="3.22" fill="#666"/><rect x="82.11" y="222.64" width="46.2" height="3.22" fill="#666"/><rect x="75.26" y="250.49" width="46.2" height="3.22" fill="#666"/><rect x="69.05" y="278.34" width="46.2" height="3.22" fill="#666"/><rect x="60.55" y="306.19" width="46.2" height="3.22" fill="#666"/><rect x="53.44" y="334.04" width="46.2" height="3.22" fill="#666"/><polygon points="106.93 140.02 101.37 140.02 41.19 370.09 46.74 370.09 106.93 140.02" fill="#666"/><polygon points="152.75 140.02 147.19 140.02 87.01 370.09 92.56 370.09 152.75 140.02" fill="#666"/><path d="M97.76,138.97h58.27c.07,0,.12.05.12.12v5.27c0,.11-.09.19-.19.19h-58.13c-.11,0-.19-.09-.19-.19v-5.27c0-.07.05-.12.12-.12Z" fill="#666"/><path d="M48.15,368.53h-7.64c-.08,0-.15.05-.17.13l-.96,3.66c-.03.11.06.23.17.23h7.64c.08,0,.15-.06.17-.13l.96-3.66c.03-.11-.06-.23-.17-.23Z" fill="#666"/><path d="M93.97,368.53h-7.64c-.08,0-.15.05-.17.13l-.96,3.66c-.03.11.06.23.17.23h7.64c.08,0,.15-.06.17-.13l.96-3.66c.03-.11-.06-.23-.17-.23Z" fill="#666"/><polygon points="106.44 87.71 106.47 88.1 106.72 87.88 108.02 85.63 109.68 82.79 110.42 83.47 110.54 83.83 112.11 86.63 110.94 91.16 109.03 93.27 103.99 99.14 100.22 96.8 104.81 91.13 104.63 89.11 105.26 86.07 106.44 87.71" fill="#ffbcc1"/><path d="M68.16,122.87c-.38-.47-2.58-5.16,1.35-6.96,7.28-3.33,11.31-4.47,18.17-7.48,2.97-1.3,4.57-1.4,5.99.56l.21.33c1.42,1.96.58,4.66-1.61,5.89,0,0-7.64,5.93-18.69,10.33-2.78,1.11-4.62-1.7-5.42-2.67Z" fill="#8ebeff"/><path d="M87,109.01c4.8-5.17,13.9-14.98,13.9-14.98l1.27-.24.98-.9,3.81,3.47-.77,1.09-.26,1.52s-8.3,10.78-12.51,15.25c-1.82,1.93-5.01,1.27-6.23-.05-.95-1.03-1.58-3.67-.2-5.16Z" fill="#8ebeff"/><polygon points="78.07 109.01 84.52 108.64 84.38 117.05 78.19 117.21 78.07 109.01" fill="#ffbcc1"/><path d="M89.26,104.63c.67,3.91.12,6.81-5.57,7.72-3.34.53-6.58-2.14-7.25-6.05-.09-.55-1.61-7.62-1.6-8.16l2.21-2.54,4.74-2.2,4.18.45c.05.14,2.02,1.25,2.35,3.75.31,2.31.88,6.63.95,7.03Z" fill="#ffbcc1"/><path d="M79.27,108.94c-.9.34-1.12.35-2.04.07-.44-.14-1.03-.95-1.29-1.34-.3-.46-.57-1.87-.57-1.87-.7-2.85-2.76-2.81-2.96-5.14-.06-.71-.28-2.44.03-3.39.35-1.12,2.38-1.61,2.75-2.31.27-.51-.7-1.52.13-2.41.65-.71,1.79-1.59,2.78-1.78,2.4-.47,3.34.95,4.36-.22.81-.94,2.42-.8,3.13-.72,1.23.14,1.17,1.06,1.39,1.21.41.28,1.61,0,1.89.66.39.93.06,2.08-.72,2.99-.8.92-4.42,2.47-5.03,2.74.15.6.27,1.55.46,2.48.04.18-.4.5-.36.68.23,1.09.34,2.02.47,2.53l-.71.38s-.42-1.32-.82-1.42c-.34-.08-1.01.48-1.18.78-.22.39-.17,1.37-.07,1.81.1.46.09,1.8.01,2.29-.22,1.34-.88,1.7-1.66,2Z" fill="#3f4c53"/><path d="M83.93,110.68l.26-4.49-1.2-2.72.71-.38,1.85,2.85,3.82-1.09c.61,3.79.51,6.11-4.08,7.15l-1.36-1.32Z" fill="#3f4c53"/><path d="M84.64,114.67l7.96,1.42c5.53,2.52,4.66,7.37,4.02,10.84l-3.96,19.9-1.69,18.89.23,5.23-1.49.92-.3,1.99-27.03-.66.07-2.3-1.01-1.12,1.22-4.84s1.06-14.59,1.3-18.51c.35-5.68.36-11.33.54-15.1.19-3.93.75-7.08,1.18-9.38.53-2.82,1.99-5.93,5.77-6.88,2.01-.5,6.57-.88,6.57-.88l.04-.58,3.41.16,3.1.26.06.62Z" fill="#8ebeff"/><path d="M76.06,277.6h-.18l-.04.89h-4.24l.12-1.17h.14s0-.01,0-.01v-4.31h4.41l.09.57,2.03,1.49,6.43,1.84s.51.22.5.5l-.02.51v.31s-.09.14-.61.29h-7.37l-.45-.59-.43-.27-.37-.02Z" fill="#2f393e"/><path d="M99.76,249.61h-.18l-.04.89h-4.24l.12-1.17h.14s0-.01,0-.01l.72-4.31h4.4l.09.57,1.32,1.49,6.43,1.84s.51.22.5.5l-.02.51v.31s-.09.14-.61.29h-7.37l-.45-.59-.43-.27-.38-.02Z" fill="#2f393e"/><path d="M74.13,171.67l15.95.76.4,3.64,22.12,21.18c1.56,1.49,2.17,3.72,1.58,5.8l-12.06,42.83-6.91-.45,8.12-41.79-23.76-15.47c-3.83-2.9-5.81-4.24-5.68-8.73l.24-7.79Z" fill="#3f4c53"/><polygon points="62.12 171.1 79.34 171.92 79.28 180.94 78.36 221.46 77.75 273.69 70.82 273.81 67.5 221.87 63.47 190.86 60.01 181.28 61.9 173.91 62.12 171.1" fill="#3f4c53"/><path d="M185.61,73.13v-7.54l-10.6-1.84c-.37-2.28-.96-4.48-1.75-6.59l8.26-6.9-3.75-6.54-10.12,3.68c-1.47-1.8-3.11-3.44-4.9-4.92l3.7-10.13-6.52-3.78-6.93,8.27c-2.15-.81-4.41-1.42-6.74-1.8l-1.89-10.65h-7.54l-1.85,10.68c-2.29.38-4.51.98-6.63,1.79l-6.99-8.3-6.53,3.77,3.76,10.21c-1.77,1.46-3.39,3.09-4.84,4.87l-10.25-3.7-3.76,6.53,8.38,6.97c-.78,2.09-1.36,4.27-1.73,6.52l-10.75,1.91v7.54l10.75,1.86c.37,2.23.94,4.39,1.71,6.46l-8.37,7,3.75,6.54,10.25-3.73c1.44,1.77,3.06,3.4,4.82,4.86l-3.74,10.24,6.52,3.79,6.98-8.33c2.14.82,4.37,1.43,6.69,1.81l1.9,10.69h7.54l1.85-10.67c2.3-.37,4.53-.97,6.66-1.77l6.97,8.27,6.53-3.77-3.73-10.13c1.8-1.47,3.44-3.11,4.92-4.91l10.15,3.66,3.76-6.53-8.27-6.88c.8-2.12,1.4-4.35,1.77-6.64l10.6-1.89ZM140.62,94.96c-14.12,0-25.58-11.45-25.58-25.57s11.45-25.57,25.58-25.57,25.57,11.45,25.57,25.57-11.45,25.57-25.57,25.57Z" fill="#589be5"/><path d="M140.62,43.81c-14.12,0-25.58,11.45-25.58,25.57s11.45,25.57,25.58,25.57,25.57-11.45,25.57-25.57-11.45-25.57-25.57-25.57ZM140.62,88.86c-10.75,0-19.47-8.72-19.47-19.47s8.72-19.47,19.47-19.47,19.47,8.72,19.47,19.47-8.72,19.47-19.47,19.47Z" fill="#0072bc"/><polygon points="129.59 88.48 129.62 88.87 129.86 88.65 131.16 86.4 132.83 83.56 133.56 84.24 133.68 84.61 135.26 87.4 134.08 91.93 132.18 94.05 127.14 99.91 123.36 97.57 127.96 91.91 127.77 89.88 128.41 86.85 129.59 88.48" fill="#ffbcc1"/><path d="M91.31,123.64c-.38-.47-2.58-5.16,1.35-6.96,7.28-3.33,11.31-4.47,18.17-7.48,2.97-1.3,4.57-1.4,5.99.56l.21.33c1.42,1.96.58,4.66-1.61,5.89,0,0-7.64,5.93-18.69,10.33-2.78,1.1-4.62-1.7-5.42-2.67Z" fill="#8ebeff"/><path d="M110.14,109.79c4.8-5.17,13.9-14.98,13.9-14.98l1.28-.24.98-.9,3.81,3.47-.77,1.09-.26,1.52s-8.3,10.78-12.51,15.25c-1.82,1.93-5.01,1.27-6.23-.05-.95-1.03-1.58-3.67-.2-5.16Z" fill="#8ebeff"/><polygon points="428.68 222.23 427.05 219.35 426.79 219.05 426.58 218.04 429.97 218.07 432.66 218.12 432.98 218.02 431.94 217.29 430.79 216.35 430.44 215.3 430.6 215.15 432.71 216.16 435.72 217.23 437.76 218.53 447.72 218.73 446.76 223.27 437.07 222.54 432.62 223.01 428.68 222.23" fill="#ffbcc1"/><path d="M466.42,224.79c6.65-3.46,12.09-7.22,18.88-11.46,3.12-1.94,1.58-5.32-.06-6.67-1.28-1.05-3.18-1.19-5.65.49-9.39,6.39-16.73,10.62-16.73,10.62-2.46,1.86-2.58,4.83-1.61,5.84,2.21,2.3,4.27,1.64,5.17,1.17Z" fill="#589be5"/><path d="M464.24,225.28c-10.37,1.03-24.4-1.51-24.4-1.51l.42-5.9s12.77-.04,24.28-.08c2.67-.01,4.26,3.22,3.5,4.85-.56,1.2-.78,2.34-3.79,2.64Z" fill="#589be5"/><polygon points="493.73 196.89 487.66 197.4 488.5 208.51 494.57 208.01 493.73 196.89" fill="#ffbcc1"/><path d="M481.63,192.87c-.93,4.25,1.26,8.33,4.88,9.12,3.62.79,7.31-2.01,8.24-6.25.13-.6,2.15-8.26,2.16-8.84l-13.88-3.04c-.23.54-1.26,8.41-1.39,9.01Z" fill="#ffbcc1"/><path d="M494,197.86l1.86-3.28s1.45-2.04,1.75-2.89c.38-1.06.07-2.52.4-3.44,1.55-4.36-3.32-5.51-3.77-6.88-.79-2.39-7.36-2.07-8.54-2.9-4.22-2.98-4.25,5.13-2.77,5.94.83.46,2.6,1.86,4.23,1.74,2.29-.17,2.4.11,2.58.76.25.9-.05,3.43.86,3.63.37.08.79-1.02,1.16-.96.38.06.78.92.82,1.3.02.22-.03.66-.11.86-.15.37-.78.93-.88,1.32-.14.57.42,2.3.42,2.3l1.21,2.19.42.32h.35Z" fill="#2f393e"/><path d="M488.29,204.42l-4.88,1.24c-4.49.8-5.44,3.89-5.7,7.46-.59,7.82,1.52,13.62,2.48,25.41.44,5.36.39,20.02.39,20.02l-.29,2.47,1.51,1.23.23,2.02h31.36l-.19-2.08,1.16-.86-1.29-2.81-2.88-19.12v-14.32s-.16-11.98-.16-11.98c-.05-2.63-.75-7.03-4.53-8.12-2.01-.58-11.17-.76-11.17-.76l-3.47,2.44-2.57-2.24Z" fill="#589be5"/><polygon points="494.34 204.24 494.31 203.14 494.22 203.13 491.51 204.96 490.77 206.64 494.34 204.24" fill="#589be5"/><polygon points="491.51 204.96 491.61 204.99 493.56 207.75 494.6 204.23 494.31 203.14 494.22 203.13 491.51 204.96" fill="#589be5"/><polygon points="488.15 204.67 488.01 203.58 488.1 203.56 489.79 205.09 490.77 206.64 488.15 204.67" fill="#589be5"/><polygon points="489.79 205.09 489.7 205.13 487.93 207.97 487.88 204.7 488.01 203.58 488.1 203.56 489.79 205.09" fill="#589be5"/><polygon points="489.74 208.37 491.75 208.22 492.39 206.11 491.69 205.11 489.61 205.26 488.92 206.37 489.74 208.37" fill="#589be5"/><polygon points="491.75 208.22 492.96 223.08 495.89 255.53 492.76 257.83 489.42 256.02 489.6 224 489.74 208.37 491.75 208.22" fill="#589be5"/><polygon points="490.72 208.3 490.95 209.78 490.8 210.38 490.47 209.82 490.56 208.31 490.72 208.3" fill="#589be5"/><path d="M473.36,371.66h.18l.04.89h4.27l-.12-1.18h-.14s0-.01,0-.01l-1.11-4.17h-4.43l-.27.57-.76,1.33-6.48,1.85s-.51.22-.5.5l.02.51v.31s.09.14.62.29h7.43l.45-.6.44-.27.38-.02Z" fill="#2f393e"/><path d="M531.19,371.66h.18l.04.89h4.27l-.12-1.18h-.14s0-.01,0-.01l-1.95-4.17h-4.43l-.03.61-.17,1.3-6.48,1.85s-.51.22-.5.5l.02.51v.31s.09.14.62.29h7.43l.45-.6.44-.27.38-.02Z" fill="#2f393e"/><polygon points="520.3 314.77 534.78 367.4 528.09 368.19 508.25 316.19 497.26 276.07 496.46 276.41 481.04 314.77 477.71 367.59 470.52 367.79 467.89 313.39 480.21 270.72 481.45 265.15 481.74 262.56 513.52 262.56 514.36 267.4 520.3 314.77" fill="#3f4c53"/><path d="M465,230.6v-10.55l-14.83-2.57c-.52-3.19-1.35-6.27-2.45-9.22l11.55-9.66-5.24-9.15-14.17,5.15c-2.05-2.52-4.35-4.82-6.86-6.88l5.18-14.18-9.12-5.3-9.7,11.58c-3.01-1.14-6.17-1.99-9.43-2.51l-2.65-14.91h-10.55l-2.59,14.95c-3.21.53-6.31,1.38-9.28,2.5l-9.79-11.62-9.13,5.28,5.26,14.29c-2.48,2.04-4.74,4.33-6.77,6.81l-14.35-5.17-5.26,9.14,11.73,9.75c-1.09,2.92-1.91,5.97-2.42,9.13l-15.04,2.67v10.55l15.05,2.61c.51,3.13,1.32,6.15,2.4,9.04l-11.72,9.79,5.24,9.15,14.34-5.22c2.02,2.48,4.28,4.76,6.74,6.8l-5.23,14.33,9.12,5.3,9.77-11.65c2.99,1.14,6.12,2,9.36,2.53l2.66,14.96h10.55l2.59-14.93c3.22-.52,6.34-1.35,9.32-2.47l9.75,11.58,9.13-5.28-5.21-14.18c2.52-2.06,4.82-4.36,6.88-6.87l14.2,5.12,5.26-9.14-11.58-9.62c1.12-2.97,1.96-6.08,2.48-9.3l14.83-2.64ZM402.04,252.62c-15.05,0-27.24-12.2-27.24-27.24s12.2-27.24,27.24-27.24,27.24,12.2,27.24,27.24-12.2,27.24-27.24,27.24Z" fill="#0072bc"/><polygon points="450.78 230.58 448.76 227.95 448.45 227.69 448.11 226.72 451.47 226.28 454.14 225.95 454.45 225.81 453.32 225.23 452.04 224.46 451.55 223.47 451.69 223.3 453.92 224 457.05 224.65 459.25 225.64 469.14 224.46 468.82 229.09 459.12 229.72 454.78 230.8 450.78 230.58" fill="#ffbcc1"/><path d="M488.93,227.4c6.05-4.43,12.74-7.33,18.88-13.61,2.57-2.63.48-6.53-1.35-7.62-1.42-.85-3.25-.62-5.51,1.34-8.69,7.52-16.6,13.49-16.6,13.49-2.15,2.21-1.82,5.17-.71,6.02,2.53,1.94,4.47.98,5.29.38Z" fill="#8ebeff"/><path d="M486.85,228.22c-10.1,2.58-24.35,2.19-24.35,2.19l-.48-5.9s12.79-1.81,23.98-3.75c2.63-.46,4.69,2.54,4.19,4.27-.37,1.28-.41,2.43-3.35,3.18Z" fill="#8ebeff"/></g></svg>