<?xml version="1.0" encoding="UTF-8"?>
<svg id="b" xmlns="http://www.w3.org/2000/svg" version="1.1" viewBox="0 0 589.8 400">
  <!-- Generator: Adobe Illustrator 29.0.0, SVG Export Plug-In . SVG Version: 2.1.0 Build 186)  -->
  <defs>
    <style>
      .st0 {
        fill: none;
      }

      .st1 {
        fill: #ef4a60;
      }

      .st2 {
        fill: #46a7da;
      }

      .st3 {
        fill: #ffbcc1;
      }

      .st4 {
        fill: #33759e;
      }

      .st5 {
        fill: #0072bc;
      }

      .st6 {
        fill: #e6ecf8;
      }

      .st7 {
        opacity: .3;
      }

      .st7, .st8, .st9 {
        fill: #fff;
      }

      .st8 {
        opacity: .9;
      }

      .st10 {
        opacity: .6;
      }

      .st10, .st11 {
        fill: #044f85;
      }

      .st12 {
        fill: #e0e7f6;
      }

      .st13, .st14 {
        fill: #8ebeff;
      }

      .st15 {
        fill: #f79c95;
      }

      .st16 {
        fill: #666;
      }

      .st17 {
        fill: #3f4c53;
      }

      .st18 {
        fill: #2a3338;
      }

      .st14 {
        opacity: .2;
      }

      .st19 {
        opacity: .4;
      }

      .st20 {
        fill: #656d8f;
        opacity: .1;
      }

      .st21 {
        fill: #ff8490;
      }

      .st22 {
        fill: #54656f;
      }

      .st23 {
        fill: #589be5;
      }

      .st24 {
        fill: #f8af98;
      }

      .st25 {
        fill: #151a1c;
      }

      .st26 {
        fill: #dce9ff;
      }
    </style>
  </defs>
  <path class="st26" d="M294.3,350.4c-81.2-2-311.7,54.9-293.2-144.8C19.5,6,195.8,146.2,275.7,79.4c79.9-66.8,162.3-116.8,244-18.2,81.7,98.6,83.6,111.2,48.3,181.1-35.3,69.9-36.2,141.5-148.5,126.3-112.3-15.2-93.6-17.4-125.2-18.2Z"/>
  <path class="st20" d="M200.3,339.4c-101.2,0-187.2.8-164.1-3.4,23-4.2,44,0,143.5-1.5,99.6-1.4,189.7-3,291.6-.9,101.8,2.1,74.2,4.5,29.5,5.1-82.2,1.2-96.7,1.8-144.4,1.1-139.4-2-116.7-.4-156.1-.4Z"/>
  <g>
    <g>
      <rect class="st3" x="399" y="58.5" width="10.1" height="18.5" transform="translate(-3.9 105.2) rotate(-14.8)"/>
      <path class="st3" d="M386.9,56.1c.6,6.4,5.5,11.3,11,10.8,5.5-.5,9.5-6.1,8.9-12.5,0-.7-.4-7.8-.7-11.4,0-1.3-.8-2.5-1.9-3.2l-2.1-1.4c-.5-.3-1.1-.6-1.7-.7l-6-1.1c-.9-.2-1.9,0-2.8.3l-3.3,1.3c-1.2.5-2.2,1.4-2.7,2.6-.5,1.1-.9,2.8-.7,4.8.5,3.8,1.9,10.1,2,10.7Z"/>
      <path class="st22" d="M403.3,48.2h-1.1s-.3,4.2-.3,4.2c0,1.2-.8,2.2-1.9,2.5-1.3.4-3.4,1-6.2,1.5-1,.2-5.8-.6-7-.9,0,.3,0,.5.1.6.6,6.4,5.5,11.3,11,10.8,0,0,.2,0,.3,0,.5,0,1-.2,1.5-.3,2.9-.9,5.2-3.3,6.4-6.4,0-.2.1-.4.2-.6,0,0,0,0,0-.1,0-.3.1-.5.2-.7,0-.2,0-.3,0-.5l-1.4-3.9-1.8-6.1Z"/>
      <path class="st17" d="M407.4,54l-.6.8s-.2-1-.7-2.4c-.3-.8.1-6.9-1.9-6.7-.8.1-.9,2.7-.9,2.7l-1.2.4s.2-3.3-.3-4.6c-.8-2.2-1.6-3.1-2.6-1.9-1.5,1.8-5.5,1.3-8.5.6-3-.6-4.6.5-7.1-2.6-2.5-3.2-1.7-5.7-.6-6.9.5-.6,2.4-1.9,7.3-1.3,5,.6,4.5-1.7,7.6-1.1,4.8,1,10.1,6.1,11,11.1.9,5-1.5,11.9-1.5,11.9Z"/>
    </g>
    <g>
      <g>
        <g>
          <g>
            <path class="st25" d="M327.8,134.9l-11-23.7,2.2-1,11,23.7s0,0,0,0l-2,1s0,0,0,0Z"/>
            <g>
              <path class="st1" d="M327.1,134.5l-8.7-18.7c-.2-.3,0-.8.3-.9l1.9-.9c.3-.2.8,0,.9.3l8.7,18.7c.2.3,0,.8-.3.9l-1.9.9c-.3.2-.8,0-.9-.3Z"/>
              <path class="st15" d="M329.6,133.7c.3-.2.5-.5.3-.9l-8.4-18.2c-.2-.3-.5-.5-.9-.3h-.2c0,0,9,19.5,9,19.5h.2Z"/>
            </g>
          </g>
          <g>
            <g>
              <path class="st7" d="M317.9,63.9c-.6-.3-1.3-.5-1.9-.8-13-4.7-27.4,2-32.1,15-4.7,13,2,27.4,15,32.1,13,4.7,27.4-2,32.1-15,4.5-12.3-1.4-26-13.1-31.3Z"/>
              <path class="st13" d="M330.2,97.1c-5.7,12.6-20.6,18.1-33.2,12.3-12.6-5.8-18.1-20.6-12.3-33.2,5.7-12.6,20.6-18.1,33.2-12.3,12.6,5.7,18.1,20.6,12.3,33.2Z"/>
              <path class="st7" d="M327.8,96c-5.1,11.2-18.4,16.2-29.6,11-11.2-5.1-16.2-18.4-11-29.6,5.1-11.2,18.4-16.2,29.6-11,11.2,5.1,16.2,18.4,11,29.6Z"/>
              <path class="st8" d="M315.9,79c6.2,5.1,10.3,11.5,11.7,17.4,0-.2.2-.3.2-.5,5.2-11.3.2-24.6-11.1-29.8-9-4.1-19.3-1.8-25.7,5.1,7.1-1.7,16.7,1,24.9,7.7Z"/>
            </g>
            <path class="st16" d="M307.5,114.2c-11.3,0-21.9-7-25.9-18.3-5.1-14.3,2.4-30.1,16.7-35.2,14.3-5.1,30.1,2.4,35.2,16.7h0c5.1,14.3-2.4,30.1-16.7,35.2-3,1.1-6.2,1.6-9.2,1.6ZM307.4,62c-2.7,0-5.5.5-8.3,1.4-12.8,4.6-19.5,18.7-14.9,31.5,4.6,12.8,18.7,19.5,31.5,14.9,6.2-2.2,11.2-6.7,14-12.6,2.8-5.9,3.1-12.6.9-18.8h0c-3.6-10.1-13.1-16.3-23.2-16.3Z"/>
          </g>
        </g>
        <g>
          <polygon class="st3" points="324.4 120.3 324.4 120.2 324.4 120.2 322.1 120.5 320.7 121 319.5 120.4 319.6 120.2 322.4 118.7 326.2 118.3 330.1 118.9 342.2 119.5 342.1 126.1 330.4 125 328.3 125.8 327.1 126.2 324.4 120.3"/>
          <polygon class="st3" points="322.1 120.8 320.5 121.3 320.4 122.4 322 126.8 323.2 127.1 324 127 325 126.7 325 123.6 325 122.7 324.5 121.5 324.2 120.4 322.1 120.8"/>
        </g>
      </g>
      <g>
        <path class="st11" d="M373.7,129.8c-3.6-1.4-3.5-3.7-2.3-7.2,0,0,9.2-30.4,13.2-41.5,1.2-3.4,5.8-4.7,8.5-2.6,4.1,3.2,4.1,6.7,3.2,9.6-3.2,10.3-12.9,36.8-14.3,39.5-.1.2-2.8,4.4-8.2,2.3Z"/>
        <path class="st11" d="M375.9,119.8c-10.9,0-38.3-1.2-38.3-1.2l.2,7.9s24,4.3,38,4.2c3.7,0,6.8-2.3,6.7-5.7,0-4.8-4.4-5.2-6.6-5.2Z"/>
      </g>
    </g>
    <path class="st11" d="M399.7,71.2s-8.3,4.3-11.3,5.8c-7.1,3.7-3.5,12.3-1.6,17.8,0,0,9.3,22.6,11.4,30.4,1.8,6.4,4.7,26.3,4.7,26.3l.8,8.9,2,1,1,3.2,50.2-5.8-.3-2.3,1.5-2.4-2.5-10.4s-4.5-21.9-6.4-28.1c-1.8-6-6.5-20.5-6.5-20.5,0,0-3.8-12.6-5.2-16.6-1.9-5.4-3.9-11.3-10.3-11.9-3.4-.3-17.6,2.4-17.6,2.4,0,0,.4,3.7-4.9,5-3.7.9-5-2.8-5-2.8Z"/>
    <g>
      <g>
        <polygon class="st12" points="406.6 75 405.8 77.7 402.9 78.5 401.1 76.1 402.3 74 404 73.6 406.6 75"/>
        <path class="st9" d="M402.9,78.5s.9,16.7,1,22.9c.1,13.4,2.3,52.2,2.3,52.2l5.5,1.7,3.9-3.1s-5.7-37.9-7.4-51.8c-.7-6-2.3-22.7-2.3-22.7l-2.9.8Z"/>
        <polygon class="st4" points="398.7 71.7 399.1 69.9 399.4 69.7 402.6 74 399.8 79.6 398.7 71.7"/>
        <polygon class="st4" points="410.9 68.8 409.6 67 409.1 66.9 403.7 73.7 408.5 77.8 410.9 68.8"/>
      </g>
      <polygon class="st6" points="403.9 78.2 404.2 80.3 404.6 80.6 404.8 80.2 404.2 78.2 403.9 78.2"/>
    </g>
    <g>
      <polygon class="st24" points="483.2 146 484.8 147.5 485.2 147.1 485.3 146.9 485.1 146.1 484.5 144.6 483 145.5 483.2 146"/>
      <g>
        <polygon class="st3" points="486 147 490.8 144.8 490.3 141 487.5 137.3 481.2 123.6 475.2 126.2 482.2 139.6 482.3 143.1 483 145.5 484.5 144.6 484.4 144.3 484.5 144.3 485 145.4 485.1 146.2 485.2 146.4 486 147"/>
        <g>
          <path class="st11" d="M469.5,102.1c-2.6,2.9-4.3,2.6-7.6.8,0,0-28-16.5-37.4-22.7-3-2-5-6.3-3.7-9.7,2.6-6.4,9.3-3.3,11.9-1.9,9.4,5.2,27.2,17.7,36.7,25.4,1.6,1.3,3.8,3.7,0,8.1Z"/>
          <path class="st11" d="M461.9,102.4c4.6,9.4,18.5,35.5,18.5,35.5l6.9-3.2s-11.5-28-15-37c-1.4-3.5-4.6-5.2-8-3.8-5.5,2.2-2.5,8.5-2.5,8.5Z"/>
        </g>
      </g>
    </g>
    <g>
      <path class="st18" d="M458.7,335.7h.3v1.4h6.6l-.2-1.8h-.2s0,0,0,0l-1.7-7.4-6.7.6v.9c-.1,0-1.8,2.4-1.8,2.4l-10,2.9s-.8.3-.8.8v.8s0,.5,0,.5c0,0,.1.2.9.4h11.4l.7-.9.7-.4h.6Z"/>
      <path class="st18" d="M395,335.7h.3v1.4h6.6l-.2-1.8h-.2s0,0,0,0l-.4-6.7-6.8-.3-.3.8-2.7,2.7-10,2.9s-.8.3-.8.8v.8s0,.5,0,.5c0,0,.1.2.9.4h11.4l.7-.9.7-.4h.6Z"/>
      <polygon class="st23" points="457.5 247.8 465.6 328.7 454.2 329.7 440 248 431.5 181.2 430 181.4 414 250.9 403.1 329.7 391.9 328.8 396.8 249.5 404.8 180.6 405.5 163.5 405.5 161.6 456.6 156.6 456.7 157.7 458.5 161.1 457.5 168.4 457.5 247.8"/>
    </g>
  </g>
  <g>
    <circle class="st5" cx="225.5" cy="232.7" r="105.8" transform="translate(-98.5 227.6) rotate(-45)"/>
    <path class="st14" d="M168.5,149.8l-5.1,4.4-3.1,5,1.3,5.1-1.3,5.3-1.1,7.9,1.8,3.3.4,4h3.3v-6.4l-.4-6.4,1.3-2.9.6-3.3,1.9.7s1.2,2.4,1.9,3.5c.7,1.1-.4,7.2-.4,7.2l1.8,4.8,2.4,4.8-1.7,4.8-.4,4.2,3.7,1.7,4.4.9s5,2.9,5.5,3.3c.6.4,6.2.9,6.2.9l1.7,3.1,2.8,1.5h4.2l5.3,1.7,3.7-1.3v9.2l2.6,1.3,5,1.5,2,2,2.6,3.7h2.9l2-3.7h1.7l2.2.7,2.2,2.9v5.9l1.3,6.6h-2.9l-3.3,1.8-3.5,7.2-.6,3.7,2.6,1.8-3.7,2.4,2.8,6.2,3.5,5.9,1.1,5,4,4.2,1.8,4s4.4,2.9,5,2.9,6.1,5,6.1,5v7.3l-2.8,7-2.8,5.5-.2,3.5-2.9,4.4-3.1,4.4-1.8,4.2,6.6.9,9.2-5.1,9.4-3.9v-3.7l4.4-.7,3.1.6,6.2-4.4,6.1-6.4,3.1-1.5,4-5.7,7.3-5h3.7l4.2-8.6,3.9-5.7,6.1-7.5,2-6.6,3.3-4.4v-3.7l-3.5-2-.4-2.4-8.4-1.7-.7-1.7-6.6.2-2.4-2.9.4-7-2.4-3-6.1-3-8.4-4.4-2.9-3.3-4.6-3.3-.7-1.7-4.6,1.8-5.5.2-4.8-3.9-2.6-1.5-4.2,1.3-6.4,1.3-2,4.6-2.4,2.6-3.7-2.6-2.6-2.4-5.1.4-5.7-.7-.7-3.9.7-7.3-1.3-4.2-5.7.4-6.4.6-1.5-3.9,4-5.5,1.1-5.9-3.5-.4-1.8,2.6-2,4.4-2.6,1.1-6.2,1.3-4.8-4.4-2-6.6,2.9-4.4,1.8-7.2,2.6-2,5-.2,8.8.6v-4.2l3.7-.6,2.6,2,2.2,3.1,3.5-4.4,1.5,1.5-.2,3.7,2.2,5.9,2.6.4-.9-9-1.5-4.6,2.8-2.9,8.6-2,.2-3.7-2.2-2.9,2.4-3.1,7.2-1.3,2.4-2.9,4.8-3.9,2.9,3.1,3.1.9,1.8-2,1.8-2,1.5.2,3.5.9,3.7-.6-4.4-3.7-5.5-2.4-1.5-2.6h-5.9l-2.9-4.8h-10.1l-3.1-1.3-1.3,3.1,1.3,6.1-3.1,1.1-2.8-2.2-2.9-4.8h-2l-6.8.6-2.6-2.6,1.1-1.3,3.1-2.3c-15.5,1.2-30,5.7-42.9,12.8l-2.7,6.4-4.2,3.5Z"/>
    <path class="st2" d="M298.9,285.7c2.8-6.3,5-13,6.8-20.2,9.6,2.6,15.9,4.9,18.4,5.8,0-.2.1-.3.2-.5-2.5-1-8.9-3.3-18.5-5.8,3-12.7,4.4-26.8,4.1-42.1-.2-7.8-1-15.3-2.6-22.5,9-2.5,14.9-4.6,17.1-5.5,0-.2-.1-.3-.2-.5-2.2.9-8.1,3-17.1,5.5-1.9-8.6-4.9-16.8-8.8-24.3-3.3-6.3-7.3-12.3-12-17.8,4.1-.8,7.9-1.6,11.4-2.5-.2-.1-.3-.3-.5-.4-3.5.8-7.3,1.6-11.4,2.4-3.5-4.1-7.3-7.9-11.5-11.5-10-8.5-19.9-13.8-26.5-16.7-.8-.2-1.6-.3-2.4-.5,6.4,2.7,17.5,8.2,28.6,17.6,3.7,3.1,7.5,6.8,11.2,11.2-5.3,1-11,2-17.1,2.8-3.2-5.7-6.6-10.5-9.7-14.3-8.8-10.6-17.5-16.3-21.6-18.6-.4,0-.9,0-1.3-.1,3.4,1.8,13,7.4,22.6,19.1,3.1,3.8,6.4,8.4,9.6,14-6.5.9-13.4,1.6-20.7,2-1.8-6.7-3.8-12.1-5.6-16.4-5-11.6-9.9-17.3-11.7-19.2-.3,0-.5,0-.8,0,1.3,1.2,6.6,6.8,12,19.4,1.8,4.2,3.7,9.6,5.6,16.1-6.7.4-13.7.7-21.1.7s-13.2-.2-19.4-.6c1.8-6.6,3.8-12,5.6-16.2,5.5-12.8,10.8-18.3,12-19.5-.2,0-.5,0-.7,0-1.7,1.8-6.7,7.5-11.7,19.2-1.8,4.3-3.8,9.8-5.7,16.5-7.3-.4-14.3-1.1-20.8-1.9,3.2-5.7,6.5-10.4,9.7-14.2,9.9-12,19.8-17.6,22.9-19.2-.4,0-.9,0-1.3.1-4,2.2-13,7.9-22,18.7-3.2,3.9-6.6,8.7-9.8,14.5-6.2-.8-11.9-1.7-17.2-2.7,3.8-4.5,7.7-8.3,11.4-11.4,11.8-10.1,23.7-15.6,29.8-18.1-.8.1-1.5.3-2.3.4-6.5,2.8-17.2,8.3-27.8,17.3-4.3,3.6-8.2,7.6-11.7,11.7-4.6-.9-8.8-1.8-12.7-2.7-.2.1-.3.3-.5.4,3.9.9,8.1,1.8,12.8,2.7-4.6,5.4-8.5,11.3-11.8,17.5-4,7.7-7,16-8.9,24.7-9.8-2.6-16.2-5-18.5-5.9,0,.2-.1.3-.2.5,2.3.9,8.8,3.3,18.6,5.9-1.5,7-2.3,14.4-2.5,22.1-.3,15.1,1.1,29.1,4,41.7-10.4,2.7-17.2,5.2-19.9,6.2,0,.2.1.3.2.5,2.6-1,9.5-3.5,19.8-6.2,1.7,7.3,4,14.2,6.9,20.6,3.6,8.1,8,15.4,13.3,21.9-4.8.9-9.2,1.8-13.2,2.8.2.1.3.3.5.4,4-.9,8.4-1.9,13.2-2.7,3.8,4.6,8,8.9,12.6,12.6,12.3,10.1,24.8,14.9,32.2,17,1.2.1,2.3.3,3.5.4-6.3-1.4-21-5.9-35.4-17.8-4-3.3-8.2-7.4-12.3-12.3,5-.9,10.5-1.8,16.3-2.5,3,5.7,6.4,10.8,10.1,15.2,9.5,11.3,19.3,15.9,24.1,17.6.7,0,1.4,0,2,.1-3.5-1-14.8-5.1-25.7-18.1-3.3-3.9-6.7-8.8-9.9-14.9,6.2-.8,12.8-1.4,19.7-1.9,1.8,7.2,3.8,12.8,5.6,17.1,5.2,11.9,10.4,16.4,12.8,17.9.4,0,.7,0,1.1,0-1.6-.8-7.6-4.7-13.4-18.1-1.9-4.3-3.8-9.8-5.6-17,6.5-.4,13.3-.6,20.4-.6s15.1.3,22.1.7c-1.8,7-3.7,12.5-5.5,16.7-5.7,13.3-11.7,17.3-13.4,18.2.4,0,.7,0,1.1,0,2.4-1.6,7.6-6,12.7-17.8,1.9-4.3,3.8-9.9,5.6-17,6.9.5,13.5,1.2,19.7,2-3.2,6.1-6.6,10.9-9.8,14.7-10.6,12.6-21.5,16.8-25.4,18,.7,0,1.4,0,2.1-.2,4.9-1.8,14.4-6.5,23.7-17.5,3.7-4.4,7.1-9.5,10-15,5.8.8,11.2,1.6,16.2,2.6-4,4.8-8.1,8.8-12,12.1-13.6,11.2-27.4,15.8-34.2,17.5,1.3-.1,2.5-.3,3.7-.5,7.5-2.3,19.2-7,30.8-16.5,4.5-3.7,8.6-7.8,12.4-12.4,4.3.8,8.2,1.6,11.8,2.5.2-.1.3-.3.5-.4-3.7-.9-7.6-1.7-11.9-2.5,5.4-6.6,9.9-14,13.5-22.2ZM309.4,223c.3,16.1-1.3,30-4.1,41.9-6.5-1.7-14.3-3.5-23.4-5.2,1.5-11.3,2.1-23.6,1.9-36.8-.1-6-.5-11.6-1.2-16.9,9.5-1.7,17.7-3.7,24.3-5.4,1.5,6.8,2.4,14.3,2.6,22.3ZM198.2,255.9c-9.8.8-18.9,2-27,3.4-1.4-10.6-2.1-22.7-1.8-36.4.1-5.8.5-11.3,1.1-16.5,8.3,1.4,17.6,2.7,27.7,3.5-.2,4.1-.4,8.4-.5,12.9-.2,12.3,0,23.2.4,33ZM198.3,223c0-4.5.3-8.8.5-12.9,8.3.7,17.3,1.1,26.7,1.1s19.5-.5,28.4-1.2c.2,4.2.4,8.5.5,13.1.2,12.3,0,23.3-.4,33.1-8.9-.8-18.4-1.2-28.4-1.2s-18.4.4-26.8,1.1c-.5-9.8-.7-20.7-.4-32.9ZM254.9,223c0-4.6-.3-8.9-.5-13.1,10.2-.9,19.4-2.2,27.7-3.7.6,5.3,1,10.8,1.2,16.8.3,13.8-.5,26-1.9,36.7-8.1-1.4-17.1-2.7-26.9-3.6.5-9.8.7-20.8.4-33.1ZM285.8,158c8.7,10.3,16.8,24.1,20.9,42.1-6.6,1.8-14.7,3.7-24.2,5.4-2.4-19-7.8-33.7-13.9-44.8,6.2-.8,12-1.8,17.3-2.8ZM268,160.9c6.1,11,11.6,25.7,14,44.8-8.3,1.5-17.5,2.8-27.7,3.7-1.2-19.7-4-34.9-7.1-46.4,7.4-.5,14.3-1.2,20.8-2.1ZM205.9,163.1c6.2.4,12.8.6,19.5.6s14.5-.3,21.2-.7c3.2,11.5,5.9,26.7,7.1,46.4-8.8.8-18.3,1.2-28.3,1.2s-18.3-.4-26.7-1.1c1.2-19.7,4-34.9,7.1-46.5ZM184.5,161.1c6.5.8,13.5,1.5,20.9,2-3.1,11.5-5.9,26.8-7.1,46.5-10.1-.8-19.4-2.1-27.7-3.5,2.3-19.1,7.8-33.8,13.9-44.9ZM166.5,158.3c5.3,1,11.2,1.9,17.4,2.7-6.1,11.1-11.5,25.8-13.8,44.9-9.5-1.7-17.6-3.6-24.3-5.3,4-18.1,12.1-32,20.8-42.3ZM143.2,223c.2-7.9,1.1-15.2,2.5-21.9,6.7,1.8,14.8,3.7,24.3,5.3-.6,5.2-1,10.7-1.1,16.6-.3,13.1.4,25.3,1.8,36.5-9.1,1.6-16.9,3.3-23.5,5-2.8-11.8-4.4-25.5-4-41.5ZM167.6,307.5c-8.2-10.1-15.7-23.9-20.2-42.5,6.5-1.7,14.4-3.5,23.4-5,1.2,9.3,3,17.8,5.4,25.7,2.1,7,4.7,13.4,7.7,19.3-5.8.8-11.3,1.6-16.4,2.6ZM184.5,304.9c-5.6-10.8-10.6-25.4-13.2-45,8.1-1.4,17.1-2.6,26.9-3.4,1,20.1,3.4,35.2,6.2,46.5-7,.5-13.6,1.1-19.9,1.9ZM247.6,303c-7-.5-14.4-.8-22.2-.8s-14,.2-20.5.6c-2.8-11.3-5.2-26.4-6.2-46.5,8.4-.7,17.3-1.1,26.7-1.1s19.6.5,28.4,1.2c-1.1,20.2-3.4,35.3-6.2,46.5ZM268,305.1c-6.2-.8-12.8-1.5-19.8-2,2.8-11.3,5.2-26.4,6.2-46.5,9.8.9,18.8,2.1,26.9,3.6-2.7,19.6-7.7,34.2-13.3,44.9ZM284.8,307.8c-5-.9-10.5-1.8-16.3-2.6,3.1-5.9,5.7-12.4,7.9-19.5,2.4-7.8,4.2-16.3,5.4-25.4,9.1,1.6,16.9,3.4,23.4,5.1-4.5,18.6-12.1,32.3-20.3,42.4Z"/>
  </g>
  <path class="st0" d="M61.7,273.3c-2.8,0-5,2.2-5,5s2.2,5,5,5,5-2.2,5-5-2.2-5-5-5Z"/>
  <g>
    <path class="st10" d="M128.3,223.6c2.6,0,4.9-1,6.6-2.7l30.6,24.8c-.2.8-.4,1.7-.4,2.5,0,5.3,4.3,9.6,9.6,9.6s9.6-4.3,9.6-9.6-.2-2.3-.7-3.4l49.1-49.1,7.9,8.2,3.2-22.9-23,2.2,7.6,7.9-48.8,48.8c-1.4-.9-3.1-1.4-4.9-1.4s-4.1.7-5.7,1.9l-31.3-25.3c0-.4.1-.8.1-1.2,0-5.3-4.3-9.6-9.6-9.6s-3.6.5-5.1,1.5c-1.5,5.8-2.6,11.9-3.1,18.1l2.3-2.3c1.6,1.3,3.7,2.1,5.9,2.1ZM174.8,243.2c2.8,0,5,2.2,5,5s-2.2,5-5,5-5-2.2-5-5,2.2-5,5-5ZM128.3,208.9c2.8,0,5,2.2,5,5s-2.2,5-5,5-5-2.2-5-5,2.2-5,5-5Z"/>
    <g class="st19">
      <path class="st11" d="M150.4,268.9v38.3c1.1,1.1,2.2,2.2,3.3,3.2h0s0,0,.1.1c4.6,4.2,9.6,8.1,14.9,11.5v-53.1h-18.3Z"/>
      <path class="st11" d="M173.6,280.3v44.6c5.8,3.3,11.9,6,18.3,8.2v-52.8h-18.3Z"/>
      <path class="st11" d="M127.2,244.6v27.3c4.4,11.1,10.6,21.2,18.3,30.1v-57.4h-18.3Z"/>
      <path class="st11" d="M215.1,259h-18.3v75.5c5.9,1.6,11.9,2.8,18.1,3.4h.2v-78.9Z"/>
      <path class="st11" d="M220,228v110h16.1c1.6-.2,3.2-.3,4.8-.6v-109.4h-20.9Z"/>
    </g>
    <g>
      <path class="st21" d="M217.7,183.3l7.6,7.9-48.8,48.8c-1.4-.9-3.1-1.4-4.9-1.4s-4.1.7-5.7,1.9l-31.3-25.3c0-.4.1-.8.1-1.2,0-5.3-4.3-9.6-9.6-9.6s-9.6,4.3-9.6,9.6.1,1.5.3,2.2l-53.4,53.4c-1.2-.5-2.5-.8-3.8-.8-5.3,0-9.6,4.3-9.6,9.6s4.3,9.6,9.6,9.6,9.6-4.3,9.6-9.6-.5-3.2-1.2-4.5l52.3-52.3c1.6,1.3,3.7,2.1,5.9,2.1s4.9-1,6.6-2.7l30.6,24.8c-.2.8-.4,1.7-.4,2.5,0,5.3,4.3,9.6,9.6,9.6s9.6-4.3,9.6-9.6-.2-2.3-.7-3.4l49.1-49.1,7.9,8.2,3.2-22.9-23,2.2ZM58.6,283.3c-2.8,0-5-2.2-5-5s2.2-5,5-5,5,2.2,5,5-2.2,5-5,5ZM125.2,218.9c-2.8,0-5-2.2-5-5s2.2-5,5-5,5,2.2,5,5-2.2,5-5,5ZM171.6,253.2c-2.8,0-5-2.2-5-5s2.2-5,5-5,5,2.2,5,5-2.2,5-5,5Z"/>
      <g>
        <rect class="st13" x="147.3" y="268.9" width="18.3" height="69.1"/>
        <rect class="st13" x="52.3" y="303.7" width="20.5" height="34.3"/>
        <rect class="st13" x="170.5" y="280.3" width="18.3" height="57.7"/>
        <rect class="st13" x="100.9" y="267.4" width="18.3" height="70.6"/>
        <rect class="st13" x="77.7" y="294.2" width="18.3" height="43.7"/>
        <rect class="st13" x="124.1" y="244.6" width="18.3" height="93.4"/>
        <rect class="st13" x="193.7" y="259" width="18.3" height="78.9"/>
        <rect class="st13" x="216.9" y="228" width="20.9" height="110"/>
      </g>
    </g>
  </g>
</svg>