<?xml version="1.0" encoding="UTF-8"?><svg id="b" xmlns="http://www.w3.org/2000/svg" width="600" height="342.22" viewBox="0 0 600 342.22"><g id="c"><path d="M252.19,320.42c-46.55,20.9-168.24,44.9-207.19-37.12C-15.52,155.85,74.63,29.1,139.45,47.57c46.54,13.27,74.77,30.46,116.91-3.17,47.69-38.05,191.25-53.6,246.95,15.74,49.07,61.09-3.45,111.32,17.67,158.91,77.53,174.77-138.58,104.72-180.68,87.06-42.1-17.66-65.5,4.14-88.11,14.3Z" fill="#dce8f6"/><path d="M188.52,308.37c.02-.14,1.7-13.73,2.89-19.37,1.19-5.62,3.22-8.16,5.18-10.61,1.66-2.07,3.22-4.02,4.27-7.65,2.29-7.91,7.08-15.95,7.13-16.03l-.14-.08c-.05.08-4.85,8.14-7.15,16.07-1.04,3.6-2.6,5.54-4.24,7.59-1.98,2.47-4.02,5.02-5.22,10.68-1.19,5.65-2.87,19.25-2.89,19.39l.16.02Z" fill="#84a24d"/><path d="M113.63,145.97c-.49,0-.97-.05-1.44-.16l.33-1.43c.36.08.74.13,1.12.13h.15s.04,1.46.04,1.46h-.19ZM115.46,145.71l-.42-1.4c.41-.12.8-.3,1.17-.51l.76,1.25c-.47.28-.97.51-1.5.67ZM110.64,145.24c-.49-.26-.94-.58-1.35-.95l.99-1.08c.31.29.66.53,1.04.73l-.68,1.29ZM118.25,144.02l-1.05-1.02c.3-.3.55-.65.76-1.02l1.27.72c-.27.48-.6.92-.99,1.32ZM108.24,143.03c-.3-.46-.54-.96-.71-1.49l1.39-.45c.13.4.32.79.55,1.15l-1.23.79ZM119.85,141.18l-1.42-.37c.11-.41.16-.84.16-1.26,0-.2-.01-.4-.04-.59l1.45-.17c.03.25.04.51.04.77,0,.55-.07,1.1-.21,1.63ZM107.22,139.93c0-.13-.01-.25-.01-.38,0-.42.04-.85.12-1.26l1.44.28c-.06.32-.09.65-.09.97,0,.1,0,.2,0,.3l-1.46.08ZM118.25,137.72c-.15-.4-.36-.77-.61-1.11l1.18-.87c.33.45.6.93.8,1.44l-1.36.54ZM109.17,137.37l-1.31-.64c.24-.49.55-.95.91-1.37l1.11.95c-.28.32-.51.68-.7,1.06ZM116.76,135.69c-.33-.27-.69-.49-1.08-.67l.6-1.33c.5.23.97.52,1.4.87l-.92,1.13ZM110.82,135.46l-.83-1.21c.46-.31.95-.57,1.46-.75l.5,1.38c-.4.14-.78.34-1.13.58ZM114.46,134.65c-.41-.07-.84-.09-1.28-.05l-.12-1.46c.55-.05,1.11-.03,1.64.06l-.24,1.44Z" fill="#589be5"/><path d="M116.4,139.55c0,1.53-1.24,2.77-2.77,2.77s-2.77-1.24-2.77-2.77,1.24-2.77,2.77-2.77,2.77,1.24,2.77,2.77Z" fill="#589be5"/><path d="M247.84,46.23l-.22-1.71c.49-.06.97-.19,1.42-.39l.69,1.58c-.6.26-1.24.44-1.89.52ZM245.87,46.19c-.65-.11-1.28-.31-1.87-.59l.75-1.55c.44.22.91.37,1.4.45l-.28,1.7ZM251.39,44.66l-1.12-1.31c.37-.32.7-.69.97-1.1l1.44.95c-.36.55-.8,1.04-1.3,1.47ZM242.37,44.49c-.49-.44-.9-.96-1.24-1.52l1.48-.89c.25.42.57.8.93,1.14l-1.16,1.27ZM253.52,41.4l-1.65-.49c.14-.47.21-.96.21-1.45h1.72c0,.66-.1,1.32-.28,1.94ZM240.37,41.15c-.14-.55-.21-1.12-.21-1.69v-.26s1.73.06,1.73.06v.2c0,.43.05.86.15,1.27l-1.67.43ZM251.97,38.38c-.1-.48-.28-.94-.51-1.37l1.51-.83c.32.58.55,1.19.69,1.84l-1.68.36ZM242.15,37.82l-1.63-.56c.21-.62.51-1.21.89-1.75l1.41.99c-.29.41-.51.85-.67,1.31ZM250.56,35.83c-.35-.35-.75-.64-1.18-.87l.81-1.52c.58.31,1.11.7,1.58,1.17l-1.21,1.23ZM243.84,35.45l-1.07-1.35c.52-.41,1.09-.74,1.7-.98l.63,1.6c-.46.18-.89.43-1.27.73ZM248,34.46c-.47-.1-.98-.13-1.46-.08l-.15-1.72c.65-.06,1.33-.02,1.96.11l-.35,1.69Z" fill="#589be5"/><path d="M342.18,59.25l-.14-1.07c.31-.04.61-.12.89-.25l.43.99c-.38.17-.78.27-1.19.33ZM340.95,59.23c-.41-.07-.8-.19-1.17-.37l.47-.97c.28.14.57.23.88.28l-.17,1.06ZM344.41,58.27l-.7-.82c.23-.2.44-.43.61-.69l.9.59c-.23.34-.5.65-.81.92ZM338.76,58.16c-.3-.28-.57-.6-.78-.95l.93-.56c.16.26.35.5.58.71l-.73.79ZM345.74,56.23l-1.03-.31c.09-.29.13-.6.13-.91h1.08c0,.42-.06.82-.18,1.22ZM337.5,56.07c-.09-.34-.13-.7-.13-1.06v-.16s1.08.04,1.08.04v.12c0,.27.03.54.1.79l-1.05.27ZM344.76,54.33c-.07-.3-.17-.59-.32-.86l.95-.52c.2.36.34.75.43,1.15l-1.06.23ZM338.62,53.98l-1.02-.35c.13-.39.32-.76.56-1.1l.88.62c-.18.26-.32.53-.42.82ZM343.89,52.74c-.22-.22-.47-.4-.74-.55l.51-.95c.36.19.7.44.99.73l-.76.77ZM339.67,52.5l-.67-.85c.32-.26.68-.46,1.07-.61l.4,1c-.29.11-.56.27-.8.46ZM342.28,51.88c-.3-.06-.61-.08-.92-.05l-.09-1.07c.41-.03.83-.01,1.23.07l-.22,1.06Z" fill="#589be5"/><rect x="268.23" y="265.66" width="65.05" height="43.68" fill="#044f85"/><path d="M351.11,315.96h-100.71c0-4.05,2.32-7.74,5.96-9.5l11.87-5.74h65.05l11.87,5.74c3.64,1.76,5.96,5.46,5.96,9.5h0Z" fill="#0072bc"/><rect x="148.54" y="98.72" width="304.44" height="182.25" rx="17.49" ry="17.49" fill="#0072bc"/><rect x="158.75" y="114.26" width="284.01" height="143.11" fill="#e5f4fc"/><g opacity=".09"><path d="M203.43,107.65s0,0,0,0c.63-.95,1.23-1.93,1.8-2.92,0,0,0,0,0,0h0c1.1-1.92,2.06-3.93,2.9-6h-47.94c-6.43,0-11.64,5.21-11.64,11.64v17.15c4.43,1.31,9.12,2.03,13.98,2.03,17.06,0,32.09-8.69,40.91-21.89Z"/></g><circle cx="158.52" cy="74.38" r="49.18" fill="#589be5"/><circle cx="158.52" cy="74.38" r="40.31" fill="#fff"/><path d="M189.11,74.38c0,16.9-13.7,30.59-30.59,30.59s-30.59-13.7-30.59-30.59,13.7-30.59,30.59-30.59,30.59,13.7,30.59,30.59Z" fill="#8ebeff"/><circle cx="158.52" cy="74.38" r="22.3" transform="translate(68.89 224.8) rotate(-84.35)" fill="#fff"/><path d="M171.39,74.38c0,7.11-5.76,12.87-12.87,12.87s-12.87-5.76-12.87-12.87,5.76-12.87,12.87-12.87,12.87,5.76,12.87,12.87Z" fill="#589be5"/><path d="M159.61,72.58s-1.36-.46-2,.92c0,0-.66,1.26-.08,1.83l41.89,26.33c.64-.95,1.23-1.93,1.8-2.93l-41.62-26.16Z" fill="#5a5a5a" opacity=".21"/><path d="M157.11,75.38s1.26,1.09,2.07.58L225.13,10.88l-2.85-2.85-65.69,64.82s-.89,1.43.52,2.52Z" fill="#e3e4e3"/><polygon points="204.33 12.78 205.75 24.77 205.64 25.08 215.58 15.11 214.16 3.88 204.33 12.78" fill="#8ebeff"/><polygon points="219.38 11.3 218.45 0 214.8 3.3 216.14 14.55 219.38 11.3" fill="#8ebeff"/><polygon points="198.81 17.78 199.88 30.86 205.22 25.51 203.69 13.36 198.81 17.78" fill="#8ebeff"/><polygon points="201.83 33.08 214.46 33.61 226.1 22.06 213.73 21.47 201.83 33.08" fill="#8ebeff"/><polygon points="233.02 15.19 221.13 14.25 214.43 20.79 226.76 21.4 233.02 15.19" fill="#8ebeff"/><path d="M159.18,75.96L225.13,10.88l-1.31-1.31-66.74,65.77s.02.02.03.03c0,0,1.26,1.09,2.07.58Z" fill="#f9f9f9"/><path d="M383.86,24.27h94.72c2.51,0,4.55,2.04,4.55,4.55v53.78h-103.81V28.82c0-2.51,2.04-4.55,4.55-4.55Z" fill="#007db0" opacity=".1"/><path d="M392.04,17.23h94.72c2.51,0,4.55,2.04,4.55,4.55v53.77h-103.81V21.78c0-2.51,2.04-4.55,4.55-4.55Z" fill="#fff"/><path d="M392.02,17.23h94.76c2.5,0,4.53,2.03,4.53,4.53v.19h-103.81v-.19c0-2.5,2.03-4.53,4.53-4.53Z" fill="#589be5"/><path d="M407.42,20.69h-16.66c-.44,0-.8-.36-.8-.8h0c0-.44.36-.8.8-.8h16.66c.44,0,.8.36.8.8h0c0,.44-.36.8-.8.8Z" fill="#8ebeff"/><path d="M481.65,20.7h0c-.46,0-.84-.38-.84-.84h0c0-.46.38-.84.84-.84h0c.46,0,.84.38.84.84h0c0,.46-.38.84-.84.84Z" fill="#8ebeff"/><path d="M484.68,20.7h0c-.46,0-.84-.38-.84-.84h0c0-.46.38-.84.84-.84h0c.46,0,.84.38.84.84h0c0,.46-.38.84-.84.84Z" fill="#8ebeff"/><path d="M487.71,20.7h0c-.46,0-.84-.38-.84-.84h0c0-.46.38-.84.84-.84h0c.46,0,.84.38.84.84h0c0,.46-.38.84-.84.84Z" fill="#8ebeff"/><path d="M387.7,68.91l-.42-.28c.4-.61.85-1.41,1.37-2.34,2.12-3.79,5.33-9.51,9.48-9.51,3.62,0,5.62,1.26,7.75,2.6,2.37,1.49,4.81,3.03,9.83,3.03,6.29,0,10.1-4.86,13.46-9.15,2.78-3.54,5.18-6.61,8.49-6.61,5.55,0,7.95,2.17,10.26,4.26,2.11,1.91,4.1,3.72,8.44,3.72s8.06-3.89,12.62-8.4c6.07-6.01,12.97-12.82,22.35-12.15l-.04.5c-9.18-.65-15.97,6.07-21.96,12-4.63,4.59-8.63,8.55-12.97,8.55s-6.68-1.96-8.77-3.85c-2.24-2.03-4.56-4.13-9.92-4.13-3.06,0-5.39,2.97-8.09,6.41-3.43,4.38-7.32,9.34-13.86,9.34-5.16,0-7.67-1.58-10.1-3.1-2.06-1.3-4.01-2.52-7.48-2.52-3.85,0-6.97,5.57-9.04,9.25-.53.94-.98,1.75-1.39,2.37Z" fill="#8ebeff"/><path d="M399.06,57.08c0,.86-.69,1.55-1.55,1.55s-1.55-.69-1.55-1.55.69-1.55,1.55-1.55,1.55.69,1.55,1.55Z" fill="#589be5"/><path d="M418.19,62.52c0,.86-.69,1.55-1.55,1.55s-1.55-.69-1.55-1.55.69-1.55,1.55-1.55,1.55.69,1.55,1.55Z" fill="#589be5"/><path d="M439.39,47.02c0,.86-.69,1.55-1.55,1.55s-1.55-.69-1.55-1.55.69-1.55,1.55-1.55,1.55.69,1.55,1.55Z" fill="#589be5"/><path d="M458.12,54.88c0,.86-.69,1.55-1.55,1.55s-1.55-.69-1.55-1.55.69-1.55,1.55-1.55,1.55.69,1.55,1.55Z" fill="#589be5"/><path d="M480.87,37.55c0,.86-.69,1.55-1.55,1.55s-1.55-.69-1.55-1.55.69-1.55,1.55-1.55,1.55.69,1.55,1.55Z" fill="#589be5"/><rect x="170.29" y="234.49" width="16.44" height="20.17" fill="#ffbcc1"/><rect x="192.5" y="225.87" width="16.44" height="28.79" fill="#8ebeff"/><rect x="214.7" y="214.32" width="16.44" height="40.34" fill="#ffbcc1"/><rect x="236.91" y="203.77" width="16.44" height="50.89" fill="#8ebeff"/><rect x="281.32" y="206.26" width="16.44" height="48.4" fill="#8ebeff"/><rect x="303.52" y="199.99" width="16.44" height="54.67" fill="#ffbcc1"/><rect x="325.73" y="193.72" width="16.44" height="60.94" fill="#8ebeff"/><rect x="347.94" y="182.37" width="16.44" height="72.29" fill="#ffbcc1"/><rect x="370.14" y="199.99" width="16.44" height="54.67" fill="#8ebeff"/><rect x="392.35" y="171.32" width="16.44" height="83.34" fill="#ffbcc1"/><rect x="414.55" y="153.65" width="16.44" height="101.01" fill="#8ebeff"/><rect x="259.11" y="193.72" width="16.44" height="60.94" fill="#ffbcc1"/><polygon points="178.54 223.71 158.75 223.71 158.75 223.35 178.48 223.35 201.98 214.74 222.83 203.2 246.24 192.64 267.34 181.64 267.43 181.69 289.57 195.1 311.69 188.85 335.18 182.58 356.17 171.19 356.27 171.26 378.33 188.77 400.42 160.24 422.71 142.5 442.76 142.5 442.76 142.87 422.83 142.87 400.68 160.5 378.39 189.28 378.25 189.17 356.14 171.62 335.31 182.91 311.79 189.2 289.51 195.5 289.44 195.45 267.33 182.06 246.4 192.97 223 203.53 202.14 215.07 178.54 223.71" fill="#589be5"/><path d="M179.9,223.53c0,.77-.62,1.39-1.39,1.39s-1.39-.62-1.39-1.39.62-1.39,1.39-1.39,1.39.62,1.39,1.39Z" fill="#0072bc"/><path d="M202.11,215.37c0,.77-.62,1.39-1.39,1.39s-1.39-.62-1.39-1.39.62-1.39,1.39-1.39,1.39.62,1.39,1.39Z" fill="#0072bc"/><path d="M224.31,203.17c0,.77-.62,1.39-1.39,1.39s-1.39-.62-1.39-1.39.62-1.39,1.39-1.39,1.39.62,1.39,1.39Z" fill="#8ebeff"/><path d="M246.52,193.31c0,.77-.62,1.39-1.39,1.39s-1.39-.62-1.39-1.39.62-1.39,1.39-1.39,1.39.62,1.39,1.39Z" fill="#0072bc"/><path d="M268.72,181.72c0,.77-.62,1.39-1.39,1.39s-1.39-.62-1.39-1.39.62-1.39,1.39-1.39,1.39.62,1.39,1.39Z" fill="#8ebeff"/><path d="M290.93,195.11c0,.77-.62,1.39-1.39,1.39s-1.39-.62-1.39-1.39.62-1.39,1.39-1.39,1.39.62,1.39,1.39Z" fill="#0072bc"/><path d="M313.13,188.81c0,.77-.62,1.39-1.39,1.39s-1.39-.62-1.39-1.39.62-1.39,1.39-1.39,1.39.62,1.39,1.39Z" fill="#8ebeff"/><path d="M335.34,182.77c0,.77-.62,1.39-1.39,1.39s-1.39-.62-1.39-1.39.62-1.39,1.39-1.39,1.39.62,1.39,1.39Z" fill="#0072bc"/><path d="M357.55,171.32c0,.77-.62,1.39-1.39,1.39s-1.39-.62-1.39-1.39.62-1.39,1.39-1.39,1.39.62,1.39,1.39Z" fill="#8ebeff"/><path d="M379.75,189.14c0,.77-.62,1.39-1.39,1.39s-1.39-.62-1.39-1.39.62-1.39,1.39-1.39,1.39.62,1.39,1.39Z" fill="#0072bc"/><path d="M401.96,160.25c0,.77-.62,1.39-1.39,1.39s-1.39-.62-1.39-1.39.62-1.39,1.39-1.39,1.39.62,1.39,1.39Z" fill="#8ebeff"/><path d="M424.16,142.68c0,.77-.62,1.39-1.39,1.39s-1.39-.62-1.39-1.39.62-1.39,1.39-1.39,1.39.62,1.39,1.39Z" fill="#0072bc"/><path d="M483.27,122.9c-.44-.04-.88-.12-1.31-.25l.35-1.16c.34.1.7.17,1.06.2l-.1,1.2ZM484.6,122.88l-.14-1.2c.36-.04.72-.12,1.06-.24l.39,1.15c-.42.14-.86.24-1.3.29ZM480.74,122.13c-.39-.21-.76-.47-1.09-.76l.79-.92c.27.24.57.44.89.62l-.58,1.06ZM487.11,122.03l-.62-1.04c.31-.18.6-.4.87-.64l.82.89c-.33.3-.69.57-1.07.79ZM478.73,120.4c-.27-.35-.51-.73-.7-1.14l1.09-.52c.16.33.35.64.56.92l-.96.74ZM489.06,120.24l-.98-.71c.21-.29.39-.61.54-.94l1.11.49c-.18.41-.4.8-.66,1.16ZM477.59,118.01c-.1-.43-.16-.88-.18-1.32l1.21-.03c.01.36.06.72.14,1.07l-1.18.28ZM490.13,117.81l-1.18-.25c.07-.35.11-.71.11-1.08,0-.11,0-.22-.01-.32l1.21-.07c0,.13.01.26.01.39,0,.45-.05.9-.14,1.33ZM478.7,115.57l-1.19-.21c.08-.44.2-.87.37-1.28l1.12.45c-.13.33-.23.68-.3,1.04ZM488.87,115.1c-.1-.35-.23-.69-.39-1.01l1.07-.55c.2.39.37.81.48,1.24l-1.16.32ZM479.5,113.58l-1-.67c.25-.37.53-.71.85-1.02l.84.87c-.26.25-.49.53-.69.83ZM487.89,113.19c-.23-.28-.49-.54-.77-.77l.76-.94c.34.28.66.6.94.94l-.94.77ZM481.04,112.08l-.65-1.02c.38-.24.78-.44,1.19-.59l.42,1.13c-.34.13-.66.29-.97.48ZM486.21,111.84c-.32-.16-.66-.3-1.01-.39l.32-1.17c.43.12.85.28,1.24.48l-.55,1.08ZM483.06,111.33l-.18-1.2c.43-.06.89-.09,1.33-.06l-.07,1.21c-.36-.02-.73,0-1.08.05Z" fill="#589be5"/><path d="M486.67,116.49c0,1.56-1.27,2.83-2.83,2.83s-2.83-1.27-2.83-2.83,1.27-2.83,2.83-2.83,2.83,1.27,2.83,2.83Z" fill="#589be5"/><path d="M202.67,171.19h-54.17v97.71c0,6.67,5.41,12.08,12.08,12.08h46.68v-105.2c0-2.53-2.05-4.59-4.59-4.59Z" opacity=".2"/><path d="M118.34,179.27h72.39c3.67,0,6.64,2.98,6.64,6.64v123.4c0,3.67-2.98,6.64-6.64,6.64h-72.39c-3.67,0-6.64-2.98-6.64-6.64v-123.4c0-3.67,2.98-6.64,6.64-6.64Z" fill="#0072bc"/><rect x="115.31" y="190.72" width="78.45" height="114.31" fill="#fff"/><path d="M523.82,341.43c-19.18-.05-54.53.92-50.16-3.99,4.36-4.91,27.39-.1,46.26-1.75,18.87-1.64,35.96-3.53,55.26-1.11,19.3,2.43,14.05,5.22,5.58,6.01-15.57,1.45-18.33,2.08-27.36,1.28-26.42-2.33-22.12-.43-29.58-.45Z" fill="#656d8f" opacity=".3"/><path d="M56.48,340.17c-19.18-.05-54.53.92-50.16-3.99,4.36-4.91,27.39-.1,46.26-1.75,18.87-1.64,35.96-3.53,55.26-1.11,19.3,2.43,14.05,5.22,5.58,6.01-15.57,1.45-18.33,2.08-27.36,1.28-26.42-2.33-22.12-.43-29.58-.45Z" fill="#656d8f" opacity=".3"/><path d="M157.38,221.48c4.56,0,8.28,3.57,8.55,8.06h12.23c-.28-11.25-9.47-20.28-20.79-20.28-3.57,0-6.93.9-9.88,2.49l6.26,10.54c1.1-.51,2.32-.81,3.61-.81Z" fill="#589be5"/><path d="M148.8,230.06c0-3.26,1.82-6.1,4.5-7.55l-6.24-10.51c-6.26,3.59-10.48,10.33-10.48,18.06s4.39,14.75,10.86,18.28l5.88-10.72c-2.69-1.45-4.52-4.29-4.52-7.56Z" fill="#8ebeff"/><path d="M157.38,238.64c-1.29,0-2.5-.29-3.59-.8l-5.88,10.73c2.84,1.46,6.06,2.29,9.48,2.29,11.49,0,20.8-9.31,20.8-20.8h-12.22c0,4.74-3.84,8.58-8.58,8.58Z" fill="#8ebeff"/><path d="M157.38,223.75c3.35,0,6.09,2.62,6.29,5.92h1.15c-.2-3.94-3.45-7.07-7.43-7.07-1.17,0-2.26.28-3.24.75l.59.99c.81-.38,1.71-.59,2.66-.59Z" fill="#8ebeff"/><path d="M151.08,230.06c0-2.4,1.33-4.48,3.31-5.55l-.59-.98c-2.3,1.27-3.87,3.72-3.87,6.53s1.59,5.3,3.92,6.56l.55-1.01c-1.98-1.06-3.32-3.15-3.32-5.55Z" fill="#8ebeff"/><path d="M164.84,230.06h-1.15c0,3.48-2.82,6.3-6.31,6.3-.95,0-1.84-.21-2.64-.58l-.55,1.01c.97.46,2.05.73,3.19.73,4.12,0,7.45-3.34,7.45-7.45Z" fill="#8ebeff"/><path d="M157.38,252.85c-12.57,0-22.79-10.23-22.79-22.79s10.23-22.8,22.79-22.8,22.79,10.23,22.79,22.8-10.23,22.79-22.79,22.79h0ZM157.38,208.3c-12,0-21.76,9.76-21.76,21.76s9.76,21.75,21.76,21.75,21.75-9.76,21.75-21.75-9.76-21.76-21.75-21.76h0Z" fill="#8ebeff"/><path d="M175.18,211c.14.08.46.22.81.22.63,0,.83-.4.83-.71,0-.51-.47-.73-.94-.73h-.28v-.37h.28c.36,0,.81-.19.81-.62,0-.29-.19-.55-.64-.55-.29,0-.57.13-.73.24l-.13-.36c.2-.14.57-.28.96-.28.72,0,1.04.43,1.04.87,0,.38-.23.7-.67.87h0c.45.1.81.43.81.94,0,.58-.46,1.09-1.33,1.09-.41,0-.77-.13-.95-.25l.13-.38Z" fill="#589be5"/><path d="M180.37,209.7c0,1.24-.46,1.92-1.27,1.92-.71,0-1.2-.67-1.21-1.87,0-1.23.53-1.9,1.27-1.9s1.2.68,1.2,1.85ZM178.39,209.76c0,.95.29,1.49.74,1.49.5,0,.74-.59.74-1.52s-.22-1.49-.74-1.49c-.43,0-.74.53-.74,1.52Z" fill="#589be5"/><path d="M182.46,208.94c0,.77-.4,1.15-.87,1.15s-.85-.36-.85-1.09c0-.73.39-1.14.89-1.14s.84.39.84,1.08ZM181.12,208.97c-.01.47.17.82.48.82.33,0,.47-.35.47-.82,0-.45-.13-.81-.48-.81-.3,0-.47.36-.47.82ZM181.55,211.63l2.15-3.78h.31l-2.15,3.78h-.32ZM184.84,210.46c0,.77-.4,1.15-.87,1.15s-.85-.36-.85-1.1c0-.73.39-1.14.89-1.14s.84.39.84,1.09ZM183.5,210.49c-.01.47.17.82.48.82.33,0,.47-.35.47-.83,0-.44-.13-.81-.48-.81-.3,0-.47.36-.47.82Z" fill="#589be5"/><path d="M172.65,251.91c.14.08.46.22.81.22.63,0,.83-.4.83-.71,0-.51-.47-.73-.94-.73h-.28v-.37h.28c.36,0,.81-.18.81-.62,0-.29-.19-.55-.64-.55-.29,0-.57.13-.73.24l-.13-.36c.2-.14.57-.28.96-.28.72,0,1.04.43,1.04.87,0,.38-.23.7-.67.86h0c.45.1.81.43.81.94,0,.58-.46,1.09-1.33,1.09-.41,0-.77-.13-.95-.25l.13-.38Z" fill="#8ebeff"/><path d="M177.84,250.6c0,1.24-.46,1.92-1.27,1.92-.71,0-1.2-.67-1.21-1.87,0-1.23.53-1.9,1.27-1.9s1.21.68,1.21,1.84ZM175.86,250.66c0,.95.29,1.49.74,1.49.5,0,.74-.59.74-1.52s-.23-1.49-.74-1.49c-.43,0-.74.53-.74,1.52Z" fill="#8ebeff"/><path d="M179.93,249.84c0,.77-.4,1.15-.87,1.15s-.84-.36-.85-1.09c0-.73.39-1.14.89-1.14s.84.39.84,1.08ZM178.6,249.88c-.01.47.17.82.48.82.33,0,.47-.35.47-.82,0-.45-.13-.81-.48-.81-.3,0-.47.36-.47.82ZM179.02,252.53l2.15-3.78h.31l-2.15,3.78h-.31ZM182.31,251.36c0,.77-.4,1.15-.87,1.15s-.85-.37-.85-1.1c0-.73.39-1.14.89-1.14s.84.39.84,1.09ZM180.98,251.39c-.01.47.17.82.48.82.33,0,.47-.35.47-.83,0-.44-.13-.81-.48-.81-.3,0-.47.36-.47.82Z" fill="#8ebeff"/><path d="M122.65,234.84c.14.08.46.22.81.22.63,0,.83-.4.82-.71,0-.51-.47-.73-.94-.73h-.28v-.37h.28c.36,0,.81-.18.81-.62,0-.29-.19-.55-.64-.55-.29,0-.57.13-.73.24l-.13-.36c.2-.14.57-.28.96-.28.72,0,1.04.43,1.04.87,0,.38-.23.7-.67.86h0c.45.1.81.43.81.94,0,.58-.46,1.09-1.33,1.09-.41,0-.77-.13-.95-.25l.13-.38Z" fill="#8ebeff"/><path d="M127.84,233.54c0,1.24-.46,1.92-1.27,1.92-.71,0-1.2-.67-1.21-1.87,0-1.23.53-1.9,1.27-1.9s1.2.68,1.2,1.85ZM125.86,233.6c0,.95.29,1.49.74,1.49.5,0,.74-.59.74-1.52s-.22-1.49-.74-1.49c-.43,0-.74.53-.74,1.52Z" fill="#8ebeff"/><path d="M129.93,232.78c0,.77-.4,1.15-.87,1.15s-.85-.36-.85-1.09c0-.73.39-1.14.89-1.14s.84.39.84,1.08ZM128.6,232.81c-.01.47.17.82.48.82.33,0,.47-.35.47-.83,0-.45-.13-.81-.48-.81-.3,0-.47.36-.47.82ZM129.02,235.47l2.15-3.78h.31l-2.15,3.78h-.31ZM132.31,234.29c0,.77-.4,1.15-.87,1.15s-.85-.36-.85-1.1c0-.73.39-1.14.89-1.14s.84.39.84,1.09ZM130.97,234.33c-.01.47.17.82.48.82.33,0,.47-.35.47-.83,0-.44-.13-.81-.48-.81-.3,0-.47.36-.47.82Z" fill="#8ebeff"/><rect x="118.2" y="275.17" width="1.5" height="26.58" fill="#8ebeff"/><rect x="124.52" y="272.07" width="1.5" height="29.68" fill="#8ebeff"/><rect x="182.34" y="283.88" width="1.49" height="17.87" fill="#8ebeff"/><rect x="188.66" y="262.26" width="1.5" height="39.49" fill="#8ebeff"/><rect x="130.83" y="283.14" width="1.5" height="18.61" fill="#8ebeff"/><rect x="137.15" y="286.72" width="1.5" height="15.03" fill="#8ebeff"/><rect x="143.47" y="284.72" width="1.5" height="17.03" fill="#8ebeff"/><rect x="150.52" y="270.7" width="1.5" height="31.05" fill="#8ebeff"/><rect x="156.84" y="280.82" width="1.5" height="20.93" fill="#8ebeff"/><rect x="163.16" y="273.97" width="1.49" height="27.79" fill="#8ebeff"/><rect x="169.48" y="275.5" width="1.5" height="26.25" fill="#8ebeff"/><rect x="175.8" y="269.75" width="1.5" height="32" fill="#8ebeff"/><rect x="119.69" y="289.67" width="1.5" height="12.08" fill="#589be5"/><rect x="126.01" y="290.53" width="1.5" height="11.22" fill="#589be5"/><rect x="183.84" y="293.5" width="1.5" height="8.25" fill="#589be5"/><rect x="190.16" y="286.14" width="1.5" height="15.62" fill="#589be5"/><rect x="132.33" y="297.66" width="1.5" height="4.09" fill="#589be5"/><rect x="138.65" y="289.51" width="1.5" height="12.24" fill="#589be5"/><rect x="144.97" y="296.91" width="1.5" height="4.85" fill="#589be5"/><rect x="152.02" y="280.82" width="1.5" height="20.93" fill="#589be5"/><rect x="158.34" y="285.71" width="1.5" height="16.04" fill="#589be5"/><rect x="170.98" y="284.02" width="1.49" height="17.73" fill="#589be5"/><rect x="164.66" y="285.19" width="1.5" height="16.56" fill="#589be5"/><rect x="177.29" y="271.68" width="1.5" height="30.07" fill="#589be5"/><rect x="115.27" y="301.64" width="78.55" height=".23" fill="#cbcbcb"/><path d="M118.21,302.49h.17v.88c0,.35-.17.46-.4.46-.06,0-.14-.01-.18-.03l.02-.14s.09.02.14.02c.15,0,.24-.07.24-.33v-.87" fill="#cbcbcb"/><path d="M119.16,303.32c-.19,0-.4.03-.4.21,0,.11.07.16.16.16.12,0,.2-.08.23-.16,0-.02,0-.04,0-.05v-.16ZM119.33,303.58c0,.08,0,.16.01.23h-.15v-.12h-.02c-.05.08-.15.14-.29.14-.19,0-.29-.13-.29-.27,0-.23.2-.35.57-.35v-.02c0-.08-.02-.22-.22-.22-.09,0-.18.03-.25.07l-.04-.11c.08-.05.19-.08.31-.08.29,0,.36.2.36.38v.35" fill="#cbcbcb"/><path d="M119.6,303.12c0-.1,0-.18,0-.25h.15v.15h.01c.05-.09.16-.17.31-.17.13,0,.33.08.33.4v.56h-.17v-.55c0-.15-.06-.28-.22-.28-.11,0-.2.08-.23.18,0,.02-.01.05-.01.08v.57h-.17v-.69" fill="#cbcbcb"/><polyline points="124.13 302.49 124.84 302.49 124.84 302.63 124.3 302.63 124.3 303.07 124.79 303.07 124.79 303.21 124.3 303.21 124.3 303.81 124.13 303.81 124.13 302.49" fill="#cbcbcb"/><path d="M125.61,303.24c0-.11-.05-.28-.24-.28-.18,0-.25.16-.26.28h.5ZM125.11,303.36c0,.23.15.33.32.33.12,0,.2-.02.26-.05l.03.12c-.06.03-.17.06-.31.06-.29,0-.47-.19-.47-.48s.17-.51.44-.51c.31,0,.39.27.39.44,0,.03,0,.06,0,.08h-.66" fill="#cbcbcb"/><path d="M126.16,303.43s0,.04,0,.06c.03.12.13.2.26.2.18,0,.29-.15.29-.36,0-.19-.1-.35-.28-.35-.11,0-.22.08-.26.21,0,.02,0,.05,0,.07v.17ZM125.99,302.42h.17v.59h0c.06-.11.17-.17.32-.17.24,0,.4.19.4.48,0,.34-.21.5-.43.5-.14,0-.25-.05-.32-.17h0v.15h-.16c0-.07,0-.16,0-.24v-1.14" fill="#cbcbcb"/><path d="M131.61,303.23c0-.18-.02-.4-.02-.57h0c-.05.15-.1.32-.16.5l-.23.64h-.13l-.21-.63c-.06-.19-.11-.35-.15-.51h0c0,.16-.01.38-.03.58l-.04.56h-.16l.09-1.32h.22l.23.64c.05.16.1.3.13.44h0c.03-.13.08-.28.14-.44l.23-.64h.22l.08,1.32h-.17l-.03-.58" fill="#cbcbcb"/><path d="M132.57,303.32c-.19,0-.4.03-.4.21,0,.11.07.16.16.16.13,0,.21-.08.23-.16,0-.02.01-.04.01-.05v-.16ZM132.74,303.58c0,.08,0,.16.02.23h-.16v-.12h-.02c-.05.08-.15.14-.29.14-.19,0-.29-.13-.29-.27,0-.23.2-.35.57-.35v-.02c0-.08-.02-.22-.21-.22-.09,0-.18.03-.25.07l-.04-.11c.08-.05.19-.08.31-.08.29,0,.36.2.36.38v.35" fill="#cbcbcb"/><path d="M133.01,303.15c0-.11,0-.21,0-.29h.15v.18h.02c.04-.12.15-.2.26-.2.02,0,.03,0,.05,0v.16s-.03,0-.06,0c-.12,0-.21.09-.23.22,0,.02,0,.05,0,.08v.5h-.17v-.65" fill="#cbcbcb"/><path d="M137.96,303.26l-.13-.38c-.03-.08-.05-.16-.07-.24h0c-.02.08-.04.16-.07.24l-.13.38h.4ZM137.52,303.39l-.14.41h-.18l.45-1.32h.2l.45,1.32h-.18l-.14-.41h-.47" fill="#cbcbcb"/><path d="M138.67,303.42s0,.05,0,.07c.03.12.14.2.26.2.18,0,.29-.15.29-.37,0-.19-.1-.35-.28-.35-.12,0-.23.08-.26.21,0,.02-.01.05-.01.07v.16ZM138.5,303.17c0-.12,0-.22,0-.31h.15v.16h.02c.07-.12.18-.18.33-.18.23,0,.4.19.4.48,0,.34-.21.51-.43.51-.12,0-.23-.05-.29-.15h0v.51h-.17v-1.02" fill="#cbcbcb"/><path d="M139.61,303.15c0-.11,0-.21,0-.29h.15v.18h.01c.04-.12.15-.2.26-.2.02,0,.03,0,.05,0v.16s-.04,0-.06,0c-.12,0-.21.09-.23.22,0,.02,0,.05,0,.08v.5h-.17v-.65" fill="#cbcbcb"/><path d="M144.12,303.23c0-.18-.02-.4-.02-.57h0c-.05.15-.1.32-.17.5l-.23.64h-.13l-.21-.63c-.06-.19-.11-.35-.15-.51h0c0,.16-.01.38-.02.58l-.04.56h-.16l.09-1.32h.22l.23.64c.05.16.1.3.13.44h0c.03-.13.08-.28.14-.44l.24-.64h.22l.08,1.32h-.17l-.03-.58" fill="#cbcbcb"/><path d="M145.08,303.32c-.19,0-.4.03-.4.21,0,.11.07.16.16.16.12,0,.2-.08.23-.16,0-.02,0-.04,0-.05v-.16ZM145.25,303.58c0,.08,0,.16.01.23h-.15v-.12h-.02c-.05.08-.15.14-.29.14-.19,0-.29-.13-.29-.27,0-.23.2-.35.57-.35v-.02c0-.08-.02-.22-.21-.22-.09,0-.18.03-.25.07l-.04-.11c.08-.05.19-.08.31-.08.29,0,.36.2.36.38v.35" fill="#cbcbcb"/><path d="M145.57,302.86l.21.56c.02.06.05.14.06.19h0c.02-.06.04-.13.06-.2l.19-.55h.18l-.26.67c-.12.32-.2.49-.32.59-.08.07-.17.1-.21.11l-.04-.14s.1-.04.15-.08c.05-.04.1-.1.14-.19,0-.02.01-.03.01-.04,0-.01,0-.03-.01-.05l-.35-.87h.19" fill="#cbcbcb"/><path d="M150.44,302.49h.17v.88c0,.35-.17.46-.4.46-.07,0-.14-.01-.18-.03l.02-.14s.09.02.14.02c.15,0,.24-.07.24-.33v-.87" fill="#cbcbcb"/><path d="M151.68,303.54c0,.1,0,.19,0,.26h-.15v-.15h-.01c-.04.07-.15.17-.31.17-.15,0-.33-.08-.33-.41v-.55h.17v.52c0,.18.06.3.21.3.11,0,.2-.08.23-.16,0-.02.02-.05.02-.09v-.57h.17v.68" fill="#cbcbcb"/><path d="M151.97,303.12c0-.1,0-.18,0-.25h.15v.15h.02c.05-.09.16-.17.31-.17.13,0,.33.08.33.4v.56h-.17v-.55c0-.15-.06-.28-.22-.28-.11,0-.2.08-.23.18,0,.02-.01.05-.01.08v.57h-.17v-.69" fill="#cbcbcb"/><path d="M157.09,302.49h.17v.88c0,.35-.17.46-.4.46-.06,0-.14-.01-.18-.03l.02-.14s.09.02.14.02c.15,0,.24-.07.24-.33v-.87" fill="#cbcbcb"/><path d="M158.33,303.54c0,.1,0,.19.01.26h-.15v-.15h-.01c-.04.07-.14.17-.31.17-.15,0-.33-.08-.33-.41v-.55h.17v.52c0,.18.06.3.21.3.12,0,.2-.08.23-.16,0-.02.02-.05.02-.09v-.57h.17v.68" fill="#cbcbcb"/><rect x="158.62" y="302.42" width=".17" height="1.39" fill="#cbcbcb"/><path d="M163.71,303.26l-.13-.38c-.03-.08-.05-.16-.07-.24h0c-.02.08-.04.16-.07.24l-.13.38h.4ZM163.27,303.39l-.13.41h-.18l.45-1.32h.2l.45,1.32h-.18l-.14-.41h-.47" fill="#cbcbcb"/><path d="M165.02,303.54c0,.1,0,.19,0,.26h-.15v-.15h-.01c-.04.07-.14.17-.31.17-.15,0-.32-.08-.32-.41v-.55h.17v.52c0,.18.06.3.21.3.11,0,.19-.08.23-.16,0-.02.01-.05.01-.09v-.57h.17v.68" fill="#cbcbcb"/><path d="M165.94,303.23s0-.06-.01-.08c-.03-.1-.11-.18-.24-.18-.16,0-.28.14-.28.36,0,.19.1.34.28.34.11,0,.2-.07.24-.18.01-.03.02-.06.02-.09v-.17ZM166.11,303.67c0,.22-.04.35-.13.43-.1.08-.23.11-.35.11-.11,0-.24-.03-.31-.08l.04-.13c.06.04.16.08.28.08.18,0,.31-.09.31-.33v-.1h0c-.05.09-.15.16-.3.16-.23,0-.4-.2-.4-.46,0-.32.21-.5.43-.5.17,0,.25.08.3.16h0v-.14h.16c0,.07,0,.14,0,.25v.55" fill="#cbcbcb"/><path d="M169.39,303.6c.08.05.19.09.3.09.17,0,.28-.09.28-.22,0-.12-.07-.19-.25-.26-.21-.08-.35-.19-.35-.38,0-.2.17-.35.43-.35.13,0,.23.03.29.07l-.05.14s-.13-.06-.25-.06c-.18,0-.25.11-.25.2,0,.12.08.18.26.25.22.09.33.19.33.39,0,.2-.15.38-.46.38-.13,0-.27-.04-.34-.08l.05-.14" fill="#cbcbcb"/><path d="M170.98,303.24c0-.11-.05-.28-.24-.28-.17,0-.25.16-.26.28h.5ZM170.48,303.36c0,.23.15.33.33.33.12,0,.2-.02.26-.05l.03.12c-.06.03-.16.06-.32.06-.29,0-.47-.19-.47-.48s.17-.51.45-.51c.31,0,.39.27.39.44,0,.03,0,.06,0,.08h-.66" fill="#cbcbcb"/><path d="M171.53,303.42s0,.05,0,.07c.03.12.14.2.26.2.18,0,.29-.15.29-.37,0-.19-.1-.35-.28-.35-.12,0-.23.08-.26.21,0,.02,0,.05,0,.07v.16ZM171.36,303.17c0-.12,0-.22,0-.31h.15v.16h.02c.07-.12.18-.18.33-.18.23,0,.4.19.4.48,0,.34-.21.51-.43.51-.13,0-.23-.05-.29-.15h0v.51h-.17v-1.02" fill="#cbcbcb"/><path d="M176.72,303.81v-1.32h.19l.42.67c.1.15.17.29.24.43h0c-.02-.18-.02-.34-.02-.54v-.55h.16v1.32h-.17l-.42-.67c-.09-.15-.18-.29-.25-.44h0c.01.17.01.33.01.54v.56h-.16" fill="#cbcbcb"/><path d="M178.11,303.33c0,.21.12.36.28.36s.29-.15.29-.37c0-.16-.08-.36-.28-.36s-.29.19-.29.36h0ZM178.86,303.32c0,.35-.24.5-.47.5-.25,0-.45-.19-.45-.48,0-.32.21-.5.47-.5s.46.2.46.48" fill="#cbcbcb"/><path d="M179.13,302.86l.19.53c.03.09.06.17.08.24h0c.02-.08.05-.15.08-.24l.18-.53h.18l-.37.94h-.17l-.36-.94h.18" fill="#cbcbcb"/><path d="M182.98,303.15c0,.28.15.54.42.54s.42-.25.42-.55c0-.26-.14-.54-.42-.54s-.42.26-.42.55h0ZM184.01,303.13c0,.45-.28.69-.61.69s-.59-.27-.59-.67.26-.69.61-.69.59.27.59.67" fill="#cbcbcb"/><path d="M184.9,303.77s-.15.05-.27.05c-.28,0-.47-.19-.47-.48s.2-.5.51-.5c.1,0,.19.03.24.05l-.04.13s-.11-.04-.2-.04c-.22,0-.33.16-.33.36,0,.22.14.35.33.35.1,0,.16-.03.21-.04l.03.13" fill="#cbcbcb"/><path d="M185.33,302.63v.23h.25v.13h-.25v.51c0,.12.03.18.13.18.05,0,.08,0,.1-.01v.13s-.08.02-.14.02c-.08,0-.15-.03-.19-.07-.05-.05-.06-.13-.06-.25v-.52h-.15v-.13h.15v-.18l.17-.05" fill="#cbcbcb"/><path d="M188.75,303.67s.1,0,.17,0c.36,0,.56-.2.56-.56,0-.31-.17-.51-.53-.51-.09,0-.15,0-.2.02v1.04ZM188.58,302.51c.11-.02.23-.03.36-.03.25,0,.42.06.53.16.12.11.19.26.19.47s-.07.39-.19.51c-.12.12-.33.19-.58.19-.12,0-.22,0-.31-.01v-1.29" fill="#cbcbcb"/><path d="M190.48,303.24c0-.11-.05-.28-.24-.28-.18,0-.25.16-.26.28h.5ZM189.97,303.36c0,.23.15.33.32.33.12,0,.2-.02.26-.05l.03.12c-.06.03-.17.06-.32.06-.29,0-.46-.19-.46-.48s.17-.51.44-.51c.31,0,.39.27.39.44,0,.03,0,.06,0,.08h-.66" fill="#cbcbcb"/><path d="M191.53,303.77s-.14.05-.27.05c-.28,0-.47-.19-.47-.48s.2-.5.51-.5c.1,0,.19.03.24.05l-.04.13s-.11-.04-.2-.04c-.22,0-.34.16-.34.36,0,.22.14.35.33.35.1,0,.16-.03.21-.04l.03.13" fill="#cbcbcb"/><polygon points="8.37 148.03 6.5 145.01 6.6 143.56 6.47 141.58 4.38 137.93 3.41 138.16 4.29 140.5 3.91 140.57 2.1 136.25 0 138.85 .65 143.04 1.57 144.65 3.66 146.97 5.14 149.92 8.37 148.03" fill="#ffbcc1"/><polygon points="79.35 139.18 80.71 135.9 80.37 134.49 80.18 132.51 81.65 128.57 82.65 128.64 82.16 131.1 82.54 131.1 83.63 126.55 86.12 128.76 86.16 133.01 85.51 134.75 83.83 137.37 82.85 140.52 79.35 139.18" fill="#ffbcc1"/><path d="M74.7,157.38l-.32-.14c-2-.77-3.69.11-5.25,2.5-3.59,5.54-7.77,9.98-11.12,16.48-1.74,3.38-.14,5.05,1.44,6.37l.31.24c2.31,1.46,5.25,1.19,6.29-.9,3.51-7.01,10.31-19.41,10.31-19.41.9-2.15.32-4.38-1.68-5.15Z" fill="#589be5"/><path d="M83.82,139.04l-4.66-1.35s-7.37,15.3-9.02,20.97c-.84,2.88-.89,4.67,1.05,5.56h0c1.95.89,4.47.63,5.61-2.77,1.73-5.18,7.02-22.41,7.02-22.41Z" fill="#589be5"/><path d="M17.2,165.74l.28-.21c1.78-1.19,3.63-.7,5.67,1.3,4.71,4.62,9.47,7.07,14.15,12.69,2.44,2.92,1.23,4.9-.03,6.53l-.25.3c-1.93,1.92-3.88,3.18-5.36,1.37-4.95-6.08-14.98-16.6-14.98-16.6-1.34-1.9-1.27-4.2.52-5.39Z" fill="#589be5"/><path d="M3.8,148.51l4.25-2.33s10.8,14.32,13.65,19.49c1.45,2.63,1.89,4.36.18,5.66h0c-1.71,1.29-4.23,1.58-6.08-1.49-2.82-4.68-12.01-21.33-12.01-21.33Z" fill="#589be5"/><rect x="43.73" y="171.51" width="5.93" height="9.49" transform="translate(-21.44 7.13) rotate(-7.1)" fill="#ffbcc1"/><rect x="39.27" y="177.73" width="17.1" height="9.73" transform="translate(117.86 357.87) rotate(172.9)" fill="#ffbcc1"/><path d="M52.48,163.69c1.71,3.87.42,8.18-2.87,9.64-3.3,1.46-7.36-.49-9.07-4.36-.24-.55-3.65-7.45-3.78-8.01l1.62-3.2,4.32-3.51,4.43-.62c.09.13,2.09.81,3.08,3.3.92,2.31,2.09,6.37,2.26,6.76Z" fill="#ffbcc1"/><path d="M77.77,335.7h-.17l-.04.87h-4.15l.11-1.15h.14s0-.01,0-.01v-4.22h4.32l.09.56,1.99,1.46,6.3,1.8s.5.22.49.49l-.02.5v.3s-.09.13-.6.28h-7.22l-.44-.58-.43-.27-.37-.02Z" fill="#333"/><path d="M31.23,335.7h-.17l-.04.87h-4.15l.11-1.15h.14s0-.01,0-.01l.95-4.22h4.31l.09.56,1.05,1.46,6.3,1.8s.5.22.49.49l-.02.5v.3s-.09.13-.6.28h-7.22l-.44-.58-.43-.27-.37-.02Z" fill="#333"/><polygon points="39.62 229.57 69.28 229.57 69.28 235.99 69.43 242.53 75.93 287.41 79.17 331.9 72.04 331.9 65.56 289.71 55.44 249.5 55.22 247.88 45.85 288.86 33.48 332.14 26.86 331.35 35.23 287.95 39.08 246.35 37.26 240.28 39.62 229.57" fill="#3f4c53"/><path d="M51.75,176.2l-.74.09-1.56,2.74c-.95,1.68-3.26,1.95-4.57.54l-2.1-2.25s-6.04,1.12-7.89,1.96c-3.48,1.57-3.55,5.91-3.23,8.45l3.07,11.61,2.09,14.13,1.22,16.43.92,3.19,30.25-1.37,1.14-2.93-2.66-17.46-.75-6.04-1.08-23.31c-.44-3.54-2.56-7.03-6.99-7.19l-7.12,1.4Z" fill="#589be5"/><path d="M52.42,163.24c-.42.51-3.14,2.59-3.76,2.81-1.78.63-3.14.96-4.04,1.13-.75.14-1.5-.19-1.91-.84l-1.47-2.32-.61.37.88,4.06.42,2.71s.85.98,1.89,1.66c1.25.82,2.56,1.23,3.87,1.04.7-.11,2.1-.53,2.68-.86.87-.49,1.59-1.38,1.99-1.93,2.15-2.95.91-5.99.06-7.83Z" fill="#3f4c53"/><path d="M40.1,169.03l.59.25s-.19-.64-.38-1.57c-.11-.57-2.28-3.93-1.01-4.41.52-.2,1.36,1.26,1.36,1.26l.82-.15s-1.14-1.8-1.3-2.73c-.25-1.49-.06-2.25.86-1.9,1.44.55,3.56-1,5.08-2.32,1.51-1.32,2.82-1.16,3.24-3.74.41-2.59-.83-3.78-1.82-4.16-.5-.19-1.94-.33-4.59,1.59-2.65,1.91-3.12.44-4.68,1.76-2.46,2.08-3.84,6.71-2.76,9.82,1.07,3.11,4.61,6.31,4.61,6.31Z" fill="#3f4c53"/><path d="M52,167.22c.22.42-.38,1.16-1.33,1.65-.95.49-1.9.55-2.11.14-.22-.42.38-1.16,1.33-1.65.95-.49,1.9-.55,2.11-.14Z" fill="#ffbcc1"/><rect x="526.15" y="170.65" width="9.49" height="5.93" transform="translate(351.62 702.62) rotate(-89.39)" fill="#ffbcc1"/><path d="M523.72,161.78c-1.26,4.03.5,8.18,3.95,9.25,3.44,1.08,7.25-1.32,8.52-5.36.18-.57,2.78-7.82,2.85-8.38l-13.19-4.13c-.27.5-1.93,8.04-2.11,8.61Z" fill="#ffbcc1"/><path d="M539.76,157.87c.94-5.48-3.69-7.25-3.69-7.25l-11.48-3.24c-1.87,3.78,1.1,6.5,1.1,6.5l9.75,2.75-.28,4.49.52.17,1.51-2.04.42.05-1.6,6.89,1.14-1.53,1.68-3.58.93-3.21Z" fill="#3f4c53"/><path d="M523.67,161.35c.48.46,3.57,2.35,4.21,2.5,1.9.43,3.32.6,4.23.67.72.05,1.39-.32,1.73-.95l1.33-2.45.52.17-.42,4.13-.11,2.67s-.74,1.15-1.7,1.94c-1.15.95-2.41,1.52-3.73,1.47-.7-.03-2.14-.29-2.76-.55-.92-.39-1.74-1.19-2.19-1.69-2.47-2.69-1.73-5.98-1.1-7.91Z" fill="#3f4c53"/><path d="M597.67,309.26l.06-.16.83.26,1.44-3.9-1.12-.29-.05.13h0s-3.96-1.46-3.96-1.46l-1.5,4.04.49.28.68,2.37-.49,6.53s.03.54.29.63l.47.16.29.09s.15-.03.47-.46l2.51-6.78-.39-.61-.1-.49.11-.35Z" fill="#18375f"/><path d="M520.92,337.39l.17-.02.14.86,4.13-.47-.24-1.13h-.14s0,0,0,0l-.49-4.19-4.28.49-.03.56-1.81,1.68-6.05,2.5s-.47.27-.43.54l.07.49.04.3s.09.12.62.21l7.18-.82.37-.63.39-.31.36-.06Z" fill="#333"/><polygon points="548.45 230.12 518.98 233.47 519.46 237.69 520.29 244.98 515.3 292.32 518.61 333.83 525.69 333.02 526.66 292.57 534.91 252.01 535.17 251.18 550.82 292.6 593.12 309.24 596.12 303.33 559.68 285.4 549.88 244.97 550.41 237.04 548.45 230.12" fill="#3f4c53"/><path d="M525.82,174.47l.75-.03,1.98,2.45c1.21,1.5,3.53,1.39,4.6-.22l1.7-2.56s4.94-.12,6.9.41c3.69.98,4.46,5.26,4.57,7.81l1.22,12.05.06,13.78,2.57,19.15-1.44,3.39-29.62,3.89-1.6-2.7-.52-20.3-.24-6.08.35-23.07c-.14-3.56,1.3-7.98,5.72-8.23.76-.04,3.02.26,3.02.26Z" fill="#589be5"/><polygon points="472.21 198.19 477.9 197.47 479.12 196.91 479.37 196.66 478.92 196.25 478.01 195.74 477.77 195.16 479.68 195.45 480.77 195.97 481.96 196.1 484.76 196.21 484.5 200.2 481 199.75 477.7 200.21 475.72 200.06 472.63 198.95 472.25 198.47 472.21 198.19" fill="#ffbcc1"/><path d="M500.35,201.41l-.22-.27c-1.29-1.71-.91-3.58.97-5.73,4.34-4.97,12.59-14.46,17.92-19.46,2.78-2.6,4.73-1.67,6.44-.51l.32.23c2.03,1.82,1.08,5.68-2.24,8.83-5.68,5.4-17.77,17.1-17.77,17.1-1.82,1.45-4.12,1.51-5.41-.2Z" fill="#589be5"/><path d="M482.33,200.56l.58-4.81s13.29-.99,19.15-.3c2.98.35,4.65,1,4.71,3.14h0c.06,2.14-1.17,4.36-4.74,4.08-5.44-.43-19.69-2.1-19.69-2.1Z" fill="#589be5"/><path d="M530.88,231.5l-83.15-53.52,7.22-11.32,83.16,53.52c.19.12.24.37.12.56l-6.78,10.64c-.12.19-.37.25-.56.12Z" fill="#0072bc"/><path d="M526.4,232.14l-57.48-37.15c-1.79-1.14-2.32-3.52-1.17-5.31l6.25-9.8c1.14-1.79,3.52-2.32,5.31-1.17l57.48,37.15c1.79,1.14,2.32,3.52,1.17,5.31l-6.25,9.8c-1.14,1.79-3.52,2.32-5.31,1.17Z" fill="#0072bc"/><path d="M535.57,220.92c1.09-1.7.59-3.97-1.12-5.05l-54.73-35.38c-1.7-1.09-3.97-.59-5.05,1.12l-.55.86,60.9,39.32.55-.86Z" fill="#589be5"/><path d="M405.63,99.92c-1.27.17-2.53.4-3.8.68-25.17,5.57-41.11,30.58-35.54,55.74,5.57,25.17,30.59,41.1,55.74,35.54,25.17-5.57,41.11-30.57,35.54-55.74-5.29-23.9-28.11-39.48-51.94-36.22Z" fill="none"/><path d="M404.22,89.6c-1.55.21-3.1.49-4.64.83-30.78,6.81-50.27,37.39-43.46,68.16,6.81,30.78,37.41,50.26,68.17,43.46,30.77-6.81,50.27-37.39,43.46-68.16-6.47-29.23-34.37-48.28-63.52-44.29ZM422.03,191.88c-25.15,5.56-50.17-10.37-55.74-35.54-5.57-25.16,10.37-50.17,35.54-55.74,1.27-.28,2.53-.51,3.8-.68,23.84-3.26,46.65,12.32,51.94,36.22,5.57,25.17-10.37,50.17-35.54,55.74Z" fill="#044f85"/><path d="M405.63,99.92c-1.27.17-2.53.4-3.8.68-25.17,5.57-41.11,30.58-35.54,55.74,5.57,25.17,30.59,41.1,55.74,35.54,25.17-5.57,41.11-30.57,35.54-55.74-5.29-23.9-28.11-39.48-51.94-36.22Z" fill="#fff" opacity=".3"/><path d="M405.2,97.03c-27.18,3.72-46.19,28.77-42.47,55.94,3.72,27.18,28.77,46.19,55.94,42.47,27.18-3.72,46.19-28.77,42.47-55.94-3.72-27.18-28.77-46.19-55.94-42.47ZM422.03,191.88c-25.15,5.56-50.17-10.37-55.74-35.54-5.57-25.16,10.37-50.17,35.54-55.74,1.27-.28,2.53-.51,3.8-.68,23.84-3.26,46.65,12.32,51.94,36.22,5.57,25.17-10.37,50.17-35.54,55.74Z" fill="#044f85"/><path d="M405.2,97.03c-27.18,3.72-46.19,28.77-42.47,55.94,3.72,27.18,28.77,46.19,55.94,42.47,27.18-3.72,46.19-28.77,42.47-55.94-3.72-27.18-28.77-46.19-55.94-42.47ZM422.03,191.88c-25.15,5.56-50.17-10.37-55.74-35.54-5.57-25.16,10.37-50.17,35.54-55.74,1.27-.28,2.53-.51,3.8-.68,23.84-3.26,46.65,12.32,51.94,36.22,5.57,25.17-10.37,50.17-35.54,55.74Z" fill="#0072bc"/><path d="M458.13,139.92c3.49,25.51-14.36,49.02-39.87,52.52-25.51,3.49-49.02-14.36-52.51-39.87-3.49-25.51,14.36-49.02,39.87-52.52,25.51-3.49,49.02,14.36,52.52,39.87Z" fill="#0e97d5" opacity=".4"/><path d="M453.21,140.59c3.12,22.8-12.83,43.81-35.63,46.93-22.8,3.12-43.81-12.83-46.93-35.63-3.12-22.8,12.83-43.81,35.63-46.93,22.8-3.12,43.81,12.83,46.93,35.63Z" fill="#fff" opacity=".3"/><path d="M417.65,125.81c14.84,1.86,27.62,7.81,35.85,15.73-.04-.32-.06-.64-.11-.97-3.13-22.9-24.24-38.92-47.14-35.79-18.3,2.5-32.2,16.49-35.45,33.69,9.41-9.79,27.26-15.12,46.84-12.66Z" fill="#fff" opacity=".6"/><polygon points="525.97 215.51 523.05 217.93 521.5 218.03 519.42 218.45 515.7 219.97 516.68 220.64 518.87 220.37 519 220.75 517.01 222.31 514.41 223.85 517.46 225.7 521.8 224.4 523.38 223.2 525.53 220.66 528.44 218.66 525.97 215.51" fill="#ffbcc1"/><path d="M540.42,209.4l-.34-.05c-2.1-.41-3.07-2.06-3.11-4.91-.09-6.6-.48-17.29.15-24.57.33-3.79,2.41-4.4,4.45-4.67l.39-.04c2.73,0,4.6,3.51,4.23,8.07-.62,7.82-1.61,22.71-1.61,22.71-.39,2.3-2.06,3.88-4.16,3.46Z" fill="#8ebeff"/><path d="M526.44,220.8l-2.78-3.97s9.23-9.61,14.05-13.01c2.45-1.73,4.13-2.36,5.6-.8h0c1.47,1.55,2.04,4.02-.81,6.2-4.34,3.32-16.06,11.58-16.06,11.58Z" fill="#8ebeff"/><polygon points="475.34 198.71 474.33 197.94 474.61 196.89 470.72 195.52 470.17 195.24 469.01 195.07 469.16 197.3 469.54 198.02 472.39 199.64 474.15 200.1 476.89 200.23 475.34 198.71" fill="#ffbcc1"/><path d="M424.31,202.05c-23.3,5.15-46.49-4.78-59.33-23.27,9.92,26.05,37.77,41.63,65.76,35.44,8.35-1.85,15.85-5.45,22.23-10.33v-17.89c-7.52,7.79-17.32,13.54-28.66,16.05Z" opacity=".2"/></g></svg>