<?xml version="1.0" encoding="UTF-8"?>
<svg id="Layer_1" data-name="Layer 1" xmlns="http://www.w3.org/2000/svg" version="1.1" viewBox="0 0 510.4 56.8">
  <defs>
    <style>
      .cls-1 {
        fill: #0072bc;
        stroke-width: 0px;
      }

      .cls-2 {
        fill: none;
        stroke: #0072bc;
        stroke-miterlimit: 10;
      }
    </style>
  </defs>
  <g>
    <path class="cls-1" d="M34.4,38.2c.6,0,.6-.4.6-1v-3.4c0-.7,0-.9.3-.9,1.5,0,1.8,0,1.8-1.4v-12.8c0-3.4-2.5-2.9-3.1-4.2-1-1.7,1.9-1.7.8-5.4-.3-.9-1.2-1.5-2.2-1.4-1,0-1.9.5-2.2,1.4-1,3.8,1.8,3.8.8,5.4-.7,1.3-3.1.7-3.1,4.2v12.8c0,1.3.4,1.4,1.8,1.4s.3.2.3.9v3.4c0,.7-.1,1,.6,1h3.6"/>
    <path class="cls-1" d="M23.3,10.5c-1.3,1.4-3.2,4.5-2,7.1,2.6,1,2.4-8.3,5.7-8.2,1.7,1.5-.5,5.9-1.1,7.8-.8,2.4-1.5,7.4-3,9.9-1.3,2.1-.3,8.4-.7,10.6-1,1-4.1.3-5.3,0-.1-2.9-.3-5.7-.7-8.5,0-.8-.9-13.2-.2-14.7,1.5-3.1,9.2-9.1,10.2-10.2,1-1.1,4.2-4.4,5.5-4.4.9.6.4,2.1.2,2.6-1.3,3.1-6.9,6.3-8.6,7.9"/>
    <path class="cls-1" d="M42.1,10.5c1.3,1.4,3.2,4.5,2,7.1-2.7,1-2.5-8.3-5.7-8.2-1.6,1.5.5,5.9,1.1,7.8.8,2.4,1.5,7.4,3,9.9,1.3,2.1.3,8.4.7,10.6,1.1,1,4.1.3,5.3,0,0-2.9.3-5.7.7-8.5,0-.8.9-13.2.2-14.7-1.5-3.1-9.2-9.1-10.2-10.2C38.3,3.2,35,0,33.8,0c-.9.6-.3,2.1-.2,2.6,1.3,3.1,6.8,6.3,8.5,7.9"/>
    <path class="cls-1" d="M12,6.4c-.7.6-2.2,1.1-3.3,2.5-.4-.7.6-2.6,1.9-3.8,1-.8,2.1-1.6,3.3-2.2.4,1-1.1,2.4-1.9,3.5"/>
    <path class="cls-1" d="M9.8,11.5c-1.1,1-2.4,1.6-4.1,3.5-.5-1.9-.6-4-.2-5.9.6-1.9,1.6-4,3.1-4.6-.4,1.4-.8,2.9-.9,4.5-.7,2.7-1,2.8-.9,3.1.2,0,1-1.5,2.2-2.5,1.3-1.3,2.9-1.6,4-2.4-.9,1.6-1.9,3-3.2,4.3"/>
    <path class="cls-1" d="M4.1,22.7c-1.2-2.2-1.9-4.7-1.9-7.3,0-1.7.9-5.5,2.1-6.1-.3,3.5.6,3.9.2,6.7,0,.1-.4,3.1-.4,3.3.5-.1,0-2.7,5.6-6.7-1.3,2.1-.6,2.7-2.8,5.5-1.3,1.3-2.3,2.9-2.8,4.6"/>
    <path class="cls-1" d="M6.4,25.3c-.7,1-1.1,2.1-1.3,3.3C2.3,27-.9,20.6.2,17.3c.7,2.4,1.8,3,2.5,5,1.3,3,1,4,1.9,4.7,0-1.7.2-3.3.9-4.8.6-1.1,1.3-2.2,2-3.2.6,2.3,0,4-1.1,6.3"/>
    <path class="cls-1" d="M8.9,30.8c-.1,1.8-.3,3.6-.6,5.4-4.8-1.6-7.4-7.1-7.4-9.8,1.5,3.3,3.6,3.3,6.5,8,.2-1.8-.5-.4-.6-3.9,0-3.5.8-3.6.9-5.8.9,1,1.2,5,1.2,6.1"/>
    <path class="cls-1" d="M12.8,37.9c.4,1.9.5,4,.8,5.5-2.8-1-3.4-.2-6.8-2.3-1.5-.8-4.2-4.3-4.1-6.7,3.2,3.6,3.9,3.2,5.4,4.6,1.5,1.1,2.6,2.9,3.8,2.7.1-.9-2.4-3.1-2.1-9.2,1.5,1.7,2.5,3.5,3,5.4"/>
    <path class="cls-1" d="M18.4,42.5c.8,1.3.6,1.8,2.8,4.3-1.9.6-3.8,1-5.7,1.1-1.4,0-6.3-1.3-7.9-4.6,2.8,1.5,2.8,1.1,6.6,2,2.7.6,4.6,1.5,5.3,1.4-.1-.3-2.2-1.3-3.6-3-1.5-1.8-1-4.1-2.4-5.6.8-.5,4.1,3.5,4.9,4.4"/>
    <path class="cls-1" d="M53.2,6.4c.6.6,2.3,1.1,3.2,2.5.4-.7-.6-2.6-1.9-3.8-1-.9-2.1-1.6-3.3-2.2-.4,1,1,2.4,2,3.5"/>
    <path class="cls-1" d="M55.4,11.5c1.1,1,2.4,1.6,4.1,3.5.5-1.9.6-4,.2-5.9-.5-1.9-1.6-4-3.1-4.6.5,1.4.8,3,.9,4.5.7,2.7,1,2.8.9,3.1-.2,0-1-1.5-2.2-2.5-1.3-1.3-2.8-1.6-4-2.4.9,1.6,1.9,3,3.2,4.3"/>
    <path class="cls-1" d="M61,22.7c1.3-2.2,1.9-4.7,1.9-7.3,0-1.7-.9-5.5-2.1-6.1.3,3.5-.6,3.9-.2,6.7,0,.1.3,3.1.3,3.3-.4-.1,0-2.7-5.5-6.7,1.1,2.1.6,2.7,2.8,5.5,1.3,1.3,2.3,2.9,2.8,4.6"/>
    <path class="cls-1" d="M58.8,25.3c.6,1,1,2.2,1.3,3.3,2.8-1.7,6-8.1,4.8-11.3-.7,2.4-1.8,3-2.4,5-1.4,3-1.1,4-1.9,4.7,0-1.6-.3-3.3-.9-4.8-.6-1.1-1.2-2.2-2-3.2-.6,2.2,0,4.5,1.1,6.3"/>
    <path class="cls-1" d="M56.3,30.8c0,1.8.3,3.6.7,5.4,4.8-1.6,7.4-7.1,7.4-9.8-1.6,3.3-3.6,3.3-6.5,8-.2-1.8.5-.4.5-3.9s-.8-3.6-.9-5.8c-.9,1-1.2,5-1.2,6.1"/>
    <path class="cls-1" d="M52.2,37.9c-.4,1.9-.5,4-.7,5.5,2.7-1,3.4-.2,6.7-2.3,1.5-.8,4.3-4.3,4.1-6.7-3.2,3.6-3.9,3.2-5.4,4.6-1.5,1.1-2.7,2.9-3.8,2.7,0-.9,2.4-3.1,2.1-9.2-1.3,1.7-2.3,3.5-3,5.4"/>
    <path class="cls-1" d="M46.8,42.5c-.7,1.6-1.7,3-2.8,4.3,1.9.6,3.8,1,5.7,1.1,1.4,0,6.3-1.3,7.8-4.6-2.8,1.5-2.8,1.1-6.6,2-2.7.6-4.6,1.5-5.3,1.4.2-.3,2.3-1.3,3.6-3,1.4-1.8,1-4.1,2.4-5.6-.8-.5-4,3.5-4.8,4.4"/>
    <path class="cls-1" d="M25.7,54l-.8-.4c3.6-3.9,8.7-6.1,14.1-5.8,8.9.5,8.2,2.6,13,2.2.5,0-.4.6-.4.6-3.4,1.1-7.1,1-10.4-.2-5.8-1.9-9.6-3.1-15.5,3.6"/>
    <path class="cls-1" d="M39.6,54l.8-.4c-3.5-3.9-8.7-6.1-14-5.8-8.9.5-8.2,2.6-13,2.2-.5,0,.4.6.4.6,3.4,1.1,7.1,1,10.4-.2,5.8-1.9,9.5-3.1,15.4,3.6"/>
    <path class="cls-1" d="M102.5,26.6c0,8.4-4.6,12.6-14,12.6s-14-4.1-14-12.6V7.8h9.4v16.7c0,3.1,0,7.1,4.6,7.1s4.5-4,4.5-7.1V7.8h9.5v18.8"/>
    <polygon class="cls-1" points="108.1 7.7 117.8 7.7 126.8 24.1 126.8 24.1 126.8 7.7 135.7 7.7 135.7 38.4 126.5 38.4 117.2 21.7 117.1 21.7 117.1 38.4 108.1 38.4 108.1 7.7"/>
    <polygon class="cls-1" points="141.6 7.7 150.9 7.7 150.9 18.3 159.8 18.3 159.8 7.7 169.2 7.7 169.2 38.4 159.8 38.4 159.8 26.3 150.9 26.3 150.9 38.4 141.6 38.4 141.6 7.7"/>
    <path class="cls-1" d="M193.3,19.2c-.2-2.5-2.3-4.5-4.9-4.5-4.4,0-5.8,4.3-5.8,8.4s1.5,8.4,5.8,8.4,4.4-2.2,5-5.1h9.3c0,6.1-5,12.7-14,12.7s-15.5-7-15.5-16,6-16,15.5-16,13,4.5,13.9,12.1h-9.3"/>
    <path class="cls-1" d="M216.1,15h4.4c3.6,0,4.7,1.1,4.7,3,0,2.7-2.4,3-4.2,3h-4.9v-6ZM206.6,38.4h9.5v-10.7h5c3.8,0,4,3,4.3,5.9.1,1.6.3,3.2.7,4.7h9.4c-.8-1.5-.9-5.1-1-6.6-.3-3.9-2-6.7-4.5-7.6,3.1-1.1,4.6-4.5,4.6-7.7,0-5.8-4.6-8.8-10-8.8h-17.9v30.8"/>
    <polygon class="cls-1" points="77.7 45.4 74.5 45.4 74.5 43.5 83 43.5 83 45.4 79.9 45.4 79.9 53.8 77.7 53.8 77.7 45.4"/>
    <path class="cls-1" d="M83.7,43.5h2.1v3.9h0c.5-.8,1.3-1.3,2.2-1.3,2.2,0,2.7,1.3,2.7,3v4.6h-2.1v-4.2c0-1.3-.3-1.9-1.4-1.9s-1.6.6-1.6,2.1v3.9h-2.1l.2-10.1"/>
    <path class="cls-1" d="M93.5,50.5c0,1.3.7,1.9,1.9,1.9s1.3-.4,1.6-.9h1.8c-.4,1.5-1.8,2.6-3.4,2.5-2,0-3.7-1.5-3.8-3.4v-.4c0-2.1,1.4-3.8,3.5-4h.3c2.5,0,3.8,2.1,3.6,4.4h-5.5ZM96.8,49.3c-.2-1-.6-1.6-1.7-1.6s-1.6.6-1.7,1.5h0c0,0,3.4,0,3.4,0"/>
    <path class="cls-1" d="M112.2,49.9c0,2.8-1.7,4.2-4.4,4.2s-4.4-1.4-4.4-4.2v-6.4h2.3v6.4c0,1.1.3,2.2,2.1,2.2s2.1-.7,2.1-2.2v-6.4h2.3v6.4"/>
    <polygon class="cls-1" points="113.6 43.5 115.9 43.5 120.2 50.3 120.2 50.3 120.2 43.5 122.4 43.5 122.4 53.8 120.1 53.8 115.8 46.9 115.8 46.9 115.8 53.8 113.6 53.8 113.6 43.5"/>
    <path class="cls-1" d="M129.5,45.2h2.5c1,0,1.6.4,1.6,1.5s-.5,1.5-1.6,1.5h-2.5v-3ZM127.3,53.8h2.3v-4h2.3c1.1,0,1.6.5,1.7,1.6,0,.9.1,1.7.4,2.5h2.3c-.3-.8-.4-1.6-.4-2.4-.1-1-.4-2.1-1.5-2.4h0c1.1-.4,1.7-1.5,1.7-2.6s-1.2-2.8-2.8-2.8h-5.7l-.3,10.1"/>
    <path class="cls-1" d="M138.8,49.3c0-.9.7-1.5,1.6-1.6h.1c.9,0,1.5.5,1.7,1.6h-3.4ZM144.2,50.5c.1-2.3-1-4.4-3.6-4.4-2,0-3.7,1.5-3.8,3.5h0v.4c-.2,1.9,1.3,3.7,3.2,3.8h.5c1.6,0,3-1,3.4-2.5h-1.8c-.3.6-.9,1-1.6.9-1.1,0-1.8-.6-1.9-1.9l5.6.2"/>
    <path class="cls-1" d="M145.5,47.7h-1.3v-1.4h1.3v-.5c-.1-1.2.8-2.2,2-2.3h.5c.4,0,.7,0,1,0v1.6h-.7c-.5,0-.7.2-.7.8v.4h1.5v1.4h-1.5v6h-2.1v-6.1"/>
    <path class="cls-1" d="M156.6,53.8h-2v-1h0c-.5.8-1.4,1.2-2.3,1.3-2.2,0-2.7-1.3-2.7-3v-4.6h2.1v4.2c0,1.3.4,1.9,1.4,1.9s1.6-.6,1.6-2.1v-4h2.1v7.4"/>
    <path class="cls-1" d="M161.2,52c-1.3,0-1.7-1.1-1.7-2.2s.5-2.1,1.7-2.1,1.8,1,1.8,2.3c.2,1-.5,1.9-1.5,2.1h-.3M165,46.4h-2v1h0c-.4-.8-1.3-1.3-2.2-1.1-1.8,0-3.3,1.6-3.2,3.4v.2c0,1.9.9,3.8,3.1,3.8s1.7-.4,2.2-1.1h0v.9c0,1-.5,1.9-1.7,1.9-.7,0-1.4-.3-1.6-1h-2c.1,1.7,1.8,2.4,3.2,2.4,3.4,0,3.9-2.1,3.9-3.3l.3-7.1"/>
    <path class="cls-1" d="M168,49.3c0-.9.7-1.5,1.6-1.6h.1c1,0,1.5.5,1.7,1.6h-3.4ZM173.3,50.5c.1-2.3-1-4.4-3.6-4.4-2,0-3.7,1.5-3.8,3.5h0v.4c-.2,1.9,1.3,3.7,3.2,3.8h.5c1.6,0,3-1,3.4-2.5h-1.8c-.3.6-.9,1-1.6.9-1.1,0-1.8-.6-1.9-1.9l5.6.2"/>
    <path class="cls-1" d="M176,49.3c0-.9.7-1.6,1.6-1.6h.2c.9,0,1.5.5,1.7,1.6h-3.5ZM181.4,50.5c.1-2.3-1-4.4-3.6-4.4-2,0-3.7,1.5-3.8,3.5h0v.4c-.2,1.9,1.3,3.7,3.2,3.8h.5c1.6,0,3.1-.9,3.4-2.5h-1.8c-.3.6-1,1-1.7.9-1.1,0-1.8-.6-1.9-1.9l5.7.2"/>
    <path class="cls-1" d="M190.7,46.1h0l1.3,3.8h-2.7l1.4-3.8ZM185.7,53.8h2.3l.8-2.3h3.9l.7,2.3h2.4l-3.8-10.2h-2.3l-4,10.2Z"/>
    <path class="cls-1" d="M199.6,52c-1.3,0-1.7-1.1-1.7-2.2s.5-2.1,1.7-2.1,1.8,1,1.8,2.3c.1,1-.6,1.9-1.6,2.1-.1,0-.2,0-.2,0M203.2,46.4h-2v1h0c-.4-.8-1.3-1.3-2.2-1.1-1.8,0-3.3,1.6-3.2,3.4v.2c0,1.9.9,3.8,3.2,3.8s1.7-.4,2.2-1.1h0v.9c0,1-.5,1.9-1.7,1.9-.7,0-1.4-.3-1.6-1h-2c.1,1.7,1.8,2.4,3.2,2.4,3.4,0,3.9-2.1,3.9-3.3l.2-7.1"/>
    <path class="cls-1" d="M206.3,49.3c0-.9.7-1.6,1.6-1.6h.2c.9,0,1.5.5,1.7,1.6h-3.5ZM211.7,50.5c.1-2.3-1-4.4-3.6-4.4s-3.7,1.6-3.8,3.6v.3c-.2,1.9,1.3,3.7,3.2,3.8h.5c1.6,0,3-1,3.4-2.5h-1.8c-.3.6-1,1-1.7.9-1.1,0-1.8-.6-1.9-1.9l5.7.2"/>
    <path class="cls-1" d="M212.5,46.4h2v1h.1c.5-.8,1.4-1.2,2.3-1.3,2.2,0,2.7,1.3,2.7,3v4.6h-2.1v-4.2c0-1.3-.3-1.9-1.4-1.9s-1.6.6-1.6,2.1v3.9h-2.1v-7.2"/>
    <path class="cls-1" d="M225.8,49c-.1-.7-.7-1.3-1.5-1.3h0c-1.4,0-1.8,1.4-1.8,2.4s.4,2.3,1.7,2.3,1.6-.6,1.7-1.5h2c-.1,1.8-1.6,3.1-3.4,3h-.2c-2,0-3.7-1.5-3.8-3.4v-.3c-.2-2,1.2-3.7,3.2-3.9h.7c1.7-.2,3.3,1.1,3.5,2.8h-2.1"/>
    <path class="cls-1" d="M232.4,54.7c-.3,1.1-1.4,1.9-2.6,1.7-.4,0-.8,0-1.3,0v-1.7c.4,0,.8,0,1.1,0,.5,0,.9-.6.8-1.1,0,0,0-.2-.1-.3l-2.6-7h2.2l1.7,5.1h0l1.7-5.1h2.1l-3,8.4"/>
  </g>
  <line class="cls-2" x1="266.6" y1="0" x2="266.6" y2="56.7"/>
  <g>
    <path class="cls-1" d="M299.7,37c.2,0,.4,0,.6.3l1.5,1.7c-1.2,1.4-2.6,2.4-4.3,3.2-1.7.8-3.7,1.1-6,1.1s-3.9-.4-5.6-1.1c-1.7-.7-3.1-1.7-4.3-3-1.2-1.3-2.1-2.8-2.8-4.6s-1-3.8-1-5.9.4-4.1,1-5.9c.7-1.8,1.7-3.3,3-4.6,1.3-1.3,2.8-2.3,4.5-3,1.8-.7,3.7-1.1,5.9-1.1s3.9.3,5.5,1c1.5.7,2.9,1.5,4.1,2.7l-1.3,1.8c0,.1-.2.2-.3.3-.1,0-.3.1-.5.1s-.4,0-.5-.2c-.2-.1-.4-.3-.7-.5s-.6-.4-.9-.6c-.4-.2-.8-.4-1.3-.6s-1.1-.3-1.7-.5c-.7-.1-1.4-.2-2.3-.2-1.5,0-2.9.3-4.2.8-1.3.5-2.4,1.3-3.3,2.2-.9,1-1.6,2.2-2.1,3.6-.5,1.4-.8,3-.8,4.7s.3,3.4.8,4.8c.5,1.4,1.2,2.6,2.1,3.5s1.9,1.7,3.2,2.2c1.2.5,2.5.8,3.9.8s1.6,0,2.3-.2,1.3-.3,1.9-.5c.6-.2,1.1-.5,1.6-.8.5-.3,1-.7,1.5-1.2.2-.2.4-.3.7-.3Z"/>
    <path class="cls-1" d="M309.5,22.7v12.9c0,1.5.4,2.7,1.1,3.6.7.8,1.8,1.3,3.2,1.3s2-.2,2.9-.7,1.8-1.2,2.5-2.1v-14.9h3.6v20.3h-2.1c-.5,0-.8-.2-1-.7l-.3-2.2c-.9,1-1.9,1.8-3,2.3-1.1.6-2.3.9-3.8.9s-2.1-.2-2.9-.6c-.8-.4-1.6-.9-2.1-1.5-.6-.7-1-1.5-1.3-2.4-.3-.9-.4-2-.4-3.1v-12.9h3.6Z"/>
    <path class="cls-1" d="M328.6,42.9v-20.3h2c.4,0,.7,0,.8.2s.2.4.3.8l.2,3.2c.7-1.4,1.5-2.5,2.6-3.3,1-.8,2.2-1.2,3.6-1.2s1.1,0,1.5.2c.5.1.9.3,1.3.5l-.5,2.7c0,.3-.3.5-.6.5s-.5,0-.9-.2-.9-.2-1.6-.2c-1.2,0-2.3.4-3.1,1.1-.8.7-1.5,1.8-2.1,3.1v12.9h-3.6Z"/>
    <path class="cls-1" d="M358.9,42.9h-1.6c-.3,0-.6,0-.8-.2-.2-.1-.4-.3-.4-.7l-.4-1.9c-.5.5-1.1.9-1.6,1.3s-1,.7-1.6,1c-.6.3-1.2.5-1.8.6-.6.1-1.3.2-2.1.2s-1.5-.1-2.2-.3c-.7-.2-1.3-.6-1.8-1-.5-.4-.9-1-1.2-1.7-.3-.7-.5-1.5-.5-2.4s.2-1.6.7-2.3c.4-.7,1.2-1.4,2.1-2,1-.6,2.3-1,3.9-1.4,1.6-.4,3.5-.6,5.8-.6v-1.6c0-1.6-.3-2.8-1-3.6-.7-.8-1.7-1.2-3-1.2s-1.6.1-2.2.3c-.6.2-1.1.5-1.5.7-.4.3-.8.5-1.1.7-.3.2-.6.3-.9.3s-.4,0-.6-.2c-.2-.1-.3-.3-.4-.5l-.6-1.1c1.1-1.1,2.3-1.9,3.6-2.4,1.3-.5,2.7-.8,4.3-.8s2.1.2,3,.6c.9.4,1.6.9,2.2,1.6.6.7,1.1,1.5,1.4,2.4.3.9.5,2,.5,3.1v13ZM349.6,40.7c.6,0,1.2,0,1.7-.2.5-.1,1-.3,1.5-.5s.9-.5,1.3-.8.8-.7,1.2-1.1v-4.2c-1.6,0-3,.1-4.2.3-1.1.2-2.1.5-2.8.8-.7.3-1.2.7-1.6,1.2-.3.5-.5,1-.5,1.5s0,1,.3,1.4c.2.4.4.7.7,1,.3.2.6.4,1,.5.4.1.8.2,1.3.2Z"/>
    <path class="cls-1" d="M370.4,43.2c-1.6,0-2.8-.4-3.7-1.3-.9-.9-1.3-2.2-1.3-3.9v-12.4h-2.4c-.2,0-.4,0-.5-.2s-.2-.3-.2-.6v-1.4l3.3-.4.8-6.3c0-.2.1-.4.3-.5.1-.1.3-.2.6-.2h1.8v7h5.8v2.6h-5.8v12.2c0,.9.2,1.5.6,1.9s.9.6,1.6.6.7,0,1-.2.5-.2.7-.3.4-.2.5-.3c.1,0,.3-.1.4-.1.2,0,.4.1.5.3l1,1.7c-.6.6-1.4,1-2.2,1.3-.9.3-1.8.5-2.7.5Z"/>
    <path class="cls-1" d="M387.2,22.3c1.2,0,2.3.2,3.4.6,1,.4,1.9,1,2.7,1.8s1.3,1.7,1.8,2.8c.4,1.1.6,2.4.6,3.9s0,.9-.2,1.1c-.1.2-.3.3-.7.3h-13.5c0,1.3.2,2.4.5,3.3.3.9.8,1.7,1.3,2.4.6.6,1.2,1.1,2,1.4.8.3,1.6.5,2.6.5s1.7-.1,2.3-.3c.6-.2,1.2-.4,1.7-.7s.9-.5,1.2-.7.6-.3.8-.3.5.1.7.3l1,1.3c-.4.5-1,1-1.6,1.4-.6.4-1.3.7-2,1-.7.3-1.4.4-2.2.6-.7.1-1.5.2-2.2.2-1.4,0-2.7-.2-3.9-.7-1.2-.5-2.2-1.2-3.1-2.1s-1.5-2-2-3.4c-.5-1.3-.7-2.9-.7-4.6s.2-2.7.6-4c.4-1.2,1.1-2.3,1.9-3.2.8-.9,1.8-1.6,3-2.1,1.2-.5,2.5-.8,4-.8ZM387.3,25c-1.7,0-3.1.5-4.1,1.5-1,1-1.6,2.4-1.8,4.1h11c0-.8-.1-1.6-.3-2.3-.2-.7-.6-1.3-1-1.8-.4-.5-1-.9-1.6-1.2-.6-.3-1.4-.4-2.2-.4Z"/>
    <path class="cls-1" d="M414.4,42.9c-.5,0-.8-.2-1-.7l-.3-2.5c-.9,1.1-1.9,1.9-3,2.5-1.1.6-2.4,1-3.8,1s-2.2-.2-3.2-.7c-.9-.4-1.8-1.1-2.4-2-.7-.9-1.2-1.9-1.5-3.2-.4-1.3-.5-2.8-.5-4.5s.2-2.9.6-4.2c.4-1.3,1-2.4,1.7-3.3.8-.9,1.7-1.7,2.8-2.2,1.1-.5,2.3-.8,3.7-.8s2.3.2,3.2.6,1.7,1,2.4,1.8v-11.2h3.6v29.5h-2.1ZM407.5,40.3c1.2,0,2.2-.3,3-.8.9-.5,1.7-1.3,2.4-2.3v-9.8c-.7-.9-1.4-1.5-2.2-1.8-.8-.4-1.6-.5-2.6-.5-1.9,0-3.3.7-4.4,2-1,1.3-1.5,3.3-1.5,5.8s.1,2.4.3,3.4c.2.9.6,1.7,1,2.3.4.6,1,1,1.6,1.3.6.3,1.4.4,2.2.4Z"/>
    <path class="cls-1" d="M455.6,28.6c0,2.1-.3,4.1-1,5.9-.7,1.8-1.6,3.3-2.9,4.5-1.2,1.3-2.7,2.2-4.5,2.9-1.7.7-3.7,1-5.8,1h-10.7V14.3h10.7c2.1,0,4,.3,5.8,1s3.2,1.7,4.5,2.9,2.2,2.8,2.9,4.5c.7,1.8,1,3.7,1,5.9ZM451.6,28.6c0-1.8-.2-3.3-.7-4.7-.5-1.4-1.2-2.6-2-3.5s-1.9-1.7-3.2-2.2-2.6-.8-4.2-.8h-6.8v22.4h6.8c1.5,0,2.9-.3,4.2-.8,1.3-.5,2.3-1.2,3.2-2.2s1.6-2.1,2-3.5c.5-1.4.7-3,.7-4.7Z"/>
    <path class="cls-1" d="M475.2,42.9h-1.6c-.3,0-.6,0-.8-.2-.2-.1-.4-.3-.4-.7l-.4-1.9c-.5.5-1.1.9-1.6,1.3s-1,.7-1.6,1c-.6.3-1.2.5-1.8.6-.6.1-1.3.2-2.1.2s-1.5-.1-2.2-.3c-.7-.2-1.3-.6-1.8-1-.5-.4-.9-1-1.2-1.7-.3-.7-.5-1.5-.5-2.4s.2-1.6.7-2.3c.4-.7,1.2-1.4,2.1-2,1-.6,2.3-1,3.9-1.4,1.6-.4,3.5-.6,5.8-.6v-1.6c0-1.6-.3-2.8-1-3.6-.7-.8-1.7-1.2-3-1.2s-1.6.1-2.2.3c-.6.2-1.1.5-1.5.7-.4.3-.8.5-1.1.7-.3.2-.6.3-.9.3s-.4,0-.6-.2c-.2-.1-.3-.3-.4-.5l-.6-1.1c1.1-1.1,2.3-1.9,3.6-2.4,1.3-.5,2.7-.8,4.3-.8s2.1.2,3,.6c.9.4,1.6.9,2.2,1.6.6.7,1.1,1.5,1.4,2.4.3.9.5,2,.5,3.1v13ZM466,40.7c.6,0,1.2,0,1.7-.2.5-.1,1-.3,1.5-.5s.9-.5,1.3-.8.8-.7,1.2-1.1v-4.2c-1.6,0-3,.1-4.2.3-1.1.2-2.1.5-2.8.8-.7.3-1.2.7-1.6,1.2-.3.5-.5,1-.5,1.5s0,1,.3,1.4c.2.4.4.7.7,1,.3.2.6.4,1,.5.4.1.8.2,1.3.2Z"/>
    <path class="cls-1" d="M486.8,43.2c-1.6,0-2.8-.4-3.7-1.3-.9-.9-1.3-2.2-1.3-3.9v-12.4h-2.4c-.2,0-.4,0-.5-.2s-.2-.3-.2-.6v-1.4l3.3-.4.8-6.3c0-.2.1-.4.3-.5.1-.1.3-.2.6-.2h1.8v7h5.8v2.6h-5.8v12.2c0,.9.2,1.5.6,1.9s.9.6,1.6.6.7,0,1-.2.5-.2.7-.3.4-.2.5-.3c.1,0,.3-.1.4-.1.2,0,.4.1.5.3l1,1.7c-.6.6-1.4,1-2.2,1.3-.9.3-1.8.5-2.7.5Z"/>
    <path class="cls-1" d="M510.4,42.9h-1.6c-.3,0-.6,0-.8-.2-.2-.1-.4-.3-.4-.7l-.4-1.9c-.5.5-1.1.9-1.6,1.3s-1,.7-1.6,1c-.6.3-1.2.5-1.8.6-.6.1-1.3.2-2.1.2s-1.5-.1-2.2-.3c-.7-.2-1.3-.6-1.8-1-.5-.4-.9-1-1.2-1.7-.3-.7-.5-1.5-.5-2.4s.2-1.6.7-2.3c.4-.7,1.2-1.4,2.1-2,1-.6,2.3-1,3.9-1.4,1.6-.4,3.5-.6,5.8-.6v-1.6c0-1.6-.3-2.8-1-3.6-.7-.8-1.7-1.2-3-1.2s-1.6.1-2.2.3c-.6.2-1.1.5-1.5.7-.4.3-.8.5-1.1.7-.3.2-.6.3-.9.3s-.4,0-.6-.2c-.2-.1-.3-.3-.4-.5l-.6-1.1c1.1-1.1,2.3-1.9,3.6-2.4,1.3-.5,2.7-.8,4.3-.8s2.1.2,3,.6c.9.4,1.6.9,2.2,1.6.6.7,1.1,1.5,1.4,2.4.3.9.5,2,.5,3.1v13ZM501.2,40.7c.6,0,1.2,0,1.7-.2.5-.1,1-.3,1.5-.5s.9-.5,1.3-.8.8-.7,1.2-1.1v-4.2c-1.6,0-3,.1-4.2.3-1.1.2-2.1.5-2.8.8-.7.3-1.2.7-1.6,1.2-.3.5-.5,1-.5,1.5s0,1,.3,1.4c.2.4.4.7.7,1,.3.2.6.4,1,.5.4.1.8.2,1.3.2Z"/>
  </g>
</svg>