<?xml version="1.0" encoding="UTF-8"?>
<svg id="b" xmlns="http://www.w3.org/2000/svg" xmlns:xlink="http://www.w3.org/1999/xlink" version="1.1" viewBox="0 0 589.8 400">
  <!-- Generator: Adobe Illustrator 29.0.0, SVG Export Plug-In . SVG Version: 2.1.0 Build 186)  -->
  <defs>
    <style>
      .st0 {
        fill: none;
      }

      .st1 {
        fill: #ccdee6;
      }

      .st2 {
        fill: #e0d9d9;
      }

      .st3, .st4, .st5 {
        fill: #ffbcc1;
      }

      .st6 {
        fill: #005984;
      }

      .st7 {
        fill: #2f393e;
      }

      .st8 {
        fill: #e6e6e6;
      }

      .st9 {
        fill: #b96f16;
      }

      .st10 {
        fill: #20262a;
      }

      .st11 {
        fill: #382d26;
      }

      .st12 {
        fill: #337da8;
      }

      .st13 {
        fill: #cce9f4;
      }

      .st4, .st5, .st14 {
        isolation: isolate;
      }

      .st4, .st14 {
        opacity: .3;
      }

      .st5 {
        opacity: .2;
      }

      .st15 {
        fill: #fdcf9d;
      }

      .st16 {
        clip-path: url(#clippath-11);
      }

      .st17 {
        clip-path: url(#clippath-10);
      }

      .st18 {
        clip-path: url(#clippath-13);
      }

      .st19 {
        clip-path: url(#clippath-12);
      }

      .st20 {
        fill: #337a9d;
      }

      .st21 {
        clip-path: url(#clippath-1);
      }

      .st22 {
        clip-path: url(#clippath-3);
      }

      .st23 {
        clip-path: url(#clippath-4);
      }

      .st24 {
        clip-path: url(#clippath-2);
      }

      .st25 {
        clip-path: url(#clippath-7);
      }

      .st26 {
        clip-path: url(#clippath-6);
      }

      .st27 {
        clip-path: url(#clippath-9);
      }

      .st28 {
        clip-path: url(#clippath-8);
      }

      .st29 {
        clip-path: url(#clippath-5);
      }

      .st30 {
        fill: #e6a28d;
      }

      .st31 {
        fill: #8ebeff;
      }

      .st32 {
        fill: #fff;
      }

      .st33, .st14 {
        fill: #3f4c53;
      }

      .st34 {
        fill: #99d3e9;
      }

      .st35 {
        fill: #f7941e;
      }

      .st36 {
        fill: #e9e5e5;
      }

      .st37 {
        opacity: .4;
      }

      .st38 {
        fill: #044f85;
      }

      .st39 {
        fill: #ff8490;
      }

      .st40 {
        fill: #589be5;
      }

      .st41 {
        fill: #dceef9;
      }

      .st42 {
        fill: #dce8f6;
      }

      .st43 {
        fill: #f6f4f4;
      }

      .st44 {
        fill: #e8e4e4;
      }

      .st45 {
        clip-path: url(#clippath);
      }

      .st46 {
        fill: #dce9ff;
      }
    </style>
    <clipPath id="clippath">
      <path class="st0" d="M143.3,92.6c-8.2,0-14.9,6.7-15,14.9,0,.9,0,1.7.2,2.6,1.2,7,7.4,12.4,14.7,12.4s13.2-5.1,14.7-11.9c.2-.9.3-1.7.3-2.6v-.4c0-8.3-6.7-15-15-15h.1Z"/>
    </clipPath>
    <clipPath id="clippath-1">
      <path class="st0" d="M488.8,173.1c-13,0-23.5,10.5-23.6,23.4h0c0,1.5.1,2.8.4,4.2,1.9,11.1,11.6,19.5,23.2,19.5s20.8-8,23.1-18.7c.3-1.3.4-2.7.5-4.2v-.7c0-13-10.5-23.6-23.6-23.6h0Z"/>
    </clipPath>
    <clipPath id="clippath-2">
      <path class="st0" d="M294.4,171c-16.4,0-29.7,13.3-29.8,29.7h0c0,1.9.2,3.6.5,5.3,2.4,14,14.6,24.6,29.3,24.6s26.3-10.2,29.2-23.7c.4-1.7.6-3.5.6-5.3v-.9c0-16.5-13.3-29.8-29.8-29.8h0Z"/>
    </clipPath>
    <clipPath id="clippath-3">
      <path class="st0" d="M351.9,73.5c-13.4,0-24.3,10.9-24.4,24.3h0c0,1.5.1,2.9.4,4.3,2,11.5,12,20.2,24,20.2s21.6-8.3,23.9-19.4c.3-1.4.5-2.8.5-4.3v-.7c0-13.5-10.9-24.4-24.4-24.4Z"/>
    </clipPath>
    <clipPath id="clippath-4">
      <path class="st0" d="M142.8,282.6c-11.8,0-21.3,9.5-21.3,21.2h0c0,1.4,0,2.6.3,3.8,1.7,10,10.5,17.7,21,17.7s18.9-7.3,20.9-16.9c.3-1.2.4-2.5.4-3.8v-.6c0-11.8-9.6-21.3-21.3-21.3h0Z"/>
    </clipPath>
    <clipPath id="clippath-5">
      <path class="st0" d="M419.2,201.6c-8.1,0-14.7,6.6-14.8,14.7,0,.9,0,1.7.2,2.6,1.2,6.9,7.3,12.2,14.6,12.2s13.1-5,14.5-11.7c.2-.8.3-1.7.3-2.6v-.4c0-8.2-6.6-14.8-14.8-14.8h0Z"/>
    </clipPath>
    <clipPath id="clippath-6">
      <path class="st0" d="M189.2,189.7c-7.4,0-13.4,6-13.5,13.4,0,.8,0,1.6.2,2.3,1.1,6.3,6.6,11.1,13.3,11.1s11.9-4.6,13.2-10.7c.2-.8.3-1.6.3-2.4v-.4c0-7.4-6-13.5-13.5-13.5v.2Z"/>
    </clipPath>
    <clipPath id="clippath-7">
      <path class="st0" d="M91.5,174.6c-18.3,0-33.1,14.8-33.1,33v.2c0,2,.2,3.9.5,5.7,2.7,15.6,16.3,27.4,32.6,27.4s29.3-11.3,32.4-26.3c.4-1.9.6-3.9.7-5.9v-1c0-18.3-14.8-33.2-33.2-33.2h.1Z"/>
    </clipPath>
    <clipPath id="clippath-8">
      <path class="st0" d="M248.7,270.2c-7.6,0-13.8,6.1-13.8,13.7s0,1.6.2,2.4c1.1,6.5,6.8,11.4,13.6,11.4s12.2-4.7,13.5-11c.2-.8.3-1.6.3-2.4v-.4c0-7.6-6.2-13.8-13.8-13.8h0Z"/>
    </clipPath>
    <clipPath id="clippath-9">
      <path class="st0" d="M365.1,175c-5.7,0-10.4,4.6-10.4,10.3s0,1.2.2,1.8c.9,4.9,5.1,8.6,10.2,8.6s9.2-3.5,10.2-8.2c.1-.6.2-1.2.2-1.8v-.3c0-5.7-4.6-10.4-10.4-10.4h0Z"/>
    </clipPath>
    <clipPath id="clippath-10">
      <path class="st0" d="M455.1,271.8c-8.5,0-15.4,6.9-15.5,15.4,0,.9,0,1.8.2,2.7,1.3,7.3,7.6,12.8,15.2,12.8s13.7-5.3,15.1-12.3c.2-.9.3-1.8.3-2.7v-.5c0-8.5-6.9-15.5-15.5-15.5h.2Z"/>
    </clipPath>
    <clipPath id="clippath-11">
      <path class="st0" d="M443.9,97.8c-6.1,0-11,4.9-11.1,11,0,.7,0,1.3.2,1.9.9,5.2,5.4,9.2,10.9,9.2s9.8-3.8,10.8-8.8c.1-.6.2-1.3.2-2v-.3c0-6.1-5-11.1-11.1-11.1h.1Z"/>
    </clipPath>
    <clipPath id="clippath-12">
      <path class="st0" d="M359.5,273.5c-14.4,0-26.2,11.7-26.2,26.1h0c0,1.6.1,3.2.4,4.6,2.1,12.3,12.9,21.7,25.8,21.7s23.2-8.9,25.7-20.8c.3-1.5.5-3.1.5-4.6v-.8c0-14.5-11.7-26.2-26.2-26.2h0Z"/>
    </clipPath>
    <clipPath id="clippath-13">
      <path class="st0" d="M256.4,108.6c-7.9,0-14.2,6.3-14.3,14.2,0,.8,0,1.7.2,2.5,1.2,6.7,7,11.8,14,11.8s12.6-4.9,14-11.3c.2-.8.3-1.7.3-2.5v-.4c0-7.9-6.4-14.3-14.3-14.3h.1Z"/>
    </clipPath>
  </defs>
  <g id="c">
    <path class="st42" d="M60,390.3c-43.1-21.4-80.4-56.5-47.2-120.6C52.7,192.4-20.3,116.7,17.1,62.5,55.8,6.3,141.1-18.2,223,15s89.7,42.3,160.6,28.8c78.8-15,156,10.7,145.2,65.9-19.2,98.2,58.8,130.2,61,205.4,2.2,75.2-142.8,100.9-221.9,75.2-108.7-35.3-240.8,33.3-308,0h.1Z"/>
  </g>
  <g>
    <g>
      <path class="st41" d="M167.3,244.3c0-18.3,11.4-32.2,29-32.2s.8,0,1.2,0c-1.9-.3-3.8-.5-5.8-.5-18.1,0-32.8,14.7-32.8,32.8s12,30,27.8,32.4c-12.9-4.3-19.3-17.8-19.3-32.6h0Z"/>
      <path class="st41" d="M407.7,225.5c0-22.9-9.6-41.8-46.5-41.5-3.6-34.6-29.3-60.5-61.1-60.5s-41.5,16.4-53.5,32.6c12-13.2,29.3-21.5,48.6-21.5,31.7,0,58.1,22.3,64.4,52.1,22.7.5,41,19.1,41,41.9s-3.7,19.7-9.9,27c9-7.7,16.9-17.4,16.9-30.1h.1Z"/>
      <g class="st37">
        <path class="st41" d="M227.6,172.7c-1.2-.2-2.4-.3-3.7-.3-7.7,0-16.2,3.7-20.5,10.8-5.6,9.1-4.6,18.2-3.4,23.7,0,0,.8,1.1.9,1.2-.3-1.6-.7-4.7-.7-6.4,0-15.8,12.2-28.7,27.3-29h0Z"/>
      </g>
      <path class="st41" d="M274.7,256s-18.8-23.6-6.1-48.8c12.7-25.2,40.6-33.9,70.6-15,0,0-44.5-17.2-61,14.3s-3.4,49.4-3.4,49.4h-.1Z"/>
    </g>
    <g>
      <g>
        <polygon class="st40" points="145.4 107.7 144.5 107.3 145.6 105.2 147.9 105.6 147.7 106.5 146.1 106.3 145.4 107.7"/>
        <path class="st40" d="M255.6,122.9l-3.9-.6v-1c.1,0,4,.6,4,.6v1h-.1ZM259.6,122.7l-.2-.9,3.8-1,.2.9-3.8,1ZM247.9,121.7l-3.9-.6v-1c.1,0,4,.6,4,.6v1h-.1ZM267.1,120.7l-.2-.9,3.8-1,.2.9-3.8,1ZM240.2,120.6l-3.9-.6v-1c.1,0,4,.6,4,.6v1h-.1ZM232.5,119.4l-3.9-.6v-1c.1,0,4,.6,4,.6v1h-.1ZM274.7,118.8l-.2-.9,3.8-1,.2.9-3.8,1ZM224.8,118.2l-3.9-.6v-1c.1,0,4,.6,4,.6v1h-.1ZM217,117.1l-3.9-.6v-1c.1,0,4,.6,4,.6v1h-.1ZM282.2,116.9l-.2-.9,3.8-1,.2.9-3.8,1ZM209.3,115.9l-3.9-.6v-1c.1,0,4,.6,4,.6v1h-.1ZM289.8,114.9l-.2-.9,3.8-1,.2.9-3.8,1ZM201.6,114.7l-3.9-.6v-1c.1,0,4,.6,4,.6v1h-.1ZM193.9,113.6l-3.9-.6v-1c.1,0,4,.6,4,.6v1h-.1ZM297.3,113l-.2-.9,3.8-1,.2.9-3.8,1ZM186.2,112.4l-3.9-.6v-1c.1,0,4,.6,4,.6v1h-.1ZM178.5,111.2l-3.9-.6v-1c.1,0,4,.6,4,.6v1h-.1ZM304.9,111.1l-.2-.9,3.8-1,.2.9-3.8,1ZM170.8,110l-3.9-.6v-1c.1,0,4,.6,4,.6v1h-.1ZM438.8,109.5l-3.9-.5v-1c.1,0,4,.5,4,.5v1h-.1ZM312.4,109.1l-.2-.9,3.8-1,.2.9-3.8,1ZM163.1,108.9l-3.9-.6v-1c.1,0,4,.6,4,.6v1h-.1ZM431.1,108.5l-3.9-.5v-1c.1,0,4,.5,4,.5v1h-.1ZM155.4,107.7l-3.9-.6v-1c.1,0,4,.6,4,.6v1h-.1ZM423.4,107.6l-3.9-.5v-1c.1,0,4,.5,4,.5v1h-.1ZM320,107.2l-.2-.9,3.8-1,.2.9-3.8,1ZM415.6,106.6l-3.9-.5v-1c.1,0,4,.5,4,.5v1h-.1ZM407.9,105.7l-3.9-.5v-1c.1,0,4,.5,4,.5v1h-.1ZM327.5,105.3l-.2-.9,3.8-1,.2.9-3.8,1ZM400.2,104.7l-3.9-.5v-1c.1,0,4,.5,4,.5v1h-.1ZM392.4,103.7l-3.9-.5v-1c.1,0,4,.5,4,.5v1h-.1ZM335.1,103.4l-.2-.9,3.8-1,.2.9-3.8,1ZM384.7,102.8l-3.9-.5v-1c.1,0,4,.5,4,.5v1h-.1ZM377,101.8l-3.9-.5v-1c.1,0,4,.5,4,.5v1h-.1ZM342.6,101.4l-.2-.9,3.8-1,.2.9-3.8,1ZM369.2,100.8l-3.9-.5v-1c.1,0,4,.5,4,.5v1h-.1ZM361.5,99.9l-3.9-.5v-1c.1,0,4,.5,4,.5v1h-.1ZM350.2,99.5l-.2-.9,2.9-.7h1.1c0,0-.1,1.1-.1,1.1h-.9c0,0-2.7.6-2.7.6h0Z"/>
        <polygon class="st40" points="445.2 111.7 444.4 110.2 442.7 110 442.8 109 445 109.3 446 111.2 445.2 111.7"/>
        <path class="st40" d="M488.3,191.8l-1.8-3.3.9-.5,1.8,3.3-.9.5ZM484.7,185.1l-1.8-3.3.9-.5,1.8,3.3-.9.5ZM481.1,178.4l-1.8-3.3.9-.5,1.8,3.3-.9.5ZM477.5,171.8l-1.8-3.3.9-.5,1.8,3.3-.9.5ZM473.9,165.1l-1.8-3.3.9-.5,1.8,3.3-.9.5ZM470.3,158.4l-1.8-3.3.9-.5,1.8,3.3-.9.5ZM466.7,151.7l-1.8-3.3.9-.5,1.8,3.3-.9.5ZM463.1,145.1l-1.8-3.3.9-.5,1.8,3.3-.9.5ZM459.5,138.4l-1.8-3.3.9-.5,1.8,3.3-.9.5ZM456,131.7l-1.8-3.3.9-.5,1.8,3.3-.9.5ZM452.4,125l-1.8-3.3.9-.5,1.8,3.3-.9.5ZM448.8,118.4l-1.8-3.3.9-.5,1.8,3.3-.9.5Z"/>
        <polygon class="st40" points="491.2 198.6 490.3 198.3 490.9 196.6 490.1 195.1 490.9 194.7 492 196.6 491.2 198.6"/>
        <path class="st40" d="M458,285.3l-.9-.4,1.4-3.6.9.4-1.4,3.6ZM460.8,278.1l-.9-.4,1.4-3.6.9.4-1.4,3.6ZM463.5,270.8l-.9-.4,1.4-3.6.9.4-1.4,3.6ZM466.3,263.6l-.9-.4,1.4-3.6.9.4-1.4,3.6ZM469.1,256.4l-.9-.4,1.4-3.6.9.4-1.4,3.6ZM471.8,249.2l-.9-.4,1.4-3.6.9.4-1.4,3.6ZM474.6,241.9l-.9-.4,1.4-3.6.9.4-1.4,3.6ZM477.4,234.7l-.9-.4,1.4-3.6.9.4-1.4,3.6ZM480.1,227.5l-.9-.4,1.4-3.6.9.4-1.4,3.6ZM482.9,220.3l-.9-.4,1.4-3.6.9.4-1.4,3.6ZM485.7,213l-.9-.4,1.4-3.6.9.4-1.4,3.6ZM488.4,205.8l-.9-.4,1.4-3.6.9.4-1.4,3.6Z"/>
        <polygon class="st40" points="453.6 291.3 453.5 290.3 455.1 290.1 455.7 288.5 456.6 288.9 455.8 291 453.6 291.3"/>
        <path class="st40" d="M146,305.4l-.2-1,3.8-.8.2,1-3.8.8ZM360.6,304.3v-1c-.1,0,3.7-.5,3.7-.5v1c.1,0-3.7.5-3.7.5ZM356.5,304l-3.8-.8.2-1,3.8.8-.2,1ZM153.7,303.7l-.2-1,3.8-.8.2,1-3.8.8ZM368.3,303.2v-1c-.1,0,3.7-.5,3.7-.5v1c.1,0-3.7.5-3.7.5ZM348.9,302.4l-3.8-.8.2-1,3.8.8-.2,1ZM376.1,302.1v-1c-.1,0,3.7-.5,3.7-.5v1c.1,0-3.7.5-3.7.5ZM161.3,302l-.2-1,3.8-.8.2,1-3.8.8ZM383.8,301v-1c-.1,0,3.7-.5,3.7-.5v1c.1,0-3.7.5-3.7.5ZM341.2,300.9l-3.8-.8.2-1,3.8.8-.2,1ZM168.9,300.3l-.2-1,3.8-.8.2,1-3.8.8ZM391.6,299.9v-1c-.1,0,3.7-.5,3.7-.5v1c.1,0-3.7.5-3.7.5ZM333.5,299.4l-3.8-.8.2-1,3.8.8-.2,1ZM399.3,298.9v-1c-.1,0,3.7-.5,3.7-.5v1c.1,0-3.7.5-3.7.5ZM176.6,298.6l-.2-1,3.8-.8.2,1-3.8.8ZM325.8,297.9l-3.8-.8.2-1,3.8.8-.2,1ZM407.1,297.8v-1c-.1,0,3.7-.5,3.7-.5v1c.1,0-3.7.5-3.7.5ZM184.2,296.9l-.2-1,3.8-.8.2,1-3.8.8ZM414.8,296.7v-1c-.1,0,3.7-.5,3.7-.5v1c.1,0-3.7.5-3.7.5ZM318.1,296.3l-3.8-.8.2-1,3.8.8-.2,1ZM422.6,295.6v-1c-.1,0,3.7-.5,3.7-.5v1c.1,0-3.7.5-3.7.5ZM191.9,295.2l-.2-1,3.8-.8.2,1-3.8.8ZM310.5,294.8l-3.8-.8.2-1,3.8.8-.2,1ZM430.4,294.5v-1c-.1,0,3.7-.5,3.7-.5v1c.1,0-3.7.5-3.7.5ZM199.5,293.5l-.2-1,3.8-.8.2,1-3.8.8ZM438.1,293.5v-1c-.1,0,3.7-.5,3.7-.5v1c.1,0-3.7.5-3.7.5ZM302.8,293.3l-3.8-.8.2-1,3.8.8-.2,1ZM445.9,292.4v-1c-.1,0,3.7-.5,3.7-.5v1c.1,0-3.7.5-3.7.5ZM207.2,291.8l-.2-1,3.8-.8.2,1-3.8.8ZM295.1,291.8l-3.8-.8.2-1,3.8.8-.2,1ZM287.4,290.2l-3.8-.8.2-1,3.8.8-.2,1ZM214.8,290.1l-.2-1,3.8-.8.2,1-3.8.8ZM279.7,288.7l-3.8-.8.2-1,3.8.8-.2,1ZM222.5,288.4l-.2-1,3.8-.8.2,1-3.8.8ZM272,287.2l-3.8-.8.2-1,3.8.8-.2,1ZM230.1,286.7l-.2-1,3.8-.8.2,1-3.8.8ZM264.4,285.7l-3.8-.8.2-1,3.8.8-.2,1ZM237.7,285l-.2-1,3.8-.8.2,1-3.8.8ZM256.7,284.2l-3.8-.8.2-1,3.8.8-.2,1h0ZM245.4,283.3l-.2-1,3.5-.8h.5c0,.1-.2,1.1-.2,1.1h-.3l-3.3.7h0Z"/>
        <polygon class="st40" points="139.9 306.7 138.9 304.6 139.8 304.2 140.4 305.6 142 305.3 142.2 306.2 139.9 306.7"/>
        <path class="st40" d="M137.1,301.1l-1.7-3.5.9-.4,1.7,3.5-.9.4ZM133.7,294l-1.7-3.5.9-.4,1.7,3.5-.9.4ZM130.2,287l-1.7-3.5.9-.4,1.7,3.5-.9.4ZM126.7,279.9l-1.7-3.5.9-.4,1.7,3.5-.9.4ZM123.3,272.9l-1.7-3.5.9-.4,1.7,3.5-.9.4ZM119.8,265.8l-1.7-3.5.9-.4,1.7,3.5-.9.4ZM116.3,258.7l-1.7-3.5.9-.4,1.7,3.5-.9.4ZM112.8,251.7l-1.7-3.5.9-.4,1.7,3.5-.9.4ZM109.4,244.6l-1.7-3.5.9-.4,1.7,3.5-.9.4ZM105.9,237.6l-1.7-3.5.9-.4,1.7,3.5-.9.4ZM102.4,230.5l-1.7-3.5.9-.4,1.7,3.5-.9.4ZM98.9,223.4l-1.7-3.5.9-.4,1.7,3.5-.9.4ZM95.5,216.4l-1.7-3.5.9-.4,1.7,3.5-.9.4Z"/>
        <polygon class="st40" points="92 209.3 91 207.3 92.1 205.4 92.9 205.9 92.1 207.3 92.9 208.9 92 209.3"/>
        <path class="st40" d="M94.7,202.5l-.9-.5,1.8-3.4.9.5-1.8,3.4ZM98.3,195.7l-.9-.5,1.8-3.4.9.5-1.8,3.4ZM102,188.9l-.9-.5,1.8-3.4.9.5-1.8,3.4ZM105.6,182.2l-.9-.5,1.8-3.4.9.5-1.8,3.4ZM109.2,175.4l-.9-.5,1.8-3.4.9.5-1.8,3.4ZM112.8,168.6l-.9-.5,1.8-3.4.9.5-1.8,3.4ZM116.4,161.9l-.9-.5,1.8-3.4.9.5-1.8,3.4ZM120,155.1l-.9-.5,1.8-3.4.9.5-1.8,3.4ZM123.7,148.3l-.9-.5,1.8-3.4.9.5-1.8,3.4ZM127.3,141.6l-.9-.5,1.8-3.4.9.5-1.8,3.4h0ZM130.9,134.8l-.9-.5,1.8-3.4.9.5-1.8,3.4ZM134.5,128l-.9-.5,1.8-3.4.9.5-1.8,3.4ZM138.1,121.2l-.9-.5,1.8-3.4.9.5-1.8,3.4ZM141.8,114.5l-.9-.5,1.8-3.4.9.5-1.8,3.4Z"/>
      </g>
      <g>
        <polygon class="st40" points="188.7 202.4 187.9 200.6 188.8 200.3 189.6 202 188.7 202.4"/>
        <path class="st40" d="M186.4,197.2l-1.5-3.4.9-.4,1.5,3.4-.9.4ZM183.3,190.3l-1.5-3.4.9-.4,1.5,3.4-.9.4ZM180.2,183.4l-1.5-3.4.9-.4,1.5,3.4-.9.4ZM177.1,176.6l-1.5-3.4.9-.4,1.5,3.4-.9.4ZM174,169.7l-1.5-3.4.9-.4,1.5,3.4-.9.4ZM170.9,162.8l-1.5-3.4.9-.4,1.5,3.4-.9.4ZM167.8,155.9l-1.5-3.4.9-.4,1.5,3.4-.9.4ZM164.8,149l-1.5-3.4.9-.4,1.5,3.4-.9.4ZM161.7,142.2l-1.5-3.4.9-.4,1.5,3.4-.9.4ZM158.6,135.3l-1.5-3.4.9-.4,1.5,3.4-.9.4ZM155.5,128.4l-1.5-3.4.9-.4,1.5,3.4-.9.4ZM152.4,121.5l-1.5-3.4.9-.4,1.5,3.4-.9.4ZM149.3,114.6l-1.5-3.4.9-.4,1.5,3.4-.9.4Z"/>
        <polygon class="st40" points="146.2 107.7 145.4 106 146.3 105.6 147.1 107.3 146.2 107.7"/>
      </g>
      <g>
        <polygon class="st40" points="91.6 207.8 91.5 206.9 93.5 206.8 93.5 207.7 91.6 207.8"/>
        <path class="st40" d="M97.3,207.5v-1l3.7-.2v1l-3.7.2ZM104.8,207.1v-1l3.7-.2v1l-3.7.2ZM112.3,206.7v-1l3.7-.2v1l-3.7.2ZM119.8,206.4v-1l3.7-.2v1l-3.7.2ZM127.3,206v-1l3.7-.2v1l-3.7.2ZM134.8,205.6v-1l3.7-.2v1l-3.7.2ZM142.3,205.2v-1l3.7-.2v1l-3.7.2ZM149.8,204.8v-1l3.7-.2v1l-3.7.2ZM157.3,204.4v-1l3.7-.2v1l-3.7.2ZM164.8,204v-1l3.7-.2v1l-3.7.2ZM172.3,203.6v-1l3.7-.2v1l-3.7.2ZM179.8,203.2v-1l3.7-.2v1l-3.7.2Z"/>
        <polygon class="st40" points="187.3 202.8 187.2 201.8 189.2 201.7 189.2 202.7 187.3 202.8"/>
      </g>
      <g>
        <polygon class="st40" points="140.6 306.4 139.7 306 140.6 304.2 141.4 304.6 140.6 306.4"/>
        <path class="st40" d="M143.1,301.1l-.9-.4,1.6-3.5.9.4-1.6,3.5ZM146.3,294.2l-.9-.4,1.6-3.5.9.4-1.6,3.5ZM149.6,287.3l-.9-.4,1.6-3.5.9.4-1.6,3.5ZM152.9,280.4l-.9-.4,1.6-3.5.9.4-1.6,3.5ZM156.1,273.4l-.9-.4,1.6-3.5.9.4-1.6,3.5ZM159.4,266.5l-.9-.4,1.6-3.5.9.4-1.6,3.5ZM162.7,259.6l-.9-.4,1.6-3.5.9.4-1.6,3.5ZM165.9,252.7l-.9-.4,1.6-3.5.9.4-1.6,3.5ZM169.2,245.8l-.9-.4,1.6-3.5.9.4-1.6,3.5ZM172.5,238.8l-.9-.4,1.6-3.5.9.4-1.6,3.5ZM175.7,231.9l-.9-.4,1.6-3.5.9.4-1.6,3.5ZM179,225l-.9-.4,1.6-3.5.9.4-1.6,3.5ZM182.3,218.1l-.9-.4,1.6-3.5.9.4-1.6,3.5ZM185.5,211.1l-.9-.4,1.6-3.5.9.4-1.6,3.5Z"/>
        <polygon class="st40" points="188.8 204.2 187.9 203.8 188.7 202 189.6 202.4 188.8 204.2"/>
      </g>
      <g>
        <polygon class="st40" points="248.3 282.4 247.1 280.8 247.9 280.2 249.1 281.8 248.3 282.4"/>
        <path class="st40" d="M244.9,277.7l-2.3-3.1.8-.6,2.3,3.1-.8.6ZM240.3,271.6l-2.3-3.1.8-.6,2.3,3.1-.8.6ZM235.7,265.5l-2.3-3.1.8-.6,2.3,3.1-.8.6ZM231.1,259.3l-2.3-3.1.8-.6,2.3,3.1-.8.6ZM226.6,253.2l-2.3-3.1.8-.6,2.3,3.1-.8.6ZM222,247l-2.3-3.1.8-.6,2.3,3.1-.8.6ZM217.4,240.9l-2.3-3.1.8-.6,2.3,3.1-.8.6ZM212.8,234.8l-2.3-3.1.8-.6,2.3,3.1-.8.6ZM208.3,228.6l-2.3-3.1.8-.6,2.3,3.1-.8.6ZM203.7,222.5l-2.3-3.1.8-.6,2.3,3.1-.8.6ZM199.1,216.4l-2.3-3.1.8-.6,2.3,3.1-.8.6ZM194.5,210.2l-2.3-3.1.8-.6,2.3,3.1-.8.6Z"/>
        <rect class="st40" x="189.3" y="202.2" width="1" height="1.9" transform="translate(-83.8 153.7) rotate(-36.7)"/>
      </g>
      <g>
        <rect class="st40" x="300" y="210" width="1" height="1.9" transform="translate(66.6 494) rotate(-85.5)"/>
        <path class="st40" d="M295.4,211l-4-.3v-1l4.1.3v1h-.1ZM287.4,210.4l-4-.3v-1l4.1.3v1h-.1ZM279.4,209.8l-4-.3v-1l4.1.3v1h-.1ZM271.4,209.1l-4-.3v-1l4.1.3v1h-.1ZM263.3,208.5l-4-.3v-1l4.1.3v1h-.1ZM255.3,207.9l-4-.3v-1l4.1.3v1h-.1ZM247.3,207.3l-4-.3v-1l4.1.3v1h-.1ZM239.3,206.6l-4-.3v-1l4.1.3v1h-.1ZM231.2,206l-4-.3v-1l4.1.3v1h-.1ZM223.2,205.4l-4-.3v-1l4.1.3v1h-.1ZM215.2,204.8l-4-.3v-1l4.1.3v1h-.1ZM207.1,204.1l-4-.3v-1l4.1.3v1h-.1ZM199.1,203.5l-4-.3v-1l4.1.3v1h-.1Z"/>
        <rect class="st40" x="189.6" y="201.3" width="1" height="1.9" transform="translate(-26.4 375.9) rotate(-85.5)"/>
      </g>
      <g>
        <polygon class="st40" points="256.5 124.5 255.8 123.9 257.1 122.4 257.8 123 256.5 124.5"/>
        <path class="st40" d="M193.5,198l-.7-.6,2.6-3.1.7.6-2.6,3.1ZM198.7,191.9l-.7-.6,2.6-3.1.7.6-2.6,3.1ZM204,185.8l-.7-.6,2.6-3.1.7.6-2.6,3.1ZM209.2,179.6l-.7-.6,2.6-3.1.7.6-2.6,3.1ZM214.5,173.5l-.7-.6,2.6-3.1.7.6-2.6,3.1ZM219.7,167.4l-.7-.6,2.6-3.1.7.6-2.6,3.1ZM225,161.3l-.7-.6,2.6-3.1.7.6-2.6,3.1ZM230.2,155.1l-.7-.6,2.6-3.1.7.6-2.6,3.1ZM235.5,149l-.7-.6,2.6-3.1.7.6-2.6,3.1ZM240.8,142.9l-.7-.6,2.6-3.1.7.6-2.6,3.1ZM246,136.7l-.7-.6,2.6-3.1.7.6-2.6,3.1ZM251.3,130.6l-.7-.6,2.6-3.1.7.6-2.6,3.1Z"/>
        <rect class="st40" x="188.8" y="200.9" width="2" height="1" transform="translate(-86.6 214.9) rotate(-49.5)"/>
      </g>
      <g>
        <polygon class="st40" points="257.9 124.7 257 122.9 257.9 122.5 258.7 124.2 257.9 124.7"/>
        <path class="st40" d="M298.4,206.1l-1.7-3.4.9-.4,1.7,3.4-.9.4ZM295.1,199.3l-1.7-3.4.9-.4,1.7,3.4-.9.4ZM291.7,192.5l-1.7-3.4.9-.4,1.7,3.4-.9.4ZM288.3,185.7l-1.7-3.4.9-.4,1.7,3.4-.9.4ZM284.9,178.9l-1.7-3.4.9-.4,1.7,3.4-.9.4ZM281.5,172.2l-1.7-3.4.9-.4,1.7,3.4-.9.4ZM278.1,165.4l-1.7-3.4.9-.4,1.7,3.4-.9.4ZM274.8,158.6l-1.7-3.4.9-.4,1.7,3.4-.9.4ZM271.4,151.8l-1.7-3.4.9-.4,1.7,3.4-.9.4ZM268,145l-1.7-3.4.9-.4,1.7,3.4-.9.4ZM264.6,138.2l-1.7-3.4.9-.4,1.7,3.4-.9.4ZM261.2,131.4l-1.7-3.4.9-.4,1.7,3.4-.9.4h0Z"/>
        <rect class="st40" x="300.5" y="209.4" width="1" height="2" transform="translate(-62.2 155.8) rotate(-26.4)"/>
      </g>
      <g>
        <polygon class="st40" points="363.6 186.5 363.3 185.6 365.1 184.9 365.4 185.8 363.6 186.5"/>
        <path class="st40" d="M307,209.3l-.4-.9,3.5-1.4.4.9-3.5,1.4ZM314.1,206.5l-.4-.9,3.5-1.4.4.9-3.5,1.4ZM321.1,203.6l-.4-.9,3.5-1.4.4.9-3.5,1.4ZM328.2,200.8l-.4-.9,3.5-1.4.4.9-3.5,1.4ZM335.3,197.9l-.4-.9,3.5-1.4.4.9-3.5,1.4ZM342.4,195.1l-.4-.9,3.5-1.4.4.9-3.5,1.4ZM349.5,192.2l-.4-.9,3.5-1.4.4.9-3.5,1.4ZM356.6,189.4l-.4-.9,3.5-1.4.4.9-3.5,1.4Z"/>
        <rect class="st40" x="301.4" y="210.2" width="2" height="1" transform="translate(-56.9 128.6) rotate(-22)"/>
      </g>
      <g>
        <rect class="st40" x="358" y="301.6" width="1" height="1.9" transform="translate(-105.9 235.9) rotate(-32)"/>
        <path class="st40" d="M355.5,298.9l-2.1-3.3.8-.5,2.1,3.3-.8.5ZM351.4,292.3l-2.1-3.3.8-.5,2.1,3.3-.8.5ZM347.3,285.7l-2.1-3.3.8-.5,2.1,3.3-.8.5ZM343.2,279.1l-2.1-3.3.8-.5,2.1,3.3-.8.5ZM339,272.5l-2.1-3.3.8-.5,2.1,3.3-.8.5ZM334.9,265.9l-2.1-3.3.8-.5,2.1,3.3-.8.5ZM330.8,259.2l-2.1-3.3.8-.5,2.1,3.3-.8.5ZM326.7,252.6l-2.1-3.3.8-.5,2.1,3.3-.8.5ZM322.6,246l-2.1-3.3.8-.5,2.1,3.3-.8.5ZM318.5,239.4l-2.1-3.3.8-.5,2.1,3.3-.8.5ZM314.4,232.8l-2.1-3.3.8-.5,2.1,3.3-.8.5ZM310.3,226.2l-2.1-3.3.8-.5,2.1,3.3-.8.5ZM306.2,219.5l-2.1-3.3.8-.5,2.1,3.3-.8.5Z"/>
        <rect class="st40" x="301.5" y="210.7" width="1" height="1.9" transform="translate(-66.3 192.2) rotate(-32)"/>
      </g>
      <g>
        <polygon class="st40" points="249.1 282.4 248.3 281.8 249.5 280.2 250.3 280.8 249.1 282.4"/>
        <path class="st40" d="M252.7,277.6l-.8-.6,2.4-3.2.8.6-2.4,3.2ZM257.5,271.1l-.8-.6,2.4-3.2.8.6-2.4,3.2ZM262.3,264.6l-.8-.6,2.4-3.2.8.6-2.4,3.2ZM267.1,258.2l-.8-.6,2.4-3.2.8.6-2.4,3.2ZM271.9,251.7l-.8-.6,2.4-3.2.8.6-2.4,3.2ZM276.7,245.2l-.8-.6,2.4-3.2.8.6-2.4,3.2ZM281.5,238.7l-.8-.6,2.4-3.2.8.6-2.4,3.2ZM286.3,232.3l-.8-.6,2.4-3.2.8.6-2.4,3.2ZM291.1,225.8l-.8-.6,2.4-3.2.8.6-2.4,3.2ZM295.9,219.3l-.8-.6,2.4-3.2.8.6-2.4,3.2Z"/>
        <polygon class="st40" points="300.7 212.9 299.9 212.3 301 210.7 301.8 211.3 300.7 212.9"/>
      </g>
      <g>
        <polygon class="st40" points="365.2 186.9 364.2 186.8 364.3 184.9 365.3 184.9 365.2 186.9"/>
        <path class="st40" d="M359.8,297.7h-1l.2-4h1l-.2,4ZM360.2,289.8h-1l.2-4h1l-.2,4ZM360.5,281.9h-1l.2-4h1l-.2,4ZM360.9,274h-1l.2-4h1l-.2,4ZM361.3,266.1h-1l.2-4h1l-.2,4ZM361.7,258.1h-1l.2-4h1l-.2,4ZM362.1,250.2h-1l.2-4h1l-.2,4ZM362.5,242.3h-1l.2-4h1l-.2,4ZM362.9,234.4h-1l.2-4h1l-.2,4ZM363.3,226.5h-1l.2-4h1l-.2,4ZM363.7,218.5h-1l.2-4h1l-.2,4ZM364.1,210.6h-1l.2-4h1l-.2,4ZM364.4,202.7h-1l.2-4h1l-.2,4ZM364.8,194.8h-1l.2-4h1l-.2,4Z"/>
        <polygon class="st40" points="359.5 303.7 358.5 303.6 358.6 301.7 359.6 301.7 359.5 303.7"/>
      </g>
      <g>
        <polygon class="st40" points="418.8 218.3 418 217.8 419.1 216.1 419.9 216.7 418.8 218.3"/>
        <path class="st40" d="M362.8,299.5l-.8-.6,2.2-3.1.8.6-2.2,3.1ZM367.1,293.3l-.8-.6,2.2-3.1.8.6-2.2,3.1ZM371.4,287l-.8-.6,2.2-3.1.8.6-2.2,3.1ZM375.7,280.8l-.8-.6,2.2-3.1.8.6-2.2,3.1ZM380,274.5l-.8-.6,2.2-3.1.8.6-2.2,3.1ZM384.3,268.3l-.8-.6,2.2-3.1.8.6-2.2,3.1ZM388.7,262l-.8-.6,2.2-3.1.8.6-2.2,3.1ZM393,255.8l-.8-.6,2.2-3.1.8.6-2.2,3.1ZM397.3,249.5l-.8-.6,2.2-3.1.8.6-2.2,3.1ZM401.6,243.3l-.8-.6,2.2-3.1.8.6-2.2,3.1ZM405.9,237.1l-.8-.6,2.2-3.1.8.6-2.2,3.1ZM410.2,230.8l-.8-.6,2.2-3.1.8.6-2.2,3.1ZM414.5,224.6l-.8-.6,2.2-3.1.8.6-2.2,3.1Z"/>
        <polygon class="st40" points="359.5 304.3 358.7 303.7 359.8 302.1 360.6 302.7 359.5 304.3"/>
      </g>
      <g>
        <polygon class="st40" points="444.7 111.8 443.8 111.5 444.2 109.6 445.2 109.9 444.7 111.8"/>
        <path class="st40" d="M421.4,210.8l-1-.2.9-3.8,1,.2-.9,3.8ZM423.2,203.2l-1-.2.9-3.8,1,.2-.9,3.8ZM425,195.6l-1-.2.9-3.8,1,.2-.9,3.8ZM426.8,188l-1-.2.9-3.8,1,.2-.9,3.8ZM428.5,180.3l-1-.2.9-3.8,1,.2-.9,3.8ZM430.3,172.7l-1-.2.9-3.8,1,.2-.9,3.8ZM432.1,165.1l-1-.2.9-3.8,1,.2-.9,3.8ZM433.9,157.5l-1-.2.9-3.8,1,.2-.9,3.8ZM435.7,149.9l-1-.2.9-3.8,1,.2-.9,3.8ZM437.5,142.2l-1-.2.9-3.8,1,.2-.9,3.8ZM439.3,134.6l-1-.2.9-3.8,1,.2-.9,3.8ZM441.1,127l-1-.2.9-3.8,1,.2-.9,3.8ZM442.9,119.4l-1-.2.9-3.8,1,.2-.9,3.8Z"/>
        <polygon class="st40" points="420 216.5 419.1 216.3 419.5 214.4 420.5 214.6 420 216.5"/>
      </g>
      <g>
        <polygon class="st40" points="366.3 186.6 364.6 185.7 365.1 184.8 366.8 185.8 366.3 186.6"/>
        <path class="st40" d="M414.2,213.9l-3.4-2,.5-.8,3.4,2-.5.8ZM407.3,210l-3.4-2,.5-.8,3.4,2-.5.8ZM400.5,206.1l-3.4-2,.5-.8,3.4,2-.5.8ZM393.7,202.2l-3.4-2,.5-.8,3.4,2-.5.8ZM386.8,198.3l-3.4-2,.5-.8,3.4,2-.5.8ZM380,194.4l-3.4-2,.5-.8,3.4,2-.5.8ZM373.1,190.5l-3.4-2,.5-.8,3.4,2-.5.8Z"/>
        <polygon class="st40" points="419.3 216.8 417.6 215.9 418.1 215 419.8 216 419.3 216.8"/>
      </g>
      <g>
        <rect class="st40" x="352.6" y="98.2" width="1" height="2" transform="translate(-10.5 50.7) rotate(-8.1)"/>
        <path class="st40" d="M363.9,179.5l-.6-4h1c0-.1.6,3.8.6,3.8h-1v.2ZM362.8,171.6l-.6-4h1c0-.1.6,3.8.6,3.8h-1v.2ZM361.7,163.7l-.6-4h1c0-.1.6,3.8.6,3.8h-1v.2ZM360.5,155.8l-.6-4h1c0-.1.6,3.8.6,3.8h-1v.2ZM359.4,147.8l-.6-4h1c0-.1.6,3.8.6,3.8h-1v.2ZM358.3,139.9l-.6-4h1c0-.1.6,3.8.6,3.8h-1v.2ZM357.2,132l-.6-4h1c0,0,.6,3.8.6,3.8h-1v.2ZM356,124.1l-.6-4h1c0,0,.6,3.8.6,3.8h-1v.2ZM354.9,116.1l-.6-4h1c0,0,.6,3.8.6,3.8h-1v.2ZM353.8,108.2l-.6-4h1c0,0,.6,3.8.6,3.8h-1v.2Z"/>
        <rect class="st40" x="364.6" y="183.2" width="1" height="2" transform="translate(-22.3 53.3) rotate(-8.1)"/>
      </g>
      <g>
        <polygon class="st40" points="258.9 124.1 257.2 123.1 257.7 122.3 259.4 123.3 258.9 124.1"/>
        <path class="st40" d="M360,182.8l-3.4-2,.5-.8,3.4,2-.5.8ZM353.2,178.9l-3.4-2,.5-.8,3.4,2-.5.8ZM346.5,175l-3.4-2,.5-.8,3.4,2-.5.8ZM339.7,171.1l-3.4-2,.5-.8,3.4,2-.5.8ZM333,167.2l-3.4-2,.5-.8,3.4,2-.5.8ZM326.3,163.3l-3.4-2,.5-.8,3.4,2-.5.8ZM319.5,159.3l-3.4-2,.5-.8,3.4,2-.5.8ZM312.8,155.4l-3.4-2,.5-.8,3.4,2-.5.8ZM306,151.5l-3.4-2,.5-.8,3.4,2-.5.8ZM299.3,147.6l-3.4-2,.5-.8,3.4,2-.5.8ZM292.6,143.7l-3.4-2,.5-.8,3.4,2-.5.8ZM285.8,139.8l-3.4-2,.5-.8,3.4,2-.5.8ZM279.1,135.8l-3.4-2,.5-.8,3.4,2-.5.8ZM272.4,131.9l-3.4-2,.5-.8,3.4,2-.5.8ZM265.6,128l-3.4-2,.5-.8,3.4,2-.5.8Z"/>
        <polygon class="st40" points="365 185.8 363.3 184.8 363.8 184 365.5 184.9 365 185.8"/>
      </g>
      <g>
        <rect class="st40" x="489.5" y="196.7" width="1.9" height="1" transform="translate(-34.8 137.3) rotate(-15.4)"/>
        <path class="st40" d="M425.1,215.4l-.3-.9,3.6-1,.3.9-3.6,1ZM432.3,213.4l-.3-.9,3.6-1,.3.9-3.6,1ZM439.5,211.4l-.3-.9,3.6-1,.3.9-3.6,1ZM446.7,209.5l-.3-.9,3.6-1,.3.9-3.6,1ZM453.8,207.5l-.3-.9,3.6-1,.3.9-3.6,1ZM461,205.5l-.3-.9,3.6-1,.3.9-3.6,1ZM468.2,203.5l-.3-.9,3.6-1,.3.9-3.6,1ZM475.3,201.5l-.3-.9,3.6-1,.3.9-3.6,1ZM482.5,199.6l-.3-.9,3.6-1,.3.9-3.6,1Z"/>
        <rect class="st40" x="419.4" y="216" width="2" height="1" transform="translate(-42.4 119.4) rotate(-15.4)"/>
      </g>
      <g>
        <polygon class="st40" points="443.6 111.5 442.9 110.7 444.3 109.4 445 110.1 443.6 111.5"/>
        <path class="st40" d="M369.8,181.7l-.7-.7,2.8-2.7.7.7-2.8,2.7ZM375.5,176.3l-.7-.7,2.8-2.7.7.7-2.8,2.7ZM381.2,170.9l-.7-.7,2.8-2.7.7.7-2.8,2.7ZM386.9,165.5l-.7-.7,2.8-2.7.7.7-2.8,2.7ZM392.5,160.1l-.7-.7,2.8-2.7.7.7-2.8,2.7ZM398.2,154.7l-.7-.7,2.8-2.7.7.7-2.8,2.7ZM403.9,149.3l-.7-.7,2.8-2.7.7.7-2.8,2.7ZM409.6,143.9l-.7-.7,2.8-2.7.7.7-2.8,2.7ZM415.2,138.5l-.7-.7,2.8-2.7.7.7-2.8,2.7ZM420.9,133.1l-.7-.7,2.8-2.7.7.7-2.8,2.7ZM426.6,127.7l-.7-.7,2.8-2.7.7.7-2.8,2.7ZM432.3,122.3l-.7-.7,2.8-2.7.7.7-2.8,2.7ZM437.9,116.9l-.7-.7,2.8-2.7.7.7-2.8,2.7Z"/>
        <polygon class="st40" points="365.6 185.7 364.9 185 366.3 183.7 367 184.4 365.6 185.7"/>
      </g>
      <g>
        <rect class="st40" x="454.6" y="288.9" width="1" height="2" transform="translate(-80.9 227.9) rotate(-25.9)"/>
        <path class="st40" d="M452.6,285.6l-1.6-3.4.9-.4,1.6,3.4-.9.4ZM449.3,278.9l-1.6-3.4.9-.4,1.6,3.4-.9.4ZM446,272.2l-1.6-3.4.9-.4,1.6,3.4-.9.4ZM442.8,265.5l-1.6-3.4.9-.4,1.6,3.4-.9.4ZM439.5,258.7l-1.6-3.4.9-.4,1.6,3.4-.9.4ZM436.3,252l-1.6-3.4.9-.4,1.6,3.4-.9.4ZM433,245.3l-1.6-3.4.9-.4,1.6,3.4-.9.4ZM429.7,238.6l-1.6-3.4.9-.4,1.6,3.4-.9.4ZM426.5,231.8l-1.6-3.4.9-.4,1.6,3.4-.9.4ZM423.2,225.1l-1.6-3.4.9-.4,1.6,3.4-.9.4Z"/>
        <rect class="st40" x="419.4" y="216.1" width="1" height="1.9" transform="translate(-52.6 206.1) rotate(-26)"/>
      </g>
    </g>
    <g>
      <g>
        <path class="st31" d="M400.9,216.4c0-10.1,8.2-18.3,18.3-18.3s18.3,8.2,18.3,18.3-8.2,18.3-18.3,18.3-18.3-8.2-18.3-18.3Z"/>
        <path class="st46" d="M404.4,216.4c0-8.2,6.6-14.8,14.8-14.8s14.8,6.6,14.8,14.8-6.6,14.8-14.8,14.8-14.8-6.6-14.8-14.8Z"/>
      </g>
      <g>
        <path class="st31" d="M352.3,185.4c0-7.1,5.7-12.8,12.8-12.8s12.8,5.7,12.8,12.8-5.7,12.8-12.8,12.8-12.8-5.7-12.8-12.8Z"/>
        <path class="st46" d="M354.8,185.4c0-5.7,4.6-10.4,10.4-10.4s10.4,4.6,10.4,10.4-4.6,10.4-10.4,10.4-10.4-4.6-10.4-10.4Z"/>
      </g>
      <g>
        <path class="st31" d="M459.7,196.7c0-16.1,13.1-29.2,29.2-29.2s29.2,13.1,29.2,29.2-13.1,29.2-29.2,29.2-29.2-13.1-29.2-29.2Z"/>
        <path class="st46" d="M465.3,196.7c0-13,10.5-23.6,23.6-23.6s23.6,10.5,23.6,23.6-10.5,23.6-23.6,23.6-23.6-10.5-23.6-23.6Z"/>
      </g>
      <g>
        <path class="st31" d="M430.2,108.9c0-7.6,6.1-13.7,13.7-13.7s13.7,6.1,13.7,13.7-6.1,13.7-13.7,13.7-13.7-6.1-13.7-13.7Z"/>
        <path class="st46" d="M432.9,108.9c0-6.1,5-11.1,11.1-11.1s11.1,5,11.1,11.1-5,11.1-11.1,11.1-11.1-5-11.1-11.1Z"/>
      </g>
      <g>
        <path class="st31" d="M435.9,287.2c0-10.6,8.6-19.1,19.2-19.1s19.1,8.6,19.1,19.1-8.6,19.2-19.1,19.2-19.2-8.6-19.2-19.2Z"/>
        <path class="st46" d="M439.6,287.2c0-8.5,6.9-15.5,15.5-15.5s15.5,6.9,15.5,15.5-6.9,15.5-15.5,15.5-15.5-6.9-15.5-15.5Z"/>
      </g>
      <g>
        <path class="st31" d="M327,299.8c0-17.9,14.5-32.5,32.5-32.5s32.5,14.5,32.5,32.5-14.5,32.5-32.5,32.5-32.5-14.5-32.5-32.5Z"/>
        <path class="st46" d="M333.2,299.8c0-14.5,11.7-26.2,26.2-26.2s26.2,11.7,26.2,26.2-11.7,26.2-26.2,26.2-26.2-11.7-26.2-26.2Z"/>
      </g>
      <g>
        <path class="st31" d="M231.6,284c0-9.4,7.7-17.1,17.1-17.1s17.1,7.7,17.1,17.1-7.7,17.1-17.1,17.1-17.1-7.7-17.1-17.1Z"/>
        <path class="st46" d="M234.9,284c0-7.6,6.2-13.8,13.8-13.8s13.8,6.2,13.8,13.8-6.2,13.8-13.8,13.8-13.8-6.2-13.8-13.8Z"/>
      </g>
      <g>
        <path class="st31" d="M116.4,304c0-14.6,11.8-26.4,26.4-26.4s26.4,11.8,26.4,26.4-11.8,26.4-26.4,26.4-26.4-11.8-26.4-26.4Z"/>
        <path class="st46" d="M121.4,304c0-11.8,9.6-21.3,21.3-21.3s21.3,9.6,21.3,21.3-9.6,21.3-21.3,21.3-21.3-9.6-21.3-21.3Z"/>
      </g>
      <g>
        <path class="st31" d="M172.5,203.2c0-9.2,7.5-16.7,16.7-16.7s16.7,7.5,16.7,16.7-7.5,16.7-16.7,16.7-16.7-7.5-16.7-16.7Z"/>
        <path class="st46" d="M175.7,203.2c0-7.4,6-13.5,13.5-13.5s13.5,6,13.5,13.5-6,13.5-13.5,13.5-13.5-6-13.5-13.5Z"/>
      </g>
      <g>
        <path class="st31" d="M50.5,207.8c0-22.7,18.4-41.1,41.1-41.1s41.1,18.4,41.1,41.1-18.4,41.1-41.1,41.1-41.1-18.4-41.1-41.1h0Z"/>
        <path class="st46" d="M58.4,207.8c0-18.3,14.9-33.2,33.2-33.2s33.2,14.9,33.2,33.2-14.9,33.2-33.2,33.2-33.2-14.9-33.2-33.2Z"/>
      </g>
      <g>
        <path class="st31" d="M124.8,107.6c0-10.2,8.3-18.5,18.5-18.5s18.5,8.3,18.5,18.5-8.3,18.5-18.5,18.5-18.5-8.3-18.5-18.5Z"/>
        <path class="st46" d="M128.4,107.6c0-8.3,6.7-15,15-15s15,6.7,15,15-6.7,15-15,15-15-6.7-15-15Z"/>
      </g>
      <g>
        <path class="st31" d="M238.7,122.9c0-9.7,7.9-17.7,17.7-17.7s17.7,7.9,17.7,17.7-7.9,17.7-17.7,17.7-17.7-7.9-17.7-17.7Z"/>
        <path class="st46" d="M242.1,122.9c0-7.9,6.4-14.3,14.3-14.3s14.3,6.4,14.3,14.3-6.4,14.3-14.3,14.3-14.3-6.4-14.3-14.3h0Z"/>
      </g>
      <g>
        <path class="st31" d="M321.7,97.9c0-16.6,13.5-30.1,30.1-30.1s30.1,13.5,30.1,30.1-13.5,30.1-30.1,30.1-30.1-13.5-30.1-30.1Z"/>
        <path class="st46" d="M327.5,97.9c0-13.4,10.9-24.3,24.4-24.3s24.3,10.9,24.3,24.3-10.9,24.4-24.3,24.4-24.4-10.9-24.4-24.4Z"/>
      </g>
      <g>
        <path class="st31" d="M257.5,200.8c0-20.4,16.5-36.9,36.9-36.9s36.9,16.5,36.9,36.9-16.5,36.9-36.9,36.9-36.9-16.5-36.9-36.9h0Z"/>
        <path class="st46" d="M264.6,200.8c0-16.5,13.3-29.8,29.8-29.8s29.8,13.3,29.8,29.8-13.3,29.8-29.8,29.8-29.8-13.3-29.8-29.8Z"/>
      </g>
    </g>
    <g>
      <g class="st45">
        <g>
          <rect class="st3" x="141.9" y="105.4" width="3.5" height="5.9"/>
          <path class="st38" d="M145.4,109.2l-1.8,2.2-1.7-2.2-6,3.2c-.7.4-1,1.1-.9,1.8l.9,7c2.4,1.3,5.2,1.8,8.1,1.8s5.1-.8,7.2-1.8l.8-7.4c0-.4-.2-.9-.5-1.1l-6.1-3.5Z"/>
          <path class="st35" d="M144.5,111.8l-.6-.7h-.6l-.6.7.5.7-.3,10.4h1.1c.4,0,.2,0,.2,0l-.2-10.5.5-.7h0Z"/>
          <polygon class="st32" points="143.5 111.2 141.8 112.5 140.9 112.5 141.6 109.3 141.8 108.4 141.9 108.4 143.5 111.2"/>
          <polygon class="st32" points="143.8 111.2 145.4 112.5 146.4 112.5 145.6 109.3 145.4 108.4 145.4 108.4 143.8 111.2"/>
          <path class="st30" d="M143.3,109c.2.2.4.2.6,0l1.7-2.2h-4l1.7,2.2Z"/>
          <path class="st3" d="M147,103.2s-.2,0-.2,0v-1.3c0-1.5-1.6-2.8-3.1-2.8h0c-1.5,0-3.2,1.3-3.2,2.8v1.3c0,0-.2-.2-.2-.2-.2,0-.3.4-.2.8,0,.4.3.7.4.7h0c.6,1.6,1.6,3.4,3.1,3.4h0c1.5,0,2.5-1.8,3.1-3.4h0c.2,0,.4-.3.4-.7s0-.8-.2-.8h0Z"/>
          <path class="st3" d="M146.8,104.7h0c.2,0,.4-.3.4-.7s0-.8-.2-.8c0,0-.2,0-.2,0v-.4c-1.6-.8-2.4.5-2.4.5v2.3c.1,0-.6,0-.6,0v2.3c1.4,0,2.4-1.8,3-3.4h0Z"/>
          <path class="st38" d="M150.3,113.2c-.5.6-.4,2.8,0,4.3.2.8.6,2,1,3.7.7-.4,1.5-.8,2.1-1.3-.3-1.8-.5-3.1-.8-4.7-.4-2.4-1.1-2.7-1.6-2.5-.4,0-.6.4-.7.5Z"/>
          <path class="st38" d="M136.8,113.2c.5.6.4,2.8,0,4.3-.2.8-.6,2-1,3.7-.7-.4-1.5-.8-2.1-1.3.3-1.8.5-3.1.8-4.7.4-2.4,1.1-2.7,1.6-2.5.4,0,.6.4.7.5Z"/>
          <path class="st33" d="M144.2,97.3c-.5,0-.8,0-.9,0-2.6-.3-3.8,2.1-3.6,4.1v.2h0s.8,2.5,1,3.1l-.2-2.4s-.1-2,2.2-1.6c1.9.3,1.8.4,2.6.3s1.3.2,1.3,1.4v1.8s.6-2.4.7-3.4v-.4h0c0-.3,0-.5-.1-.8h0s-.5-2-2.9-2.1h-.1Z"/>
        </g>
      </g>
      <g class="st21">
        <g>
          <g>
            <rect class="st3" x="485.9" y="192" width="5.9" height="10.5"/>
            <g>
              <path class="st30" d="M488.6,198.1c.2.3.6.3.9,0l2.7-3.5h-6.2l2.7,3.5h-.1Z"/>
              <g>
                <path class="st3" d="M494.4,189.1c-.1,0-.2,0-.3.2v-2.1c0-2.4-2.5-4.3-4.9-4.3h0c-2.4,0-4.9,2-4.9,4.3v2.1c-.1-.2-.3-.3-.4-.3-.3,0-.4.6-.3,1.3.1.6.4,1.1.7,1.1h0c.9,2.5,2.6,5.3,4.9,5.3h0c2.3,0,3.9-2.8,4.8-5.3h0c.3,0,.6-.4.7-1.1.1-.6,0-1.2-.3-1.3h0Z"/>
                <path class="st3" d="M494,191.4h0c.3,0,.6-.4.7-1.1.1-.6,0-1.2-.3-1.3-.1,0-.2,0-.3.2v-.6c-2.5-1.2-3.8.7-3.8.7l.2,3.5h-1.2v3.7c2.2-.2,3.8-2.8,4.7-5.3v.2Z"/>
                <path class="st33" d="M493.7,190.8s0,.1-.1-.5c-.1-.8,0-1.5-.3-1.9-.5-.7.2-1.7-.7-2.6,0,0-.2-.5-1.2-.1s-3.2.7-4.7,0c0,0-1.5,0-1.5,1.9,0,0,0,.6-.4,1.2v1.6c0,.3-.1.5-.2.4,0,0,0-.4-.4-1.7-.3-1.1-1-2.3-1.1-2.7-.2-1.2.5-6,6.5-5.9,0,0,3.4,0,3.5,2,0,0,1.5-.7,2,1.3.2.8.5,1.4,0,3.3-.2.6-.6,1.1-.7,1.6-.4,1.7-.3,1.6-.5,2h-.2Z"/>
              </g>
            </g>
          </g>
          <path class="st43" d="M491.8,198.2l-2.9,4.2-3-3.8-10.7,4.1c-.7.3-1.1,1-1,1.8l2.6,13.8c3.7,1.8,7.9,2.8,12.3,2.8s8.5-1,12.2-2.8l2.2-14c.1-.7-.3-1.5-1-1.8l-10.7-4.4h0Z"/>
          <path class="st35" d="M490.4,202.7l-1-1h-1l-1.2,1,.7,1.8.2,16.5h2.1l-.4-16.6.6-1.8h0Z"/>
          <polygon class="st8" points="488.5 201.8 483.9 205.3 485.4 198.8 485.8 197.6 485.9 197.6 486.3 199 488.5 201.8"/>
          <polygon class="st8" points="489.1 201.8 493.7 205.3 492.2 198.8 491.8 197.6 491.8 197.6 491.2 199 489.1 201.8"/>
          <path class="st43" d="M505.1,209.9s-.7-5.9-2.3-7c-1.2-.8-2.8-.5-3,4.9,0,2.8.6,7.6,1.2,10.7,1.5-.8,3.5-2.1,4.8-3.1-.1-1.8-.5-4.3-.6-5.5h-.1Z"/>
          <path class="st43" d="M472.5,209.9s.7-5.9,2.3-7c1.2-.8,2.8-.5,3,4.9,0,2.8-.6,7.6-1.2,10.7-1.5-.8-3.5-2.1-4.8-3.1.1-1.8.5-4.3.6-5.5h.1Z"/>
          <g>
            <g>
              <path class="st38" d="M475.1,202.5c-.8.3-1.3,1.2-1.1,2l2.6,13.8h0c3.1,1.6,6.4,2.5,9.9,2.8l-1.1-22.4h-.5l-9.8,3.7h0Z"/>
              <path class="st38" d="M502.5,202.4l-9.9-4h-.6l.7,22.7c3-.4,5.9-1.2,8.6-2.5h0l2.2-14.2c.1-.8-.3-1.7-1.1-2h0Z"/>
            </g>
            <path class="st38" d="M505.9,215.3c0-1.1-.3-2.5-.4-3.7,0-.7-.2-1.3-.2-1.7h0c0-.2-.7-6-2.4-7.2-.6-.4-1.2-.5-1.6-.2-1,.5-1.5,2.3-1.7,5.2-.1,3.3.9,9.1,1.2,10.8v.3h.3c1.5-.9,3.5-2.2,4.8-3.2h0v-.2h0Z"/>
            <path class="st38" d="M478,207.7c-.1-3-.7-4.7-1.7-5.2-.5-.3-1.1-.2-1.6.2-1.7,1.1-2.4,6.9-2.4,7.2h0c0,.4-.1,1.1-.2,1.7-.2,1.2-.3,2.6-.4,3.7h0v.2c1.3,1,3.3,2.4,4.8,3.1h.2c0,.1,0-.1,0-.1.3-1.7,1.3-7.5,1.2-10.8h.1Z"/>
          </g>
        </g>
      </g>
      <g class="st24">
        <g>
          <g>
            <g>
              <path class="st3" d="M290.3,198.8v14.4c1.6.1,3.2.2,4.9.2h3.4v-14.5h-8.3Z"/>
              <path class="st30" d="M293.7,209.1c.4.5,1.1.5,1.5,0l4.6-6h-10.7l4.6,6Z"/>
              <path class="st3" d="M303.6,193.5c-.2,0-.4.1-.6.4v-3.5c0-4.1-4.3-7.4-8.4-7.5h0c-4.1,0-8.5,3.4-8.5,7.5v3.6c-.2-.3-.4-.5-.7-.4-.5,0-.7,1-.5,2.2.2,1.1.7,2,1.2,1.9h.1c1.6,4.3,4.4,9.1,8.4,9.2h0c4-.1,6.7-4.8,8.3-9.2h0c.5,0,1-.8,1.2-1.9.2-1.1,0-2.1-.5-2.2h0Z"/>
              <path class="st3" d="M302.9,197.5h0c.5,0,1-.8,1.2-1.9.2-1.1,0-2.1-.5-2.2-.2,0-.4.1-.6.4v-1c-4.3-2.1-6.5,1.3-6.5,1.3l.3,6-2,.2v6.3c3.8-.3,6.5-4.9,8.1-9.1Z"/>
              <path class="st33" d="M297.5,186.7s-2.5,2.8-6.5,4.7c-2.8,1.3-3.2,8.7-2.3,11.1.1.3.9,1.4.9,1.4l.9.9v3h-7s0-10.1.2-13.4c.2-2.3.7-5.4,2.6-8.7,1.4-2.4,6.8-8.3,11.1-3.5,0,0,4.8-3,6.7,7.5,0,0,.6,3.7,0,7.3-.2,1.1.2,4,.2,4l.7,6.7h-6.5v-3.1c.1,0,1.4-1.4,2.5-3,.4-.6.6-1.1.7-1.6.3-1.1.5-2.9.3-4.7-.3-2.7-1.5-5.8-4.5-8.7h0Z"/>
            </g>
            <g>
              <polygon class="st3" points="313.8 219.2 312.7 216.9 304.9 213.1 298.7 209.3 294.5 209.3 290.3 209.3 284.1 213.1 277.4 216.9 276.2 219.2 275 226 292.5 231.2 297.1 231.1 315.1 226 313.8 219.2"/>
              <polygon class="st32" points="307.6 228.2 302.4 217.9 303.7 212.4 302.4 211.6 299.9 217.5 294.8 217.5 294.5 217.5 289.1 217.5 286.6 211.6 285.3 212.4 286.6 217.9 281.4 228.2 291.9 231.1 294.5 231.1 294.5 231.1 294.6 231.1 294.8 231.1 294.8 231.1 297.1 231.1 307.6 228.2"/>
            </g>
          </g>
          <g>
            <path class="st38" d="M290.3,209.2h-.7c0,.1-11.7,6.8-11.7,6.8-.4.2-.6.7-.6,1.2l1.7,11.4c4.5,2,9.4,3.2,14.6,3.4l-3.4-22.7h.1Z"/>
            <path class="st38" d="M281.2,218.2c-.3-1.5-2.6-2.8-3.6-1.9-1,.9-2.4,3.3-3.5,6.2-.3.8-.6,1.5-.8,2.3,2.1,2,3.9,3.3,6.7,4.2.1-.3.3-.8.4-1.1,0,0,1.6-5.4.8-9.6h0Z"/>
          </g>
          <g>
            <path class="st38" d="M298.7,209.2l-2.8,22.8c5.2-.1,10.1-1.2,14.6-3.2l2-11.2c.1-.6.2-1.1-.4-1.4l-12.6-6.8-1-.3h.2Z"/>
            <path class="st38" d="M308.7,217.6c-2.4,5.1-.6,10.1-.1,12,2.4-.9,4.8-2,7-3.4-.2-1-.4-2.1-.6-3.3-1-6.4-2.8-7.3-4.3-6.9-1.1.3-1.7.9-2,1.5h0Z"/>
          </g>
        </g>
      </g>
      <g class="st22">
        <g>
          <g>
            <rect class="st3" x="348.8" y="93.2" width="6.1" height="10.8"/>
            <path class="st38" d="M354.9,99.6l-3,4.3-3.1-3.9-11,4.2c-.7.3-1.2,1.1-1,1.9l2.7,14.1c3.8,1.9,8.1,2.9,12.7,2.9s8.7-1,12.5-2.8l2.3-14.4c.1-.8-.3-1.5-1-1.8l-10.9-4.5h-.2Z"/>
            <path class="st35" d="M353.4,104.2l-1-1h-1l-1.2,1,.7,1.9.2,16.9h2.3l-.4-17,.6-1.9h-.2Z"/>
            <polygon class="st1" points="351.6 103.2 346.9 106.8 348.4 100.2 348.8 99 348.8 99 349.3 100.4 351.6 103.2"/>
            <polygon class="st1" points="352.2 103.2 356.9 106.8 355.4 100.2 354.9 99 354.9 99 354.3 100.4 352.2 103.2"/>
            <path class="st38" d="M368.6,111.6s-.7-6.1-2.4-7.2c-1.2-.8-2.9-.5-3.1,5-.1,2.8.6,7.8,1.2,11,1.5-.8,3.5-2.2,4.9-3.2-.1-1.8-.5-4.4-.6-5.6Z"/>
            <path class="st38" d="M335.1,111.6s.7-6.1,2.4-7.2c1.2-.8,2.9-.5,3.1,5,.1,2.8-.6,7.8-1.2,11-1.5-.8-3.5-2.2-4.9-3.2.1-1.8.5-4.4.6-5.6Z"/>
          </g>
          <g>
            <path class="st30" d="M351.5,99.8c.3.4.7.4,1,0l3.1-4h-7.1l3.1,4h-.1Z"/>
            <path class="st3" d="M358.1,89.4c-.1,0-.3,0-.4.2v-2.3c0-2.7-2.9-4.9-5.6-5h0c-2.7,0-5.6,2.3-5.6,5v2.4c-.1-.2-.3-.3-.4-.3-.3,0-.5.7-.4,1.4.1.7.5,1.3.8,1.3h0c1.1,2.9,2.9,6,5.6,6.1h0c2.6,0,4.4-3.2,5.5-6.1h0c.3,0,.7-.5.8-1.3.1-.7,0-1.4-.4-1.4h.1Z"/>
            <path class="st3" d="M357.6,92.1h0c.3,0,.7-.5.8-1.3.1-.7,0-1.4-.4-1.4s-.3,0-.4.2v-.6c-2.9-1.4-4.3.8-4.3.8l.2,4h-1.3v4.3c2.5-.2,4.3-3.2,5.4-6.1h0Z"/>
            <path class="st33" d="M358.7,84.1c-.1-.3-.5-.9-.8-1-.2,0-1,0-1,0,0,0-.4-1-.7-1.2-2.3-2.1-9.9-1.5-10.7,6.3h.5l.3,1.4.7-1.5c2.7-.3,8.1-1.1,9.6-3l1.1,4.5s.9-2.5,1-3.3c0-.6.2-1.8,0-2.3Z"/>
          </g>
        </g>
      </g>
      <g class="st23">
        <g>
          <g>
            <rect class="st3" x="139.7" y="300.9" width="6.7" height="10.8"/>
            <g>
              <path class="st30" d="M142.5,306.9c.3.3.7.3.9,0l2.7-3.6h-6.4l2.7,3.6h.1Z"/>
              <g>
                <path class="st3" d="M148.4,297.6c-.1,0-.2,0-.3.2v-2.1c0-2.4-2.6-4.4-5-4.4h0c-2.4,0-5,2-5,4.4v2.1c-.1-.2-.3-.3-.4-.3-.3,0-.4.6-.3,1.3,0,.7.4,1.2.7,1.1h0c.9,2.6,2.6,5.4,5,5.4h0c2.3,0,4-2.9,4.9-5.4h0c.3,0,.6-.5.7-1.1.1-.7,0-1.2-.3-1.3h0Z"/>
                <path class="st33" d="M138,298.7l1.2-4.4h7.5l1.2,4.2s1.3-4.5.8-5.9c-.1-.4-.7-1-1.1-1s-.7.4-.7.4c0,0-1.1-1.4-1.6-1.7-.7-.4-2.4-.9-3.2-1-.8,0-2.5,0-3.3.4-1,.5-3.3,3.1-3.3,3.1h1.8s-.5.4-.5.6c-.4,1.3,1.1,5.2,1.1,5.2h.1Z"/>
              </g>
            </g>
          </g>
          <g>
            <g>
              <path class="st38" d="M159,321.5c-.4-2.6-.7-4.8-1-6.8-.5-3-1.2-4-1.9-4.3h0l-8.9-3.1c-.1,2.8-1.7,4.9-3.9,4.9s-4.1-2.2-4.2-5l-9.8,3.1h0c-.8.2-1.6,1.2-2.1,4.3-.2,1.5-.5,3-.7,4.8,1.1,1,3.7,2.7,3.7,2.7h0c4,2.4,8.7,3.9,13.8,3.9s7.8-.9,11.2-2.5h0c1.3-.6,2.5-1.3,3.7-2h0Z"/>
              <g>
                <path class="st12" d="M126.6,318.8h32.1v-.5h-31.9v.5h-.2Z"/>
                <path class="st12" d="M128.2,320.7h30.7v-.5h-31.3c.2.2.4.4.7.5h0Z"/>
                <path class="st12" d="M130.3,322.1c.3.2.5.3.8.5h26c.3-.2.6-.4.9-.5h-27.7Z"/>
                <path class="st12" d="M135.3,324.5h17.7c.4-.2.9-.3,1.3-.5h-20.3c.4.2.9.4,1.4.5h0Z"/>
                <path class="st12" d="M143.2,311.2c-.5,0-1-.2-1.4-.4h-13.2c-.1.1-.2.3-.4.5h28.9c-.1-.2-.2-.4-.4-.5h-12.1c-.4.3-.9.4-1.4.4h0Z"/>
                <path class="st12" d="M146.1,308.9c0,.2-.1.4-.2.5h7.6l-1.5-.5h-5.9Z"/>
                <path class="st12" d="M140.1,308.9h-6.5l-1.7.5h8.5c0-.2-.2-.3-.3-.5Z"/>
                <path class="st12" d="M127.5,313.2h30.2c0-.2,0-.4-.1-.5h-30c0,.2,0,.3,0,.5Z"/>
                <path class="st12" d="M127.2,314.6v.5h30.9v-.4h-30.9Z"/>
                <path class="st12" d="M126.9,317h31.5v-.5h-31.4v.5h0Z"/>
              </g>
            </g>
            <path class="st6" d="M143.3,312.2c2.2,0,3.8-2.1,3.9-4.9l-.8-.3c0,2.4-1.4,4.2-3.2,4.2s-3.5-1.8-3.5-4.2l-.6.2c0,2.9,2,5,4.2,5h0Z"/>
          </g>
        </g>
      </g>
      <g class="st29">
        <g>
          <g>
            <rect class="st3" x="417.5" y="214.8" width="3.5" height="6.5"/>
            <g>
              <path class="st30" d="M418.9,218.3c.2.2.5.2.6,0l1.9-2.5h-4.5l1.9,2.5h.1Z"/>
              <path class="st3" d="M423,211.7s-.2,0-.2.2v-1.5c0-1.7-1.8-3.1-3.5-3.1h0c-1.7,0-3.6,1.4-3.6,3.1v1.5c0-.1-.2-.2-.3-.2-.2,0-.3.4-.2.9,0,.5.3.8.5.8h0c.7,1.8,1.9,3.8,3.5,3.9h0c1.7,0,2.8-2,3.5-3.9h0c.2,0,.4-.3.5-.8,0-.5,0-.9-.2-.9h0Z"/>
              <path class="st33" d="M416,211.4v1.3s-1-2.6-.7-3.4c0-.2.3-.4.3-.4,0,0-.1,0-.3.1-.1.1-.3.4-.3.4,0,0,0-.4.2-.9.5-1,1.1-1.6,1.5-1.8.5-.2,1.8-.4,2.4-.4s1.7.4,2.2.7c.3.2,1,1.3,1,1.3,0,0,.4,0,.7.2.4.3.1.8,0,1.1,0,.9-.3,2.9-.3,2.9l-.8-2.2v-1.2s-1-1.7-2.8-1.7-3.1,1.7-3.1,1.7v2.3h0Z"/>
              <g>
                <path class="st34" d="M419.6,212.1s0-.2.2-.2h2s.1,0,.1.3v1.1s0,.2-.1.2h-2s-.2,0-.2-.3v-1.1Z"/>
                <path class="st34" d="M416.4,212.1s0-.2.2-.2h2s.1,0,.1.3v1.1s0,.2-.1.2h-2s-.2,0-.2-.3v-1.1Z"/>
                <path class="st7" d="M422.8,211.8v-.2l-.9.4s-.1-.2-.2-.2h-2c-.1,0-.2.1-.2.2v.2h-.7v-.2c0-.1,0-.2-.2-.2h-2s-.2,0-.2.2l-.8-.4v.2l.8.3v1.1c0,.1,0,.2.2.2h2c.1,0,.2-.1.2-.2v-.8h.7v.8c0,.1,0,.2.2.2h2c.1,0,.2-.1.2-.2v-1.1l.9-.4h0ZM418.7,213.2c0,.1,0,.2-.2.2h-1.9c-.1,0-.2,0-.2-.2v-1c0-.1,0-.2.2-.2h1.9c.1,0,.2,0,.2.2v1ZM421.8,213.2c0,.1,0,.2-.2.2h-1.9c-.1,0-.2,0-.2-.2v-.8h0v-.2c0-.1,0-.2.2-.2h1.9c.1,0,.2,0,.2.2v1Z"/>
              </g>
            </g>
          </g>
          <path class="st38" d="M421,218.5s0,2.3-1.7,2.3-1.8-2.3-1.8-2.3l-6.2,2.5c-.4.2-.7.6-.6,1l1.5,8c2.2,1.1,4.6,1.6,7.2,1.6s4.9-.6,7.1-1.6l1.3-8.1c0-.4-.2-.9-.6-1l-6.2-2.4h0Z"/>
          <path class="st38" d="M428.7,225.2s-.4-3.4-1.3-4.1c-.7-.5-1.6-.3-1.7,2.8,0,1.6.3,4.4.7,6.2.8-.4,2-1.2,2.8-1.8,0-1-.3-2.5-.4-3.2h-.1Z"/>
          <path class="st38" d="M409.8,225.2s.4-3.4,1.3-4.1c.7-.5,1.6-.3,1.7,2.8,0,1.6-.3,4.4-.7,6.2-.8-.4-2-1.2-2.8-1.8,0-1,.3-2.5.4-3.2h.1Z"/>
          <path class="st20" d="M421.4,218.7l-.5-.2s0,2.3-1.7,2.3-1.8-2.3-1.8-2.3l-.5.2v.6h0c.2,1,.8,2.1,2.2,2.1s2-1.1,2.2-2.1v-.6h0Z"/>
        </g>
      </g>
      <g class="st26">
        <g>
          <g>
            <rect class="st3" x="187.4" y="205.2" width="3.5" height="3.3"/>
            <path class="st32" d="M191.6,206h-.6l-1.8,1.9-1.8-1.9h-.6c-5.6.8-6.6,3.4-7.5,7.5.7.5,3.1,1.9,3.9,2.3h0c1.6.7,2.8,1.1,4.7,1.1h2.2c1.9,0,3.2-.4,4.8-1.1h0c.8-.3,3.3-1.8,4-2.3-.9-4.1-1.8-6.7-7.5-7.5h.2Z"/>
            <polygon class="st6" points="189.6 209.1 189.9 208.5 189.2 207.8 188.5 208.5 188.9 209.1 188.6 217 189.8 217 189.6 209.1"/>
            <path class="st39" d="M179.2,213.5h0c.8.6,3.2,2,4,2.4h0c1.6.7,2.8,1.1,4.6,1.1h1l-1.6-11h-.6c-1,0-3.9.6-5.4,2.2-1.2,1.3-1.8,3.4-2,5.4h0Z"/>
            <path class="st39" d="M199.2,213.5h0c-.8.6-3.2,2-4,2.4h0c-1.6.7-2.8,1.1-4.6,1.1h-1l1.6-11h.7c1,0,3.9.6,5.4,2.2,1.2,1.3,1.8,3.4,2,5.4h0Z"/>
            <g>
              <polygon class="st8" points="187.4 205.7 189.2 207.8 188.1 209 187.2 205.9 187.4 205.7"/>
              <polygon class="st8" points="191 205.7 189.2 207.8 190.4 209 191.2 205.9 191 205.7"/>
            </g>
          </g>
          <g>
            <path class="st3" d="M193.3,200v-1c.1-.2,0-.4-.3-.4s0,0-.1,0c-.3-1.7-1.7-3-3.5-3s-3.3,1.3-3.5,3.1h-.2c-.2,0-.4.2-.4.4v.9c-.3.7-.5,1.4-.5,2.2,0,2.5,2.1,4.6,4.6,4.6s4.6-2.1,4.6-4.6-.2-1.5-.5-2.1h-.2Z"/>
            <path class="st34" d="M189.5,198.8s0-.1.2-.1h2s.1,0,.1.3v1s0,.2-.1.2h-2s-.2,0-.2-.3v-1.1Z"/>
            <path class="st34" d="M186.3,198.8s0-.1.2-.1h2s.1,0,.1.3v1s0,.2-.1.2h-2s-.2,0-.2-.3v-1.1Z"/>
            <path class="st33" d="M192.1,193.8l-.2.2s0-.2-.2-.2c-.3,0-1.4-.3-1.8-.3-2.7-.2-4.9.7-4.5,2.5h0c.3-.3.5-.4.7-.4h-.2c-.2.3-.3.6-.4.7,0,.4.2,1.1.2,2.2,0,0,0,.2.1.7v-.2s0-.2.3-.8c0-.1.2-.7.2-.8.3-.5.7-.8,1.5-1.1.4-.1,1.1,0,1.9,0s1.4.2,1.4.2c0,0,.8.5,1,1.7,0,.2.2.3.2.6v.5l.2.2v-1.1s.2-1.8.3-2.9c0-1.2.3-1.3.4-1.5h-1.3l.2-.2Z"/>
            <path class="st10" d="M192.8,198.5v-.2l-1,.4s-.1-.1-.2-.1h-2c-.1,0-.2,0-.2.2v.2h-.7v-.2c0-.1,0-.2-.2-.2h-2s-.2,0-.2.1l-.6-.4v.2l.5.3v1c0,.1,0,.2.2.2h2c.1,0,.2,0,.2-.2v-.7h.7v.7c0,.1,0,.2.2.2h2c.1,0,.2,0,.2-.2v-1l1-.4h.1ZM188.6,199.8s0,.2-.2.2h-1.9c-.1,0-.2,0-.2-.2v-.9s0-.2.2-.2h1.9c.1,0,.2,0,.2.2v.9ZM191.7,199.8s0,.2-.2.2h-1.9c-.1,0-.2,0-.2-.2v-.7h0v-.2s0-.2.2-.2h1.9c.1,0,.2,0,.2.2v.9Z"/>
          </g>
        </g>
      </g>
      <g class="st25">
        <g>
          <path class="st33" d="M88,186.1c.9-.9,3,.4,3.7-.2h0c.5-.6,3.7-.5,4.1.2.5.9,2.7.8,3.1,1.9s0,.7.7,1.5c.9,1,1.5-.4,1.6,2,0,2.1-.4,2.7.3,3.1.7.3-.5,2.6-1.4,4.1-.9,1.6-1.7,2.1-2.4,2.7-2.7,2.3-2.1,3.5-5.2,4h-.7c-3-.5-2.8-1.7-5.5-4-.8-.6-1.5-1.2-2.4-2.7-.9-1.6-2.1-3.8-1.4-4.1s0-.5,0-2.6c0-2.3,1.8-1.1,2.2-3,.5-2.4,2.5-1.9,3.4-2.8h0Z"/>
          <path class="st3" d="M95.6,209.9l-4.5.2-3.7-.2-14.9,6.2c-1,.4-1.6,1.4-1.4,2.5l3.6,19.2c5.2,2.5,11,3.9,17.2,3.9s11.8-1.4,17-3.9l3.1-19.5c.2-1-.4-2-1.4-2.4l-14.9-6.1h0Z"/>
          <path class="st43" d="M114.2,226.1s-.9-8.3-3.2-9.8c-1.7-1.1-3.9-.6-4.2,6.8,0,3.9.8,10.6,1.6,14.9,2-1.1,4.8-3,6.6-4.4-.2-2.5-.7-5.9-.9-7.6h0Z"/>
          <path class="st43" d="M68.9,226.1s.9-8.3,3.2-9.8c1.7-1.1,3.9-.6,4.2,6.8,0,3.9-.8,10.6-1.6,14.9-2-1.1-4.8-3-6.6-4.4.2-2.5.7-5.9.9-7.6h0Z"/>
          <path class="st44" d="M87.7,209.3"/>
          <rect class="st3" x="87.4" y="200.4" width="8.2" height="14.6"/>
          <path class="st32" d="M95.7,209.9v3.4c-.5,1.4-1.3,3.7-4.2,3.7s-3.6-2.6-4.2-3.8v-3.3l-14.9,6.2c-1,.4-1.6,1.4-1.4,2.5l3.6,19.2c5.2,2.5,11,3.9,17.2,3.9s11.8-1.4,17-3.9l3.1-19.5c.2-1-.4-2-1.4-2.4l-14.8-6.1h0Z"/>
          <g>
            <g>
              <path class="st38" d="M72.4,215.9c-1.1.4-1.8,1.6-1.6,2.8l3.6,19.2h0c0,.1,0,.2,0,.2,4.3,2.1,9,3.4,13.8,3.8l-1-31.9h-.8c0,.1-14.1,5.9-14.1,5.9Z"/>
              <path class="st38" d="M110.6,215.7l-14.1-5.7h-.8c0-.1,1.2,31.7,1.2,31.7,4.2-.5,8.2-1.7,12-3.5h0l3.1-19.7c.2-1.2-.5-2.3-1.5-2.7h0Z"/>
            </g>
            <path class="st38" d="M115.3,233.7c0-1.6-.4-3.5-.6-5.2,0-1-.2-1.8-.3-2.4h0c0-.3-1-8.4-3.3-10-.8-.5-1.6-.6-2.3-.3-1.4.7-2.1,3.2-2.3,7.3-.2,4.5,1.2,12.6,1.6,15v.4l.4-.2c2.1-1.1,4.8-3,6.6-4.4h0v-.2h.1Z"/>
            <path class="st38" d="M76.5,223.2c0-4.1-.9-6.6-2.3-7.3-.7-.4-1.5-.3-2.3.3-2.3,1.6-3.3,9.6-3.3,10h0c0,.6-.2,1.5-.3,2.4-.2,1.7-.5,3.6-.6,5.2h0c0,.1,0,.2,0,.2,1.8,1.4,4.6,3.3,6.6,4.4l.3.2v-.4c.5-2.4,1.8-10.5,1.7-15h.1Z"/>
          </g>
          <path class="st11" d="M91.7,206.4h0Z"/>
          <g>
            <path class="st4" d="M90.8,210.8c.4.5,1,.5,1.4,0l4.2-5.5h-9.8s4.2,5.5,4.2,5.5Z"/>
            <path class="st3" d="M99.9,196.5c-.2,0-.4,0-.5.3v-3.2c0-3.7-4-6.8-7.7-6.8h0c-3.7,0-7.7,3.1-7.7,6.8v3.3c-.2-.3-.4-.4-.6-.4-.4,0-.7,1-.5,2s.7,1.8,1.1,1.7h0c1.5,4,4,8.3,7.7,8.4h0c3.6-.1,6.1-4.4,7.6-8.4h0c.4,0,.9-.7,1.1-1.7s0-1.9-.5-2h0Z"/>
            <path class="st5" d="M99.2,200.2h0c.4,0,.9-.7,1.1-1.7s0-1.9-.5-2c-.2,0-.4,0-.5.3v-.9c-3.9-1.9-6,1.2-6,1.2l.3,5.5h-1.8v5.9c3.5-.2,6-4.5,7.4-8.4h0Z"/>
          </g>
          <path class="st33" d="M99.9,192.4c0-.4-.4-1.3-.5-1.6-.2-.3-.6-.9-.8-1.2-1.7-2-7.8-4.5-11.4-2-4.2,3-3.9,6.7-3.9,6.7v.6l.7,3.1s.3-2.2.4-3.3c2.1.7,4.1.7,6,.2,1-.3,5.9-1.7,8-4.2,0,.7.2,3,.3,3.6,0,1,.5,3.7.5,3.7,0,0,.6-2.3.7-3.1,0-.6,0-1.9,0-2.5Z"/>
        </g>
      </g>
      <g class="st28">
        <g>
          <g>
            <rect class="st3" x="247" y="281.4" width="3.4" height="6"/>
            <path class="st39" d="M250.4,285.2l-1.7,2.1-1.7-2.1-6.1,2.3c-.4.2-.7.6-.6,1l1.5,7.9c2.1,1,4.5,1.6,7,1.6s4.9-.6,7-1.6l1.3-8c0-.4-.2-.8-.6-1l-6.1-2.2h0Z"/>
            <path class="st39" d="M258,291.6s-.4-3.4-1.3-4c-.7-.5-1.6-.3-1.7,2.8,0,1.6.3,4.4.7,6.1.8-.4,2-1.2,2.7-1.8,0-1-.3-2.4-.4-3.1h0Z"/>
            <path class="st39" d="M239.4,291.6s.4-3.4,1.3-4c.7-.5,1.6-.3,1.7,2.8,0,1.6-.3,4.4-.7,6.1-.8-.4-2-1.2-2.7-1.8,0-1,.3-2.4.4-3.1Z"/>
          </g>
          <g>
            <path class="st30" d="M248.5,285.1c.2.2.4.2.6,0l1.7-2.2h-4l1.7,2.2Z"/>
            <path class="st3" d="M252.1,279.3s-.2,0-.2.1v-1.3c0-1.5-1.6-2.7-3.1-2.8h0c-1.5,0-3.1,1.3-3.1,2.8v1.3c0-.1-.2-.2-.2-.2-.2,0-.3.4-.2.8,0,.4.3.7.4.7h0c.6,1.6,1.6,3.3,3.1,3.4h0c1.5,0,2.5-1.8,3.1-3.4h0c.2,0,.4-.3.4-.7s0-.8-.2-.8h0Z"/>
            <path class="st3" d="M251.9,280.8h0c.2,0,.4-.3.4-.7s0-.8-.2-.8c0,0-.2,0-.2.1v-.4c-1.6-.8-2.4.5-2.4.5v2.2c.1,0-.6,0-.6,0v2.3c1.4,0,2.4-1.8,3-3.4v.2Z"/>
            <path class="st33" d="M252.5,276.4c0-.2-.1-.4-.4-.5s-.5,0-.5,0c0,0,0-.7-.2-.9-.3-.3-1-.1-1.4-.2-.5,0-.8-.5-1.3-.4-.2,0-.5.5-.9.6-.4.2-.9.2-1.2.4-.4.3-.3.6-.6,1.1-.1.2-.5.5-.6.8-.2.4,0,.9,0,1.4s0,.3.2.4.2.8.2.8l.4-1c.3,0,.9.2,1.2,0,.9-.6.9-.4,1.4-.5.3,0,.5-.5.8-.6.4-.1.9.2,1.2,0,.4-.2.5-.6.7-.9,0,0-.2.5.2.9,0,.1.2.3.2.6v1.5l.2-.5s.4-.9.4-1.4v-.9c0-.3.2-.5,0-.7h0Z"/>
          </g>
        </g>
      </g>
      <g class="st27">
        <g>
          <g>
            <rect class="st3" x="363.8" y="182.7" width="2.7" height="5.6"/>
            <g>
              <path class="st30" d="M364.9,185.6c.1.2.3.2.4,0l1.3-1.7h-3l1.3,1.7h0Z"/>
              <g>
                <path class="st3" d="M367.6,181.3h-.2v-1c0-1.1-1.2-2-2.3-2.1h0c-1.1,0-2.3.9-2.3,2.1v1s-.1-.1-.2-.1-.2.3-.1.6c0,.3.2.5.3.5h0c.4,1.2,1.2,2.5,2.3,2.5h0c1.1,0,1.9-1.3,2.3-2.5h0c.1,0,.3-.2.3-.5s0-.6-.1-.6h0Z"/>
                <path class="st33" d="M367.5,180.2c0-.2-.5-1.9-2.4-1.9s-2.5,1.7-2.5,1.9v1.1c.1.4.2.7.2.7v-.8l.3-.7s-.2-.7,0-.8c.3-.4.7-.2,2-.1,1.3,0,1.6-.3,1.9.1.1.2,0,.8,0,.8l.2.7v.8s.2-.3.3-.7v-1.1Z"/>
              </g>
            </g>
          </g>
          <g>
            <path class="st39" d="M366.5,185.5l-1.4,2.6-1.3-2.4-4.9,1.8c-.3.1-.5.5-.5.8l1.2,6.3c1.7.8,3.6,1.3,5.6,1.3s3.9-.5,5.5-1.3l1-6.4c0-.3-.1-.7-.5-.8l-4.8-2h0Z"/>
            <polygon class="st44" points="364.6 187.3 363.6 188.1 363.6 185.8 363.7 185.3 363.8 185.3 364 185.9 364.6 187.3"/>
            <polygon class="st44" points="365.5 187.3 366.8 188.1 366.7 185.8 366.5 185.3 366.5 185.3 366.2 185.9 365.5 187.3"/>
            <path class="st39" d="M372.5,190.8s-.3-2.7-1-3.2c-.5-.4-1.3-.2-1.4,2.2,0,1.3.3,3.5.5,4.9.7-.3,1.6-1,2.2-1.4,0-.8-.2-1.9-.3-2.5h0Z"/>
            <path class="st39" d="M357.7,190.8s.3-2.7,1-3.2c.5-.4,1.3-.2,1.4,2.2,0,1.3-.3,3.5-.5,4.9-.7-.3-1.6-1-2.2-1.4,0-.8.2-1.9.3-2.5h0Z"/>
            <polygon class="st2" points="365.1 188.2 364.6 187.3 364.4 187.5 365.1 188.2"/>
            <polygon class="st2" points="365.1 188.2 365.5 187.3 365.8 187.5 365.1 188.2"/>
          </g>
        </g>
      </g>
      <g class="st17">
        <g>
          <g>
            <g>
              <rect class="st3" x="453" y="283" width="4" height="8.4"/>
              <g>
                <path class="st30" d="M454.7,287.4c.2.2.5.2.6,0l1.9-2.5h-4.4l1.9,2.5Z"/>
                <g>
                  <path class="st3" d="M455.1,286.3c1.6,0,2.8-2,3.4-3.8h0c.2,0,.4-.3.5-.8,0-.5,0-.9-.2-.9,0,0-.2,0-.2.1v-1.5c0-1.7-1.8-3-3.5-3.1h0c-1.7,0-3.5,1.4-3.5,3.1v1.5c0-.1-.2-.2-.3-.2-.2,0-.3.4-.2.9,0,.5.3.8.5.8h0c.7,1.8,1.8,3.7,3.5,3.8h0Z"/>
                  <path class="st33" d="M458.7,279.2c0-.4-.7-2.8-3.5-2.8s-3.7,2.5-3.7,2.8v1.6c.2.6.3,1,.3,1v-1.2l.4-1s-.3-1,0-1.2c.5-.6,1.1-.2,3-.2s2.4-.4,2.8.2c.2.2,0,1.2,0,1.2l.3,1v1.2s.2-.5.4-1v-1.6h0Z"/>
                </g>
              </g>
            </g>
            <path class="st14" d="M456.9,283.5c-.1,0-.6-.2-.7-.2-.2,0-.3-.1-.6-.2-.2,0-.4.3-.6.3s-.4-.3-.5-.3c-.2,0-.3,0-.5.2-.2,0-.5.2-.6.3-.1,0-1.6-1.7-1.6-1.7,0,0,0,.9.2,1.7.7,1.4,1.7,2.7,3,2.7h0c1.3,0,2.5-1.5,3-2.8.1-.4.2-1.6.2-1.6,0,0-1.2,1.7-1.4,1.6h.1Z"/>
          </g>
          <g>
            <path class="st39" d="M457.1,287.2l-2,3.9-2-3.6-7.3,2.7c-.5.2-.8.7-.7,1.2l1.7,9.3c2.5,1.2,5.4,1.9,8.4,1.9s5.8-.7,8.3-1.9l1.5-9.5c0-.5-.2-1-.7-1.2l-7.2-3v.2Z"/>
            <polygon class="st32" points="454.3 289.8 452.8 291.1 452.7 287.6 453 286.8 453 286.8 453.4 287.7 454.3 289.8"/>
            <polygon class="st32" points="455.6 289.9 457.6 291.1 457.4 287.6 457.1 286.8 457.1 286.8 456.6 287.8 455.6 289.9"/>
            <path class="st39" d="M466.1,295.1s-.5-4-1.6-4.8c-.8-.5-1.9-.3-2,3.3,0,1.9.4,5.2.8,7.3,1-.5,2.3-1.4,3.2-2.1,0-1.2-.3-2.9-.4-3.7h0Z"/>
            <path class="st39" d="M444,295.1s.5-4,1.6-4.8c.8-.5,1.9-.3,2,3.3,0,1.9-.4,5.2-.8,7.3-1-.5-2.3-1.4-3.2-2.1,0-1.2.3-2.9.4-3.7h0Z"/>
            <polygon class="st9" points="455 291.1 454.3 289.8 453.9 290.1 455 291.1"/>
            <polygon class="st9" points="455 291.1 455.6 289.9 456.1 290.2 455 291.1"/>
          </g>
        </g>
      </g>
      <g>
        <path class="st13" d="M443.9,97.8c-6.1,0-11,4.9-11.1,11h0c0,.7,0,1.3.2,1.9.9,5.2,5.4,9.2,10.9,9.2s9.8-3.8,10.8-8.8c.1-.6.2-1.3.2-2v-.3c0-6.1-5-11.1-11.1-11.1h.1Z"/>
        <g class="st16">
          <g>
            <g>
              <g>
                <path class="st33" d="M448.6,108.7s-.7-.8-.4-1.4.1-1.3-.1-1.4c-.3,0-.2-.2,0-1,.1-.8-.3-1.4-.6-1.8-.3-.3-.6-.3-.8-.7s-1-.4-1.2-.7c-.2-.3-1.1,0-1.2,0s-1-.6-1.4,0c-.3.3-.9.4-1,.8-.2.4-.4.7-.8.8s-.7.5-.5,1.3c.1.8-.2,1.3-.4,1.4-.3,0-.5.8-.1,1.4.3.6-.3,1.4-.4,1.4,0,0,1.1.8,4.5.5,3.4.3,4.5-.5,4.5-.5h-.1Z"/>
                <rect class="st3" x="442.3" y="107.3" width="3.2" height="5.7"/>
                <g>
                  <path class="st30" d="M443.9,110.6c.1.2.3.2.5,0l1.5-1.9h-3.4l1.5,1.9h-.1Z"/>
                  <g>
                    <path class="st3" d="M441.5,106.9c.2,1.3,1.4,2.9,2.6,2.9h0c1.2,0,2.1-1.5,2.6-2.9h0c.1,0,.3-.2.4-.6,0-.4,0-.7-.2-.7,0,0-.1,0-.2,0v-1.1c0-1.3-1.4-2.3-2.6-2.4h0c-1.3,0-2.7,1.1-2.7,2.4v2.3h.1Z"/>
                    <path class="st3" d="M446.7,106.9h0c.1,0,.3-.2.4-.6,0-.4,0-.7-.2-.7,0,0-.1,0-.2,0v-.3c-1.4-.7-2.1.4-2.1.4v1.9h-.5v2c1.2,0,2.1-1.5,2.6-2.9h0Z"/>
                  </g>
                </g>
                <path class="st33" d="M447,104v-.7c-.1,0-.5-.6-.5-.6-.7-.7-2.7-1.4-4.1-.4-1.7,1.2-1.4,3.6-1.4,3.6,1.1.2,1.4-.7,2-1.3,2.4-2.2,2.5,0,3.3-1.1,0,.3,0,1,.1,1.3,0,.4.2,1.5.2,1.5l.3-1.2v-1h.1Z"/>
              </g>
              <g>
                <polygon class="st3" points="451.8 115.2 451.3 114.3 448.2 112.7 445.6 111.3 444 111.3 442.3 111.3 439.8 112.8 437.1 114.3 436.6 115.2 436.1 118 443.2 120.1 445 120 452.3 118 451.8 115.2"/>
                <polygon class="st32" points="449.3 118.8 447.2 114.7 447.7 112.5 447.2 112.2 445.7 114.4 444.1 116.8 444 116.8 442.4 114.4 440.8 112.2 440.3 112.5 440.8 114.7 438.7 118.8 442.9 120 444 120 444 120 444.1 120 444.1 120 444.1 120 445 120 449.3 118.8"/>
              </g>
            </g>
            <g>
              <path class="st39" d="M442.3,111.3h-.2c0,0-4.8,2.7-4.8,2.7-.2,0-.3.3-.2.5l.7,4.6c1.8.8,3.8,1.3,5.9,1.4l-1.3-9.1h-.1Z"/>
              <path class="st39" d="M438.6,114.8c-.1-.6-1.1-1.1-1.5-.8-.4.4-1,1.3-1.4,2.5-.1.3-.2.6-.3.9.8.8,1.6,1.3,2.7,1.7,0,0,.1-.3.2-.4,0,0,.7-2.2.3-3.9h0Z"/>
            </g>
            <g>
              <path class="st39" d="M445.6,111.3l-1,9.1c2.1,0,4.1-.5,5.9-1.3l.8-4.5c0-.3,0-.4-.2-.6l-5.2-2.7h-.4.1Z"/>
              <path class="st39" d="M449.7,114.6c-1,2.1-.2,4.1,0,4.8,1-.4,1.9-.8,2.8-1.4,0-.4-.2-.8-.2-1.3-.4-2.6-1.1-2.9-1.7-2.8-.5,0-.7.4-.8.6h0Z"/>
            </g>
          </g>
        </g>
      </g>
      <g class="st19">
        <g>
          <g>
            <g>
              <path class="st3" d="M356,299.2v12.2c1.3.1,2.7.2,4.2.2h2.9v-12.3h-7.1Z"/>
              <polygon class="st15" points="375.9 316.4 374.9 314.5 368.4 311.3 363.1 308.1 359.6 308.1 356 308.1 350.8 311.3 345.1 314.5 344.1 316.4 343.1 322.2 357.9 326.6 361.8 326.5 377 322.2 375.9 316.4"/>
            </g>
            <g>
              <path class="st30" d="M359,307.9c.4.5.9.5,1.3,0l4-5.2h-9.3l4,5.2Z"/>
              <path class="st3" d="M367.7,294.3c-.2,0-.4,0-.5.3v-3.1c0-3.6-3.8-6.5-7.3-6.5h0c-3.6,0-7.4,2.9-7.4,6.5v3.1c-.2-.3-.4-.4-.6-.4-.4,0-.6.9-.5,1.9.2,1,.6,1.7,1,1.6h0c1.4,3.8,3.8,7.9,7.3,8h0c3.4-.1,5.8-4.2,7.2-8h0c.4,0,.9-.7,1-1.6.2-1,0-1.8-.5-1.9h.3Z"/>
              <path class="st3" d="M367,297.8h0c.4,0,.9-.7,1-1.6.2-1,0-1.8-.5-1.9-.2,0-.4,0-.5.3v-.9c-3.7-1.8-5.7,1.1-5.7,1.1l.3,5.3h-1.7v5.6c3.3-.2,5.7-4.2,7.1-7.9h0Z"/>
              <path class="st33" d="M351.2,298.9c-1-2.5-1.5-6.7.7-11.8,0,0,4.8-9.2,9.4-4.2,0,0,4.8-2.6,6.7,8.1,0,0,1.9,7.3-3.3,11.2,0,0,4.2-7.4-2.5-13.9,0,0-2.2,2.4-5.7,4-2.7,1.2-2.8,6.8-1.7,10.3,0,0-3.2-2.5-3.7-3.8h.1Z"/>
            </g>
          </g>
          <polygon class="st7" points="375.9 316.4 374.9 314.5 368.4 311.3 363.1 308.1 363.1 307 356 306.9 356 308.1 350.8 311.3 345.1 314.5 344.1 316.4 343.1 322.2 357.9 326.6 361.8 326.5 377 322.2 375.9 316.4"/>
          <g>
            <g>
              <path class="st38" d="M356,308l-.6.2-9.8,5.6c-.3.2-.5.6-.5,1l1.5,9.6c3.8,1.7,7.9,2.7,12.3,2.9l-2.9-19.2h0Z"/>
              <path class="st38" d="M348.3,315.6c-.2-1.2-2.2-2.4-3-1.6s-2,2.7-2.9,5.3c-.2.7-.5,1.3-.7,1.9,1.7,1.7,3.3,2.8,5.6,3.5,0-.2.3-.7.4-.9,0,0,1.4-4.5.7-8.1h-.1Z"/>
            </g>
            <g>
              <path class="st38" d="M363.1,308.1l-2.3,19.2c4.4,0,8.6-1,12.4-2.7l1.7-9.4c0-.5.2-.9-.3-1.2l-10.6-5.7-.8-.2h-.1Z"/>
              <path class="st38" d="M371.6,315.1c-2,4.3-.5,8.5-.1,10.2,2.1-.8,4-1.7,5.9-2.9-.2-.8-.3-1.7-.5-2.8-.8-5.4-2.4-6.2-3.6-5.8-.9.3-1.5.8-1.7,1.3h0Z"/>
            </g>
          </g>
        </g>
      </g>
      <g class="st18">
        <g>
          <path class="st33" d="M251.2,119.6l-.2,10.8h5.4l5.4-.4s-.7-7-.7-10.1-.5-3.1-1-4.1c-.6-1-1.9-1.9-1.9-1.9l-1,.4-1.4-1-1.5.5-1.6,1.8-.8,1.6-.6,2.4h0Z"/>
          <polygon class="st3" points="258.4 137.4 264.4 135 264.4 133.1 263.1 130.9 258.4 127.8 256.4 127.8 256.4 127.8 256.3 127.8 256.2 127.8 256.2 127.8 254.2 127.8 249.5 130.9 248.2 133.1 248.2 135 254.3 137.3 256.5 137.5 258.4 137.4"/>
          <path class="st3" d="M254.2,123v6.5c.8,0,1.6.2,2.5.2s1.2-.1,1.7-.1v-6.5h-4.2Z"/>
          <path class="st39" d="M254.2,127.5l-5.3,3.1c-.4.2-.6.7-.5,1.1l1.1,4.3c2,.9,4.6,1.4,6.9,1.5l-2.3-10h.1Z"/>
          <path class="st39" d="M258.4,127.5l-1.9,10c2.3,0,5-.5,6.9-1.4l1-4.1c.1-.6-.1-1.2-.6-1.5l-5.4-3.1h0Z"/>
          <path class="st30" d="M255.9,127.6c.2.3.5.3.7,0l2.2-2.9h-5.1l2.2,2.9h0Z"/>
          <path class="st3" d="M260.6,120.2s-.2,0-.3.2v-1.7c0-2-2.1-3.5-4-3.6h0c-1.9,0-4,1.6-4,3.6v1.7c0,0-.2-.2-.3-.2-.2,0-.3.5-.3,1s.3.9.6.9h0c.8,2.1,2.1,4.3,4,4.4h0c1.9,0,3.2-2.3,4-4.4h0c.2,0,.5-.4.6-.9,0-.5,0-1-.3-1h0Z"/>
          <path class="st3" d="M260.3,122.1h0c.2,0,.5-.4.6-.9,0-.5,0-1-.3-1,0,0-.2,0-.3.2v-.5c-2-1-3.1.6-3.1.6v2.9c.1,0-.8,0-.8,0v3c1.8,0,3.1-2.3,3.9-4.3h0Z"/>
          <g>
            <g>
              <polygon class="st32" points="255.5 130.9 256.5 137.5 256.4 137.5 254.8 131.5 255.5 130.9"/>
              <polygon class="st36" points="255.5 130.9 253.5 132.5 253.6 127.9 254.1 127.2 254.2 127.2 255.5 130.9"/>
            </g>
            <g>
              <polygon class="st32" points="257 130.9 256.5 137.5 256.5 137.5 257.9 131.6 257 130.9"/>
              <polygon class="st36" points="257 130.9 259.1 132.5 259 127.9 258.5 127.2 258.4 127.2 257 130.9"/>
            </g>
          </g>
          <path class="st39" d="M262.4,131.6c-.6,2.4-.2,4-.2,5,1.1-.4,2.2-.7,3.1-1.3,0-.4,0-.7-.2-1.3-.8-5-2.5-3.2-2.7-2.4h0Z"/>
          <path class="st39" d="M250.3,131.6c.6,2.4.3,3.8.3,4.8-1.1-.4-2.2-.7-3.1-1.3,0-.4,0-.6.1-1.1.8-5,2.5-3.2,2.7-2.4Z"/>
          <path class="st33" d="M251.6,122.7c-.5-1.4-.8-3.7.4-6.5,0,0,2.6-5,5.2-2.3,0,0,2.7-1.4,3.7,4.4,0,0,1,4-1.8,6.1,0,0,2.3-4.1-1.4-7.6,0,0-1.2,1.3-3.1,2.2-1.5.7-1.6,3.7-.9,5.6,0,0-1.8-1.4-2-2.1v.2Z"/>
        </g>
      </g>
    </g>
  </g>
</svg>