<?xml version="1.0" encoding="UTF-8"?><svg id="b" xmlns="http://www.w3.org/2000/svg" width="600" height="371.19" viewBox="0 0 600 371.19"><g id="c"><path d="M299.38,350.62C216.79,348.59-17.72,406.42,1.07,203.33,19.86.24,199.19,142.89,280.46,74.93c81.27-67.96,165.11-118.87,248.23-18.54,83.12,100.32,85.03,113.08,49.15,184.19-35.88,71.11-36.86,143.99-151.06,128.51-114.2-15.48-95.25-17.68-127.4-18.47Z" fill="#dce8f6"/><rect x="145.45" y="30.85" width="214.08" height="147.29" fill="#fff"/><path d="M153.79,22.4h197.39c4.6,0,8.34,3.74,8.34,8.34v2.24h-214.08v-2.24c0-4.6,3.74-8.34,8.34-8.34Z" fill="#589be5"/><path d="M352.36,30.62h-72.1c-1.52,0-2.74-1.23-2.74-2.74h0c0-1.51,1.23-2.74,2.74-2.74h72.1c1.52,0,2.74,1.23,2.74,2.74h0c0,1.52-1.23,2.74-2.74,2.74Z" fill="#a6d5ef"/><path d="M151.64,30.06h0c-1.15,0-2.08-.93-2.08-2.08h0c0-1.15.93-2.08,2.08-2.08h0c1.15,0,2.08.93,2.08,2.08h0c0,1.15-.93,2.08-2.08,2.08Z" fill="#8ebeff"/><path d="M158.75,30.06h0c-1.15,0-2.08-.93-2.08-2.08h0c0-1.15.93-2.08,2.08-2.08h0c1.15,0,2.08.93,2.08,2.08h0c0,1.15-.93,2.08-2.08,2.08Z" fill="#a6d5ef"/><path d="M165.87,30.06h0c-1.15,0-2.08-.93-2.08-2.08h0c0-1.15.93-2.08,2.08-2.08h0c1.15,0,2.08.93,2.08,2.08h0c0,1.15-.93,2.08-2.08,2.08Z" fill="#a6d5ef"/><rect x="167.42" y="43.87" width="39.89" height="18.9" fill="#656d8f" opacity=".3"/><path d="M336.28,63.08h-124v-19.52h124v19.52ZM212.9,62.47h122.76v-18.29h-122.76v18.29Z" fill="#bdeafd" opacity=".7"/><rect x="250.39" y="71.79" width="39.89" height="29.91" fill="#656d8f" opacity=".3"/><rect x="255.45" y="95.99" width="2.14" height=".61" fill="#8ebed4"/><rect x="259.46" y="95.99" width="3.35" height=".61" fill="#8ebed4"/><rect x="265.06" y="95.99" width="15" height=".61" fill="#8ebed4"/><rect x="259.63" y="97.91" width="19.25" height=".61" fill="#8ebed4"/><rect x="297.65" y="71.79" width="39.89" height="29.91" fill="#656d8f" opacity=".3"/><rect x="303.81" y="95.99" width="2.14" height=".61" fill="#8ebed4"/><rect x="307.82" y="95.99" width="3.35" height=".61" fill="#8ebed4"/><rect x="313.42" y="95.99" width="15" height=".61" fill="#8ebed4"/><rect x="307.99" y="97.91" width="19.25" height=".61" fill="#8ebed4"/><path d="M290.59,139.85h-40.51v-30.53h40.51v30.53ZM250.69,139.23h39.27v-29.3h-39.27v29.3Z" fill="#656d8f" opacity=".3"/><polygon points="337.85 139.85 336.93 139.85 336.93 139.23 337.24 139.23 337.24 138.92 337.85 138.92 337.85 139.85" fill="#656d8f" opacity=".3"/><path d="M335.68,139.85h-1.25v-.62h1.25v.62ZM333.19,139.85h-1.25v-.62h1.25v.62ZM330.69,139.85h-1.25v-.62h1.25v.62ZM328.2,139.85h-1.25v-.62h1.25v.62ZM325.71,139.85h-1.25v-.62h1.25v.62ZM323.21,139.85h-1.25v-.62h1.25v.62ZM320.72,139.85h-1.25v-.62h1.25v.62ZM318.22,139.85h-1.25v-.62h1.25v.62ZM315.73,139.85h-1.25v-.62h1.25v.62ZM313.23,139.85h-1.25v-.62h1.25v.62ZM310.74,139.85h-1.25v-.62h1.25v.62ZM308.25,139.85h-1.25v-.62h1.25v.62ZM305.75,139.85h-1.25v-.62h1.25v.62ZM303.26,139.85h-1.25v-.62h1.25v.62ZM300.76,139.85h-1.25v-.62h1.25v.62Z" fill="#656d8f" opacity=".3"/><polygon points="298.27 139.85 297.35 139.85 297.35 138.92 297.96 138.92 297.96 139.23 298.27 139.23 298.27 139.85" fill="#656d8f" opacity=".3"/><path d="M297.96,137.68h-.62v-1.25h.62v1.25ZM297.96,135.18h-.62v-1.25h.62v1.25ZM297.96,132.69h-.62v-1.25h.62v1.25ZM297.96,130.2h-.62v-1.25h.62v1.25ZM297.96,127.7h-.62v-1.25h.62v1.25ZM297.96,125.21h-.62v-1.25h.62v1.25ZM297.96,122.72h-.62v-1.25h.62v1.25ZM297.96,120.22h-.62v-1.25h.62v1.25ZM297.96,117.73h-.62v-1.25h.62v1.25ZM297.96,115.23h-.62v-1.25h.62v1.25ZM297.96,112.74h-.62v-1.25h.62v1.25Z" fill="#656d8f" opacity=".3"/><polygon points="297.96 110.25 297.35 110.25 297.35 109.32 298.27 109.32 298.27 109.94 297.96 109.94 297.96 110.25" fill="#656d8f" opacity=".3"/><path d="M335.68,109.94h-1.25v-.62h1.25v.62ZM333.19,109.94h-1.25v-.62h1.25v.62ZM330.69,109.94h-1.25v-.62h1.25v.62ZM328.2,109.94h-1.25v-.62h1.25v.62ZM325.71,109.94h-1.25v-.62h1.25v.62ZM323.21,109.94h-1.25v-.62h1.25v.62ZM320.72,109.94h-1.25v-.62h1.25v.62ZM318.22,109.94h-1.25v-.62h1.25v.62ZM315.73,109.94h-1.25v-.62h1.25v.62ZM313.23,109.94h-1.25v-.62h1.25v.62ZM310.74,109.94h-1.25v-.62h1.25v.62ZM308.25,109.94h-1.25v-.62h1.25v.62ZM305.75,109.94h-1.25v-.62h1.25v.62ZM303.26,109.94h-1.25v-.62h1.25v.62ZM300.76,109.94h-1.25v-.62h1.25v.62Z" fill="#656d8f" opacity=".3"/><polygon points="337.85 110.25 337.24 110.25 337.24 109.94 336.93 109.94 336.93 109.32 337.85 109.32 337.85 110.25" fill="#656d8f" opacity=".3"/><path d="M337.85,137.68h-.62v-1.25h.62v1.25ZM337.85,135.18h-.62v-1.25h.62v1.25ZM337.85,132.69h-.62v-1.25h.62v1.25ZM337.85,130.2h-.62v-1.25h.62v1.25ZM337.85,127.7h-.62v-1.25h.62v1.25ZM337.85,125.21h-.62v-1.25h.62v1.25ZM337.85,122.72h-.62v-1.25h.62v1.25ZM337.85,120.22h-.62v-1.25h.62v1.25ZM337.85,117.73h-.62v-1.25h.62v1.25ZM337.85,115.23h-.62v-1.25h.62v1.25ZM337.85,112.74h-.62v-1.25h.62v1.25Z" fill="#656d8f" opacity=".3"/><path d="M337.85,164.74h-170.74v-16.58h170.74v16.58ZM167.73,164.12h169.51v-15.35h-169.51v15.35Z" fill="#656d8f" opacity=".3"/><path d="M242.5,73.11v54.55h-73.6v-54.55h73.6M243.82,71.79h-76.24v57.19h76.24v-57.19h0Z" fill="#656d8f" opacity=".3"/><rect x="167.58" y="127.72" width="76.24" height="11.74" fill="#656d8f" opacity=".3"/><rect x="181.26" y="132.42" width="58.67" height="1.95" fill="#fff"/><rect x="181.26" y="132.42" width="24.44" height="1.95" fill="#8ebed4"/><rect x="167.58" y="127.72" width="11.07" height="11.74" fill="#b6d5e8"/><rect x="171.23" y="131.44" width="1.41" height="3.9" fill="#fff" opacity=".7"/><rect x="173.27" y="131.44" width="1.41" height="3.9" fill="#fff" opacity=".7"/><polygon points="211.51 100.15 199.88 92.81 199.88 107.48 211.51 100.15" fill="#656d8f" opacity=".3"/><path d="M203.85,114.86c-8.11,0-14.72-6.6-14.72-14.72s6.6-14.72,14.72-14.72,14.72,6.6,14.72,14.72-6.6,14.72-14.72,14.72ZM203.85,86.92c-7.29,0-13.23,5.93-13.23,13.23s5.93,13.22,13.23,13.22,13.23-5.93,13.23-13.22-5.93-13.23-13.23-13.23Z" fill="#656d8f" opacity=".3"/><path d="M540,220.62l-.14-1.13c.33-.04.64-.13.94-.26l.46,1.05c-.4.18-.82.29-1.26.35ZM538.69,220.59c-.43-.07-.85-.2-1.24-.39l.5-1.03c.29.14.61.24.93.3l-.18,1.13ZM542.36,219.58l-.74-.87c.25-.21.47-.46.65-.73l.96.63c-.24.37-.53.69-.86.98ZM536.37,219.47c-.32-.29-.6-.63-.82-1.01l.98-.59c.17.28.38.53.62.76l-.77.84ZM543.77,217.42l-1.1-.33c.09-.31.14-.63.14-.96h1.14c0,.44-.06.87-.19,1.29ZM535.04,217.25c-.09-.36-.14-.74-.14-1.12v-.17s1.15.04,1.15.04v.13c0,.29.03.57.1.84l-1.11.28ZM542.74,215.41c-.07-.32-.18-.63-.34-.91l1-.55c.21.38.36.79.46,1.22l-1.12.24ZM536.22,215.04l-1.08-.37c.14-.41.34-.8.59-1.16l.93.66c-.19.27-.34.56-.44.87ZM541.81,213.72c-.23-.23-.5-.43-.78-.58l.54-1.01c.38.21.74.47,1.05.77l-.8.81ZM537.34,213.47l-.71-.9c.34-.27.72-.49,1.13-.65l.42,1.06c-.3.12-.59.28-.84.49ZM540.11,212.81c-.31-.07-.65-.08-.97-.05l-.1-1.14c.43-.04.88-.01,1.3.07l-.23,1.12Z" fill="#0099bc"/><path d="M55.53,356.61c-19.19-.05-54.55,1.02-50.18-4.41,4.37-5.43,27.4-.11,46.28-1.93,18.88-1.82,35.97-3.9,55.28-1.22,19.31,2.68,14.06,5.77,5.59,6.64-15.57,1.6-18.34,2.29-27.37,1.41-26.43-2.58-22.13-.47-29.59-.49Z" fill="#656d8f" opacity=".3"/><path d="M528.48,356.61c-19.19-.05-54.54,1.02-50.18-4.41,4.37-5.43,27.4-.11,46.28-1.93,18.88-1.82,35.97-3.9,55.28-1.22,19.31,2.68,14.06,5.77,5.59,6.64-15.57,1.6-18.34,2.29-27.37,1.41-26.43-2.58-22.13-.47-29.59-.49Z" fill="#656d8f" opacity=".3"/><path d="M384.9,88.57l-.23-1.81c.52-.07,1.02-.21,1.5-.42l.73,1.67c-.64.28-1.31.47-2,.55ZM382.82,88.53c-.69-.11-1.35-.32-1.99-.63l.8-1.64c.47.23.97.39,1.48.47l-.29,1.8ZM388.67,86.91l-1.18-1.39c.4-.34.74-.73,1.03-1.17l1.53,1c-.38.58-.85,1.11-1.38,1.56ZM379.12,86.73c-.52-.47-.96-1.01-1.32-1.61l1.57-.94c.27.45.6.85.99,1.21l-1.23,1.34ZM390.92,83.46l-1.75-.52c.15-.5.22-1.01.22-1.54h1.83c0,.7-.1,1.39-.3,2.06ZM377,83.19c-.15-.58-.22-1.19-.22-1.8v-.27s1.83.06,1.83.06v.21c0,.46.05.91.16,1.34l-1.77.45ZM389.28,80.25c-.11-.51-.29-1-.54-1.45l1.6-.88c.34.61.58,1.27.73,1.95l-1.78.39ZM378.88,79.66l-1.73-.59c.22-.66.54-1.28.95-1.85l1.49,1.05c-.3.43-.54.9-.71,1.39ZM387.79,77.56c-.37-.37-.79-.68-1.25-.93l.86-1.61c.61.33,1.18.74,1.67,1.24l-1.28,1.3ZM380.66,77.15l-1.13-1.43c.55-.43,1.16-.78,1.81-1.04l.67,1.7c-.48.19-.94.45-1.35.78ZM385.08,76.11c-.5-.11-1.04-.14-1.55-.09l-.16-1.82c.69-.06,1.41-.02,2.08.12l-.37,1.79Z" fill="#589be5"/><path d="M567.8,148.69l-.23-1.81c.52-.07,1.02-.21,1.5-.42l.73,1.67c-.64.28-1.31.47-2,.55ZM565.72,148.65c-.69-.11-1.35-.32-1.99-.63l.8-1.64c.47.23.97.39,1.48.47l-.29,1.8ZM571.57,147.03l-1.18-1.39c.4-.34.74-.73,1.03-1.17l1.53,1c-.38.58-.84,1.11-1.38,1.56ZM562.01,146.85c-.51-.47-.96-1.01-1.32-1.61l1.57-.94c.27.45.6.85.98,1.21l-1.23,1.34ZM573.82,143.58l-1.75-.52c.15-.5.22-1.01.22-1.54h1.83c0,.7-.1,1.39-.3,2.06ZM559.89,143.31c-.15-.58-.22-1.19-.22-1.8v-.27s1.83.06,1.83.06v.21c0,.46.05.91.16,1.34l-1.77.45ZM572.17,140.38c-.11-.51-.29-1-.54-1.45l1.6-.88c.34.61.58,1.27.73,1.95l-1.78.39ZM561.78,139.78l-1.73-.59c.22-.66.54-1.28.95-1.85l1.49,1.05c-.3.43-.54.9-.71,1.39ZM570.69,137.68c-.37-.37-.79-.68-1.25-.93l.86-1.61c.61.33,1.18.74,1.67,1.24l-1.28,1.3ZM563.56,137.27l-1.13-1.43c.55-.43,1.16-.78,1.81-1.04l.67,1.7c-.48.19-.94.45-1.35.78ZM567.97,136.23c-.5-.1-1.04-.14-1.55-.09l-.16-1.82c.69-.06,1.41-.02,2.08.12l-.37,1.79Z" fill="#589be5"/><path d="M140.41,251.47l-.21-1.66c.48-.06.94-.19,1.38-.38l.68,1.54c-.59.26-1.21.43-1.84.51ZM138.5,251.44c-.63-.1-1.24-.3-1.82-.58l.73-1.51c.43.21.89.36,1.36.43l-.27,1.65ZM143.88,249.95l-1.09-1.28c.36-.31.68-.67.95-1.07l1.4.92c-.35.54-.78,1.02-1.26,1.43ZM135.1,249.78c-.47-.43-.88-.93-1.21-1.48l1.44-.86c.25.41.55.78.91,1.11l-1.13,1.24ZM145.95,246.78l-1.61-.48c.14-.46.2-.93.2-1.41h1.68c0,.65-.09,1.28-.27,1.89ZM133.15,246.53c-.14-.53-.21-1.09-.21-1.65v-.25s1.68.06,1.68.06v.19c0,.42.05.84.15,1.23l-1.63.42ZM144.43,243.83c-.1-.47-.27-.92-.5-1.34l1.47-.81c.31.56.53,1.16.67,1.79l-1.64.35ZM134.88,243.29l-1.59-.54c.2-.6.5-1.18.87-1.7l1.37.97c-.28.4-.5.83-.65,1.28ZM143.07,241.35c-.34-.34-.73-.62-1.15-.85l.79-1.48c.56.3,1.08.68,1.54,1.14l-1.18,1.19ZM136.52,240.98l-1.04-1.32c.5-.4,1.06-.72,1.66-.95l.62,1.56c-.45.18-.86.42-1.24.71ZM140.57,240.02c-.46-.1-.95-.12-1.43-.08l-.15-1.67c.64-.05,1.29-.02,1.91.11l-.34,1.64Z" fill="#589be5"/><path d="M518.24,45.2c-.47-.04-.94-.13-1.39-.27l.38-1.22c.36.11.74.18,1.12.22l-.11,1.28ZM519.65,45.18l-.15-1.27c.38-.05.76-.13,1.12-.25l.41,1.21c-.44.15-.91.25-1.38.31ZM515.55,44.38c-.41-.23-.8-.5-1.16-.81l.84-.97c.29.25.61.47.94.65l-.62,1.12ZM522.3,44.27l-.65-1.1c.33-.19.64-.42.92-.68l.87.94c-.35.32-.73.6-1.13.84ZM513.42,42.55c-.29-.37-.54-.78-.74-1.2l1.16-.55c.17.34.37.67.6.98l-1.02.78ZM524.37,42.38l-1.04-.75c.22-.31.41-.64.57-1l1.17.52c-.19.43-.43.84-.7,1.22ZM512.21,40.02c-.11-.46-.17-.93-.19-1.4l1.28-.04c.01.38.06.76.15,1.13l-1.25.3ZM525.51,39.81l-1.25-.26c.08-.37.12-.76.12-1.14,0-.11,0-.23-.01-.34l1.28-.08c0,.14.01.27.01.41,0,.48-.05.95-.14,1.41ZM513.39,37.43l-1.26-.22c.08-.47.21-.92.39-1.36l1.19.48c-.14.35-.25.72-.32,1.1ZM524.17,36.94c-.1-.37-.24-.73-.42-1.07l1.14-.59c.22.42.39.86.51,1.31l-1.23.34ZM514.24,35.32l-1.06-.71c.26-.39.57-.75.9-1.08l.89.92c-.27.27-.52.56-.73.88ZM523.13,34.91c-.24-.3-.52-.57-.81-.81l.81-.99c.37.3.7.63,1,.99l-.99.81ZM515.88,33.73l-.69-1.08c.4-.25.82-.46,1.26-.63l.45,1.2c-.36.13-.7.31-1.02.51ZM521.35,33.48c-.34-.17-.7-.31-1.07-.41l.34-1.24c.46.12.9.29,1.32.51l-.59,1.14ZM518.01,32.94l-.19-1.27c.46-.07.94-.09,1.41-.06l-.08,1.28c-.39-.02-.77,0-1.14.05Z" fill="#589be5"/><path d="M521.83,38.41c0,1.66-1.34,3-3,3s-3-1.34-3-3,1.34-3,3-3,3,1.34,3,3Z" fill="#589be5"/><path d="M16.22,140.83c-.31-.03-.61-.09-.9-.17l.24-.8c.24.07.48.12.73.14l-.07.83ZM17.14,140.82l-.1-.83c.25-.03.49-.08.73-.16l.27.79c-.29.1-.59.17-.9.2ZM14.47,140.3c-.27-.15-.52-.32-.76-.53l.54-.63c.19.16.4.31.61.43l-.4.73ZM18.87,140.23l-.43-.72c.21-.13.42-.28.6-.45l.56.62c-.23.21-.48.39-.74.55ZM13.09,139.1c-.19-.24-.35-.51-.48-.78l.75-.36c.11.22.24.44.39.64l-.66.51ZM20.22,138.99l-.68-.49c.14-.2.27-.42.37-.65l.76.34c-.12.28-.28.55-.46.8ZM12.3,137.45c-.07-.3-.11-.61-.12-.91l.83-.02c0,.25.04.5.1.74l-.81.2ZM20.96,137.32l-.82-.17c.05-.24.08-.49.08-.74,0-.07,0-.15,0-.22l.83-.05c0,.09,0,.18,0,.27,0,.31-.03.62-.09.92ZM13.06,135.77l-.82-.14c.05-.3.14-.6.25-.89l.77.31c-.09.23-.16.47-.21.72ZM20.09,135.45c-.07-.24-.16-.48-.27-.7l.74-.38c.14.27.25.56.33.86l-.8.22ZM13.62,134.39l-.69-.47c.17-.25.37-.49.59-.71l.58.6c-.18.17-.34.37-.48.57ZM19.41,134.13c-.16-.19-.34-.37-.53-.53l.53-.65c.24.19.46.41.65.65l-.65.53ZM14.68,133.36l-.45-.7c.26-.16.54-.3.82-.41l.29.78c-.23.09-.46.2-.67.33ZM18.25,133.19c-.22-.11-.45-.2-.7-.27l.22-.81c.3.08.59.19.86.33l-.38.74ZM16.07,132.84l-.12-.83c.3-.04.61-.06.92-.04l-.05.83c-.25-.02-.5,0-.75.03Z" fill="#589be5"/><path d="M18.57,136.4c0,1.08-.88,1.95-1.95,1.95s-1.95-.88-1.95-1.95.88-1.95,1.95-1.95,1.95.88,1.95,1.95Z" fill="#589be5"/><path d="M273.24,60.78v-2.91c0-3.06-2.48-5.55-5.55-5.55h-122.25v125.83h127.8V60.78Z" fill="#333" opacity=".15"/><path d="M307.66,339.23c-56.04-.12-159.33,2.33-146.58-10.09,12.75-12.41,80.03-.26,135.17-4.41,55.15-4.15,105.07-8.93,161.47-2.8,56.4,6.13,41.06,13.2,16.31,15.19-45.49,3.66-53.56,5.25-79.94,3.24-77.2-5.89-64.63-1.08-86.44-1.13Z" fill="#656d8f" opacity=".3"/><rect x="58.85" y="117.73" width="214.08" height="104.99" opacity=".2"/><rect x="50.2" y="68.05" width="214.08" height="147.29" fill="#fff"/><path d="M58.54,59.59h197.39c4.6,0,8.34,3.74,8.34,8.34v2.24H50.2v-2.24c0-4.6,3.74-8.34,8.34-8.34Z" fill="#589be5"/><path d="M257.12,67.81h-72.1c-1.51,0-2.74-1.23-2.74-2.74h0c0-1.52,1.23-2.74,2.74-2.74h72.1c1.51,0,2.74,1.23,2.74,2.74h0c0,1.52-1.23,2.74-2.74,2.74Z" fill="#a6d5ef"/><path d="M56.4,67.25h0c-1.15,0-2.08-.93-2.08-2.08h0c0-1.15.93-2.08,2.08-2.08h0c1.15,0,2.08.93,2.08,2.08h0c0,1.15-.93,2.08-2.08,2.08Z" fill="#8ebeff"/><path d="M63.51,67.25h0c-1.15,0-2.08-.93-2.08-2.08h0c0-1.15.93-2.08,2.08-2.08h0c1.15,0,2.08.93,2.08,2.08h0c0,1.15-.93,2.08-2.08,2.08Z" fill="#a6d5ef"/><path d="M70.63,67.25h0c-1.15,0-2.08-.93-2.08-2.08h0c0-1.15.93-2.08,2.08-2.08h0c1.15,0,2.08.93,2.08,2.08h0c0,1.15-.93,2.08-2.08,2.08Z" fill="#a6d5ef"/><rect x="72.18" y="81.06" width="39.89" height="18.9" fill="#656d8f" opacity=".3"/><path d="M241.04,100.27h-124v-19.52h124v19.52ZM117.66,99.66h122.76v-18.29h-122.76v18.29Z" fill="#656d8f" opacity=".3"/><rect x="155.14" y="108.99" width="39.89" height="29.91" fill="#656d8f" opacity=".3"/><rect x="160.21" y="133.18" width="2.14" height=".61" fill="#8ebed4"/><rect x="164.21" y="133.18" width="3.35" height=".61" fill="#8ebed4"/><rect x="169.81" y="133.18" width="15" height=".61" fill="#8ebed4"/><rect x="164.39" y="135.1" width="19.25" height=".61" fill="#8ebed4"/><rect x="202.41" y="108.99" width="39.89" height="29.91" fill="#656d8f" opacity=".3"/><rect x="208.57" y="133.18" width="2.14" height=".61" fill="#8ebed4"/><rect x="212.57" y="133.18" width="3.35" height=".61" fill="#8ebed4"/><rect x="218.17" y="133.18" width="15" height=".61" fill="#8ebed4"/><rect x="212.75" y="135.1" width="19.25" height=".61" fill="#8ebed4"/><path d="M195.34,177.04h-40.51v-30.53h40.51v30.53ZM155.45,176.42h39.27v-29.3h-39.27v29.3Z" fill="#656d8f" opacity=".3"/><polygon points="242.61 177.04 241.68 177.04 241.68 176.42 241.99 176.42 241.99 176.12 242.61 176.12 242.61 177.04" fill="#85b9d9"/><path d="M240.44,177.04h-1.25v-.62h1.25v.62ZM237.94,177.04h-1.25v-.62h1.25v.62ZM235.45,177.04h-1.25v-.62h1.25v.62ZM232.95,177.04h-1.25v-.62h1.25v.62ZM230.46,177.04h-1.25v-.62h1.25v.62ZM227.97,177.04h-1.25v-.62h1.25v.62ZM225.47,177.04h-1.25v-.62h1.25v.62ZM222.98,177.04h-1.25v-.62h1.25v.62ZM220.48,177.04h-1.25v-.62h1.25v.62ZM217.99,177.04h-1.25v-.62h1.25v.62ZM215.5,177.04h-1.25v-.62h1.25v.62ZM213,177.04h-1.25v-.62h1.25v.62ZM210.51,177.04h-1.25v-.62h1.25v.62ZM208.02,177.04h-1.25v-.62h1.25v.62ZM205.52,177.04h-1.25v-.62h1.25v.62Z" fill="#85b9d9"/><polygon points="203.03 177.04 202.1 177.04 202.1 176.12 202.72 176.12 202.72 176.42 203.03 176.42 203.03 177.04" fill="#85b9d9"/><path d="M202.72,174.87h-.62v-1.25h.62v1.25ZM202.72,172.38h-.62v-1.25h.62v1.25ZM202.72,169.88h-.62v-1.25h.62v1.25ZM202.72,167.39h-.62v-1.25h.62v1.25ZM202.72,164.89h-.62v-1.25h.62v1.25ZM202.72,162.4h-.62v-1.25h.62v1.25ZM202.72,159.91h-.62v-1.25h.62v1.25ZM202.72,157.41h-.62v-1.25h.62v1.25ZM202.72,154.92h-.62v-1.25h.62v1.25ZM202.72,152.43h-.62v-1.25h.62v1.25ZM202.72,149.93h-.62v-1.25h.62v1.25Z" fill="#85b9d9"/><polygon points="202.72 147.44 202.1 147.44 202.1 146.51 203.03 146.51 203.03 147.13 202.72 147.13 202.72 147.44" fill="#85b9d9"/><path d="M240.44,147.13h-1.25v-.62h1.25v.62ZM237.94,147.13h-1.25v-.62h1.25v.62ZM235.45,147.13h-1.25v-.62h1.25v.62ZM232.95,147.13h-1.25v-.62h1.25v.62ZM230.46,147.13h-1.25v-.62h1.25v.62ZM227.97,147.13h-1.25v-.62h1.25v.62ZM225.47,147.13h-1.25v-.62h1.25v.62ZM222.98,147.13h-1.25v-.62h1.25v.62ZM220.48,147.13h-1.25v-.62h1.25v.62ZM217.99,147.13h-1.25v-.62h1.25v.62ZM215.5,147.13h-1.25v-.62h1.25v.62ZM213,147.13h-1.25v-.62h1.25v.62ZM210.51,147.13h-1.25v-.62h1.25v.62ZM208.02,147.13h-1.25v-.62h1.25v.62ZM205.52,147.13h-1.25v-.62h1.25v.62Z" fill="#85b9d9"/><polygon points="242.61 147.44 241.99 147.44 241.99 147.13 241.68 147.13 241.68 146.51 242.61 146.51 242.61 147.44" fill="#85b9d9"/><path d="M242.61,174.87h-.62v-1.25h.62v1.25ZM242.61,172.38h-.62v-1.25h.62v1.25ZM242.61,169.88h-.62v-1.25h.62v1.25ZM242.61,167.39h-.62v-1.25h.62v1.25ZM242.61,164.89h-.62v-1.25h.62v1.25ZM242.61,162.4h-.62v-1.25h.62v1.25ZM242.61,159.91h-.62v-1.25h.62v1.25ZM242.61,157.41h-.62v-1.25h.62v1.25ZM242.61,154.92h-.62v-1.25h.62v1.25ZM242.61,152.43h-.62v-1.25h.62v1.25ZM242.61,149.93h-.62v-1.25h.62v1.25Z" fill="#85b9d9"/><rect x="72.33" y="108.99" width="76.24" height="67.66" fill="#656d8f" opacity=".3"/><rect x="72.33" y="186.62" width="170.28" height="16.4" fill="#656d8f" opacity=".3"/><rect x="297.01" y="281.42" width="65.65" height="44.08" fill="#044f85"/><path d="M380.65,332.18h-101.64c0-4.09,2.34-7.81,6.02-9.59l11.98-5.79h65.65l11.98,5.79c3.68,1.78,6.02,5.51,6.02,9.59h0Z" fill="#0072bc"/><rect x="176.2" y="112.94" width="307.25" height="183.94" rx="17.67" ry="17.67" fill="#0072bc"/><rect x="186.51" y="128.62" width="286.64" height="144.43" fill="#f4fafd"/><rect x="200.87" y="164.79" width="5.35" height="95.16" fill="#8ebeff"/><rect x="223.49" y="153.67" width="5.36" height="106.28" fill="#8ebeff"/><rect x="430.52" y="195.96" width="5.35" height="63.99" fill="#8ebeff"/><rect x="453.15" y="137.05" width="5.35" height="122.9" fill="#8ebeff"/><rect x="246.11" y="193.31" width="5.36" height="66.64" fill="#8ebeff"/><rect x="268.73" y="206.15" width="5.36" height="53.8" fill="#8ebeff"/><rect x="291.35" y="198.98" width="5.36" height="60.97" fill="#8ebeff"/><rect x="316.6" y="148.77" width="5.35" height="111.19" fill="#8ebeff"/><rect x="339.22" y="185.01" width="5.37" height="74.94" fill="#8ebeff"/><rect x="361.84" y="160.47" width="5.35" height="99.48" fill="#8ebeff"/><rect x="384.47" y="165.97" width="5.36" height="93.98" fill="#8ebeff"/><rect x="407.09" y="145.37" width="5.36" height="114.58" fill="#8ebeff"/><rect x="206.22" y="216.71" width="5.36" height="43.24" fill="#ffbcc1"/><rect x="228.85" y="219.79" width="5.36" height="40.16" fill="#ffbcc1"/><rect x="435.88" y="230.41" width="5.36" height="29.54" fill="#ffbcc1"/><rect x="458.5" y="204.04" width="5.36" height="55.91" fill="#ffbcc1"/><rect x="251.46" y="245.3" width="5.37" height="14.65" fill="#ffbcc1"/><rect x="274.09" y="216.11" width="5.36" height="43.84" fill="#ffbcc1"/><rect x="296.71" y="242.6" width="5.36" height="17.35" fill="#ffbcc1"/><rect x="321.95" y="185.03" width="5.37" height="74.92" fill="#ffbcc1"/><rect x="344.58" y="202.53" width="5.35" height="57.42" fill="#ffbcc1"/><rect x="389.83" y="196.46" width="5.35" height="63.49" fill="#ffbcc1"/><rect x="367.2" y="200.67" width="5.36" height="59.28" fill="#ffbcc1"/><rect x="412.45" y="152.27" width="5.36" height="107.68" fill="#ffbcc1"/><rect x="200.87" y="259.54" width="262.99" height=".83" fill="#8ebeff"/><path d="M200.91,262.59h.62v3.15c0,1.25-.62,1.64-1.43,1.64-.23,0-.5-.04-.65-.1l.08-.5c.13.05.31.09.52.09.54,0,.85-.24.85-1.17v-3.1" fill="#8ebeff"/><path d="M204.31,265.58c-.68-.02-1.43.1-1.43.76,0,.4.26.59.57.59.44,0,.73-.28.83-.57.02-.07.03-.13.03-.19v-.59ZM204.91,266.48c0,.3,0,.59.04.82h-.55l-.05-.43h-.02c-.19.27-.55.5-1.04.5-.68,0-1.03-.48-1.03-.97,0-.82.72-1.26,2.03-1.26v-.06c0-.28-.08-.79-.77-.78-.32,0-.64.09-.89.25l-.14-.41c.27-.18.69-.29,1.12-.29,1.03,0,1.29.7,1.29,1.37v1.26" fill="#8ebeff"/><path d="M205.9,264.84c0-.36-.01-.63-.03-.91h.54l.04.55h.02c.16-.31.56-.62,1.11-.62.47,0,1.2.28,1.2,1.44v2.02h-.62v-1.95c0-.54-.2-1-.78-1-.4,0-.71.29-.82.63-.02.08-.04.18-.04.29v2.03h-.61v-2.47" fill="#8ebeff"/><polyline points="222.1 262.59 224.63 262.59 224.63 263.1 222.71 263.1 222.71 264.67 224.48 264.67 224.48 265.17 222.71 265.17 222.71 267.3 222.1 267.3 222.1 262.59" fill="#8ebeff"/><path d="M227.42,265.28c0-.38-.16-.99-.86-.99-.63,0-.9.56-.94.99h1.8ZM225.61,265.72c.01.83.54,1.18,1.16,1.18.45,0,.72-.08.94-.17l.12.44c-.21.1-.6.21-1.13.21-1.05,0-1.67-.7-1.67-1.71s.6-1.82,1.59-1.82c1.11,0,1.4.96,1.4,1.59,0,.12,0,.21-.02.28h-2.38" fill="#8ebeff"/><path d="M229.38,265.95c0,.08,0,.15.02.22.11.43.48.73.93.73.65,0,1.03-.53,1.03-1.3,0-.68-.35-1.26-1.02-1.26-.41,0-.8.3-.92.76-.02.07-.04.17-.04.26v.6ZM228.77,262.34h.61v2.13h.01c.22-.38.61-.61,1.16-.61.84,0,1.43.7,1.43,1.72,0,1.2-.77,1.8-1.52,1.8-.49,0-.88-.19-1.14-.62h-.01l-.04.55h-.52c.01-.23.03-.58.03-.87v-4.09" fill="#8ebeff"/><path d="M248.87,265.23c-.04-.65-.08-1.45-.08-2.03h-.02c-.16.55-.35,1.14-.59,1.8l-.84,2.28h-.46l-.77-2.25c-.22-.66-.41-1.26-.54-1.83h-.02c-.01.59-.05,1.37-.09,2.08l-.13,2.02h-.58l.33-4.71h.77l.81,2.29c.19.58.35,1.09.47,1.58h.02c.12-.48.28-1,.5-1.58l.83-2.29h.77l.3,4.71h-.6l-.11-2.08" fill="#8ebeff"/><path d="M252.33,265.58c-.67-.02-1.44.1-1.44.76,0,.4.26.59.57.59.45,0,.74-.28.83-.57.02-.07.04-.13.04-.19v-.59ZM252.92,266.48c0,.3.01.59.05.82h-.56l-.04-.43h-.02c-.19.27-.55.5-1.03.5-.68,0-1.04-.48-1.04-.97,0-.82.73-1.26,2.03-1.26v-.06c0-.28-.08-.79-.77-.78-.32,0-.65.09-.89.25l-.14-.41c.28-.18.7-.29,1.13-.29,1.03,0,1.28.7,1.28,1.37v1.26" fill="#8ebeff"/><path d="M253.91,264.98c0-.39,0-.74-.03-1.05h.54l.03.66h.02c.16-.45.53-.73.94-.73.06,0,.11,0,.17.01v.58c-.06-.01-.12-.01-.21-.01-.43,0-.74.32-.82.78-.01.08-.02.18-.02.28v1.8h-.61v-2.33" fill="#8ebeff"/><path d="M271.61,265.35l-.47-1.36c-.1-.3-.18-.58-.24-.85h-.02c-.06.27-.14.57-.24.85l-.46,1.36h1.43ZM270.06,265.83l-.49,1.48h-.63l1.61-4.71h.72l1.6,4.71h-.64l-.51-1.48h-1.67" fill="#8ebeff"/><path d="M274.15,265.93c0,.09,0,.17.02.25.11.42.48.73.93.73.65,0,1.02-.53,1.02-1.31,0-.68-.35-1.25-1-1.25-.42,0-.82.29-.93.75-.02.08-.04.17-.04.24v.59ZM273.54,265.03c0-.44-.02-.78-.03-1.1h.54l.04.57h.02c.24-.41.65-.64,1.2-.64.82,0,1.44.69,1.44,1.71,0,1.21-.75,1.81-1.55,1.81-.44,0-.84-.2-1.04-.53h-.01v1.84h-.61v-3.66" fill="#8ebeff"/><path d="M277.51,264.98c0-.39-.01-.74-.03-1.05h.54l.02.66h.03c.15-.45.53-.73.94-.73.06,0,.11,0,.17.01v.58c-.06-.01-.13-.01-.21-.01-.44,0-.74.32-.83.78-.01.08-.02.18-.02.28v1.8h-.61v-2.33" fill="#8ebeff"/><path d="M293.66,265.23c-.03-.65-.08-1.45-.08-2.03h0c-.17.55-.36,1.14-.6,1.8l-.84,2.28h-.45l-.77-2.25c-.22-.66-.41-1.26-.54-1.83h-.02c-.01.59-.05,1.37-.09,2.08l-.13,2.02h-.58l.33-4.71h.78l.81,2.29c.19.58.34,1.09.46,1.58h.02c.12-.48.29-1,.5-1.58l.84-2.29h.77l.3,4.71h-.6l-.12-2.08" fill="#8ebeff"/><path d="M297.12,265.58c-.67-.02-1.43.1-1.43.76,0,.4.26.59.57.59.44,0,.73-.28.83-.57.02-.07.03-.13.03-.19v-.59ZM297.71,266.48c0,.3.01.59.05.82h-.55l-.05-.43h-.02c-.19.27-.55.5-1.03.5-.68,0-1.04-.48-1.04-.97,0-.82.73-1.26,2.03-1.26v-.06c0-.28-.07-.79-.76-.78-.32,0-.65.09-.89.25l-.14-.41c.28-.18.7-.29,1.11-.29,1.05,0,1.3.7,1.3,1.37v1.26" fill="#8ebeff"/><path d="M298.87,263.93l.74,1.99c.08.22.17.49.22.69h.01c.06-.2.14-.46.22-.71l.67-1.98h.65l-.93,2.41c-.43,1.16-.72,1.75-1.16,2.11-.3.27-.6.37-.75.4l-.15-.51c.15-.05.36-.15.54-.3.16-.14.36-.37.51-.69.02-.06.05-.11.05-.14,0-.04-.01-.09-.05-.16l-1.24-3.11h.67" fill="#8ebeff"/><path d="M316.3,262.59h.62v3.15c0,1.25-.62,1.64-1.42,1.64-.24,0-.5-.04-.65-.1l.08-.5c.13.05.31.09.51.09.54,0,.86-.24.86-1.17v-3.1" fill="#8ebeff"/><path d="M320.75,266.37c0,.36,0,.67.03.93h-.55l-.04-.55h-.01c-.16.27-.52.62-1.12.62-.53,0-1.17-.29-1.17-1.47v-1.98h.61v1.86c0,.65.2,1.09.76,1.09.41,0,.7-.28.81-.57.04-.08.06-.19.06-.32v-2.06h.61v2.44" fill="#8ebeff"/><path d="M321.77,264.84c0-.36-.01-.63-.04-.91h.54l.04.55h.02c.16-.31.56-.62,1.12-.62.47,0,1.19.28,1.19,1.44v2.02h-.62v-1.95c0-.54-.2-1-.78-1-.4,0-.71.29-.82.63-.02.08-.04.18-.04.29v2.03h-.61v-2.47" fill="#8ebeff"/><path d="M340.11,262.59h.61v3.15c0,1.25-.61,1.64-1.43,1.64-.23,0-.49-.04-.65-.1l.08-.5c.13.05.31.09.52.09.55,0,.86-.24.86-1.17v-3.1" fill="#8ebeff"/><path d="M344.55,266.37c0,.36,0,.67.04.93h-.55l-.04-.55h-.01c-.16.27-.52.62-1.12.62-.53,0-1.17-.29-1.17-1.47v-1.98h.62v1.86c0,.65.2,1.09.75,1.09.41,0,.7-.28.81-.57.03-.08.06-.19.06-.32v-2.06h.61v2.44" fill="#8ebeff"/><rect x="345.57" y="262.34" width=".62" height="4.97" fill="#8ebeff"/><path d="M363.8,265.35l-.47-1.36c-.1-.3-.17-.58-.24-.85h-.02c-.07.27-.14.57-.24.85l-.45,1.36h1.42ZM362.25,265.83l-.48,1.48h-.64l1.61-4.71h.73l1.6,4.71h-.64l-.5-1.48h-1.68" fill="#8ebeff"/><path d="M368.5,266.37c0,.36,0,.67.02.93h-.54l-.03-.55h-.02c-.15.27-.51.62-1.11.62-.53,0-1.16-.29-1.16-1.47v-1.98h.61v1.86c0,.65.21,1.09.76,1.09.41,0,.69-.28.81-.57.03-.08.05-.19.05-.32v-2.06h.62v2.44" fill="#8ebeff"/><path d="M371.8,265.26c0-.11-.01-.2-.04-.28-.11-.36-.4-.66-.86-.66-.59,0-1,.49-1,1.28,0,.67.34,1.22,1,1.22.38,0,.72-.24.85-.63.04-.11.06-.23.06-.34v-.6ZM372.41,266.81c0,.78-.16,1.25-.48,1.55-.34.3-.82.4-1.24.4-.4,0-.85-.09-1.12-.28l.15-.48c.23.15.58.28.99.28.63,0,1.1-.32,1.1-1.18v-.37h-.02c-.18.31-.55.56-1.08.56-.83,0-1.44-.71-1.44-1.64,0-1.15.75-1.79,1.53-1.79.59,0,.9.29,1.06.58h.02v-.51h.57c-.03.23-.03.51-.03.91v1.97" fill="#8ebeff"/><path d="M384.16,266.56c.28.18.67.31,1.08.31.62,0,.99-.32.99-.8,0-.43-.26-.69-.89-.93-.76-.28-1.24-.68-1.24-1.35,0-.72.61-1.27,1.53-1.27.47,0,.83.11,1.04.24l-.17.49c-.15-.09-.46-.22-.88-.22-.64,0-.9.38-.9.71,0,.44.29.66.94.91.8.31,1.19.7,1.19,1.38,0,.72-.53,1.36-1.64,1.36-.46,0-.96-.14-1.22-.3l.17-.52" fill="#8ebeff"/><path d="M389.86,265.28c0-.38-.16-.99-.86-.99-.62,0-.88.56-.94.99h1.8ZM388.05,265.72c.02.83.54,1.18,1.16,1.18.44,0,.71-.08.94-.17l.1.44c-.21.1-.59.21-1.13.21-1.03,0-1.66-.7-1.66-1.71s.61-1.82,1.59-1.82c1.11,0,1.39.96,1.39,1.59,0,.12,0,.21-.02.28h-2.38" fill="#8ebeff"/><path d="M391.83,265.93c0,.09,0,.17.02.25.11.42.48.73.93.73.65,0,1.03-.53,1.03-1.31,0-.68-.36-1.25-1.01-1.25-.42,0-.82.29-.93.75-.02.08-.03.17-.03.24v.59ZM391.21,265.03c0-.44-.01-.78-.02-1.1h.54l.03.57h.02c.24-.41.64-.64,1.2-.64.83,0,1.44.69,1.44,1.71,0,1.21-.74,1.81-1.54,1.81-.45,0-.84-.2-1.04-.53h0v1.84h-.62v-3.66" fill="#8ebeff"/><path d="M406.88,267.3v-4.71h.67l1.5,2.38c.34.55.62,1.05.84,1.54h.02c-.06-.65-.07-1.21-.07-1.94v-1.98h.57v4.71h-.61l-1.49-2.4c-.34-.52-.65-1.06-.88-1.56h-.02c.04.6.05,1.16.05,1.94v2.02h-.57" fill="#8ebeff"/><path d="M411.84,265.62c0,.74.43,1.3,1.02,1.3s1.03-.55,1.03-1.31c0-.58-.29-1.29-1.02-1.29s-1.03.66-1.03,1.3h0ZM414.52,265.58c0,1.26-.87,1.79-1.68,1.79-.91,0-1.63-.66-1.63-1.73,0-1.14.75-1.79,1.68-1.79s1.63.7,1.63,1.73" fill="#8ebeff"/><path d="M415.48,263.93l.67,1.89c.11.32.2.59.27.86h.02c.08-.27.18-.54.29-.86l.65-1.89h.64l-1.32,3.38h-.59l-1.29-3.38h.66" fill="#8ebeff"/><path d="M431.1,264.97c0,1.01.54,1.92,1.51,1.92s1.52-.9,1.52-1.95c0-.95-.49-1.93-1.5-1.93s-1.52.94-1.52,1.97h0ZM434.76,264.9c0,1.62-.98,2.48-2.19,2.48s-2.12-.97-2.12-2.4.92-2.47,2.18-2.47,2.12.98,2.12,2.39" fill="#8ebeff"/><path d="M437.97,267.18c-.16.08-.52.2-.97.2-1.02,0-1.69-.7-1.69-1.72s.71-1.8,1.82-1.8c.36,0,.68.09.85.18l-.13.47c-.15-.07-.38-.16-.71-.16-.77,0-1.2.57-1.2,1.28,0,.78.5,1.27,1.18,1.27.34,0,.57-.09.75-.16l.11.45" fill="#8ebeff"/><path d="M439.52,263.11v.81h.88v.46h-.88v1.83c0,.42.12.65.46.65.18,0,.27-.02.36-.04l.03.46c-.12.05-.31.08-.55.08-.28,0-.52-.1-.67-.26-.16-.18-.23-.48-.23-.88v-1.85h-.53v-.46h.53v-.64l.59-.18" fill="#8ebeff"/><path d="M453.45,266.83c.15.02.37.02.61.02,1.3,0,2.01-.72,2.01-2,0-1.1-.63-1.81-1.91-1.81-.31,0-.55.02-.71.06v3.73ZM452.84,262.66c.38-.06.81-.1,1.29-.1.88,0,1.5.2,1.91.58.42.39.67.93.67,1.69s-.24,1.4-.68,1.83c-.44.44-1.17.68-2.08.68-.44,0-.8-.02-1.11-.05v-4.63" fill="#8ebeff"/><path d="M459.65,265.28c0-.38-.16-.99-.85-.99-.63,0-.89.56-.94.99h1.79ZM457.85,265.72c.01.83.53,1.18,1.16,1.18.44,0,.71-.08.93-.17l.12.44c-.22.1-.59.21-1.14.21-1.04,0-1.66-.7-1.66-1.71s.6-1.82,1.59-1.82c1.1,0,1.4.96,1.4,1.59,0,.12,0,.21-.02.28h-2.38" fill="#8ebeff"/><path d="M463.42,267.18c-.16.08-.51.2-.97.2-1.02,0-1.69-.7-1.69-1.72s.72-1.8,1.82-1.8c.36,0,.68.09.85.18l-.14.47c-.15-.07-.38-.16-.71-.16-.78,0-1.2.57-1.2,1.28,0,.78.5,1.27,1.18,1.27.35,0,.58-.09.75-.16l.1.45" fill="#8ebeff"/><path d="M436.65,21.32v-11.06c-18.39,0-33.3,14.91-33.3,33.3h11.06c0-12.28,9.96-22.24,22.24-22.24Z" fill="#8ebeff"/><path d="M436.65,10.26v11.06c12.28,0,22.24,9.96,22.24,22.24s-9.96,22.24-22.24,22.24v11.06c18.39,0,33.3-14.91,33.3-33.3s-14.91-33.3-33.3-33.3Z" fill="#0072bc"/><path d="M414.41,43.56h-11.06c0,18.39,14.91,33.3,33.3,33.3v-11.06c-12.28,0-22.24-9.96-22.24-22.24Z" fill="#589be5"/><path d="M440.56,44.87h-.39c-.84,1.07-2.12,1.72-3.53,1.72s-2.68-.66-3.52-1.72h-.39c-3.5,0-6.34,2.84-6.34,6.34v2.49c2.63,2.62,6.25,4.24,10.26,4.24s7.63-1.62,10.26-4.24v-2.49c0-3.5-2.84-6.34-6.34-6.34Z" fill="#0072bc"/><path d="M441.36,35.18l-.21-.37c-.93-1.61-2.64-2.6-4.5-2.6s-3.57.99-4.5,2.6l-.21.37c-.81,1.4-.92,3.11-.29,4.6l.85,2.02c.16.38.38.73.63,1.04.84,1.07,2.12,1.72,3.52,1.72s2.68-.66,3.53-1.72c.25-.32.47-.66.63-1.04l.85-2.02c.63-1.5.52-3.2-.29-4.6Z" fill="#0072bc"/><path d="M502.93,67.65v22.87h-22.87c0,12.63,10.24,22.87,22.87,22.87s22.87-10.24,22.87-22.87-10.24-22.87-22.87-22.87Z" fill="#0072bc"/><path d="M480.07,90.51h22.87l-8.43-21.24c-8.45,3.36-14.43,11.59-14.43,21.24Z" fill="#0072bc"/><path d="M494.5,69.27l8.43,21.24v-22.87c-2.98,0-5.82.59-8.43,1.63Z" fill="#b8c9ee"/><path d="M533.7,177.91s-1.26,2.19-3.17,2.43c-1.92.24-2.07-.85-5.12,1-3.06,1.85-2.76.38-4.62-1.83,0,0-2.12-2.7.72-4.44,2.85-1.74-5.18-3.38-.51-6.91,4.68-3.53-.36-5.5-1.68-6.97-1.31-1.48-2.64-7.83,4.11-9.26,5.89-1.24,5.96-2.9,12.26,1.52,6.3,4.41,2.41,9.44,4.74,10.72,2.33,1.28,3.56,10.44.76,12.26-2.79,1.82-2.6-1.19-3.87,1.05-1.27,2.24-2.87,0-3.62.43Z" fill="#333"/><polygon points="459.69 181.98 458.53 177.81 462.26 177.71 464.45 177.38 464.82 177.07 463.7 176.86 462.52 176.85 461.89 175.95 463.63 175.68 466.49 175.91 468.62 176.8 470.19 177.75 485.13 181.53 483.41 186.88 468.98 181.89 464.32 182.51 459.69 181.98" fill="#ffbcc1"/><path d="M493.03,188.17v-.38c.1-2.36,1.73-3.7,4.84-4.22,7.19-1.2,16.4-4.15,24.48-4.15,2.77,0,3.8,2.3,4.04,4.5v.41c.46,2.98-1.75,6.32-4.33,6.46-8.65.48-24.55,1.36-24.55,1.36-2.57-.04-4.58-1.6-4.48-3.96Z" fill="#589be5"/><path d="M478.38,185.56l.4-6.07s12.31,2.32,18.44,4.54c2.33.84,3.8,2.56,3.23,4.85h0c-.57,2.29-2.78,3.68-4.77,3.07-5.76-1.78-17.31-6.39-17.31-6.39Z" fill="#589be5"/><rect x="527.17" y="170.51" width="6.55" height="13.16" transform="translate(-17.78 66.7) rotate(-7.08)" fill="#ffbcc1"/><path d="M520.14,166.8c-.02,4.67,3.2,8.47,7.18,8.48,3.98.01,7.22-3.76,7.24-8.43,0-.41.43-7.7.51-10.38.06-1.86-1.37-3.43-3.23-3.55l-6.61-.42c-2.36.9-4.3,2.6-4.53,4.94-.3,3-.56,8.91-.57,9.36Z" fill="#ffbcc1"/><polygon points="509.17 333.77 507 347.66 505.26 348.38 499.85 350.81 499.85 352.08 511.43 352.14 512.33 350.96 512.47 349.05 515.29 335.56 509.17 333.77" fill="#ffbcc1"/><polygon points="504.15 348.37 505.24 347.86 505.14 350.14 511.01 348.87 512.95 348 512.82 349.2 513.26 351.48 512.64 352.54 509.31 352.41 504.57 352.41 496.55 352.41 496.18 351.52 504.15 348.37" fill="#589be5"/><polygon points="551.7 335.18 553.8 347.73 552.24 348.38 546.83 350.81 546.83 352.08 558.41 352.14 559.31 350.96 559.45 349.05 558.12 335.18 551.7 335.18" fill="#ffbcc1"/><polygon points="551.13 348.37 552.22 347.86 552.12 350.14 557.98 348.87 559.52 348.18 559.8 349.2 560.24 351.48 559.62 352.54 556.29 352.41 551.55 352.41 543.53 352.41 543.16 351.52 551.13 348.37" fill="#589be5"/><polygon points="550.62 235.28 521.21 237.77 520.86 243.49 520.49 248.88 513.55 298.55 508 338.1 515.17 338.79 523.53 299.31 536.74 257.42 537.43 256.7 543.87 297.2 551.56 338.93 558.99 337.95 555.32 294.48 553.7 252.51 554.67 244.88 550.62 235.28" fill="#3f4c53"/><path d="M521.35,212.33s-5.33-13.98-4.99-18.56c.34-4.66,1.13-11.93,4.38-13.78,1.64-.93,5.41-1.05,5.41-1.05l.82-.08s.83,2.29,1.27,2.97c1.15,1.79,3.99,1.29,5.05-.55.43-.73,1.7-2.94,1.7-2.94,0,0,6.78-.28,8.98.16,4.14.83,5.28,5.49,5.57,8.3l-.43,13.26s.04,11.91.35,15.95c.3,3.94,1.17,9.29,1.17,9.29l4.05,16.15-35.12,2.15,2.56-19.27-.76-12Z" fill="#589be5"/><polygon points="536.95 232.32 533.43 229.79 535.13 228.99 536.55 227.84 536.64 227.36 535.85 227.98 534.98 228.97 533.93 228.66 535.05 227.1 537.22 225.41 539.44 224.77 541.26 224.52 551.8 213.32 554.54 217.8 543.11 227.75 540.03 231.14 536.95 232.32" fill="#ffbcc1"/><path d="M557.76,215.57l-.37.12c-2.29.6-4.04-.56-5.46-3.38-3.28-6.51-9.55-18.9-12.44-26.45-1.51-3.92.27-5.54,2.16-6.8l.37-.23c2.71-1.32,6.26,1.26,8.11,5.97,3.16,8.07,10.09,25.31,10.09,25.31.73,2.47-.17,4.85-2.46,5.45Z" fill="#589be5"/><path d="M549.7,223.19l-4.61-3.62s3.33-3.73,7.83-8.82c2.2-2.49,4.31-3.01,6.08-1.44h0c1.78,1.56,2.38,3.81-.72,6.54-4.97,4.36-8.58,7.35-8.58,7.35Z" fill="#589be5"/><path d="M528.89,159.33c.42.13.6,2.56.98,2.77.45.24,1.04-2.41,2.51-1.27.66.51,1.64,3.1.13,4.56-.85.82-.72,1.89.42,3.63.54.82.23,2.49-.13,3.36-.89,2.13-2.55,5.21-.19,6.69,3.93,2.46,6.57,1.43,8.16-.02,1.03-.93,3.46.17,4.76-.32,2.15-.81,3.39-11.3-1.53-11.3-2.17,0-.73-5.17-2.09-6.99-.54-.72-.33-.41-.85-1.36-.39-.72-.18-2.51-1.23-3.87-1.13-1.45-2.97-1.5-3.62-2.14-1.55-1.53-2.51-2.16-5.89-2.4-2.37-.17-6.2.96-7.58,2.54-1.23,1.41-1.24,3.42.16,4.88,0,0,.88,1.12,1.99,1.32,1.65.29,4.01-.08,4.01-.08Z" fill="#333"/><polygon points="31.59 210.3 32.1 214.32 33.23 215.52 34.54 217.36 35.31 222.09 34.29 222.59 33.38 219.88 33 220.09 34.5 225.21 30.78 224.43 28.35 220.25 28 218.17 28.18 214.62 27.38 210.95 31.59 210.3" fill="#ffbcc1"/><path d="M25.53,198.4l.33.22c2.09,1.26,3.92.21,6.14-2.17,5.13-5.49,11.95-11.15,16.99-17.77,2.63-3.45,1.16-5.63-.35-7.43l-.3-.33c-2.3-2.09-5.05-.4-6.82,1.6-6.1,6.89-16.84,19.78-16.84,19.78-1.43,2.23-1.23,4.84.86,6.1Z" fill="#589be5"/><path d="M27.07,213.2l5.24-1.05s-1.16-7.87-.99-15.66c.08-3.42-.87-5.66-3.3-5.55h0c-2.43.11-4.85,1.7-4.22,5.73.95,6.14,3.27,16.52,3.27,16.52Z" fill="#589be5"/><path d="M32.14,231.07l107.66-41.07-5.22-13.88-107.66,41.07c-.23.09-.35.35-.26.58l4.9,13.04c.09.23.35.35.58.26Z" fill="#0072bc"/><path d="M31.35,234.78l81.65-31.24c2.19-.83,3.31-3.27,2.48-5.47l-4.52-12.02c-.82-2.19-3.27-3.31-5.47-2.48l-81.65,31.24c-2.2.82-3.31,3.27-2.48,5.47l4.52,12.02c.82,2.19,3.27,3.31,5.47,2.48Z" fill="#8ebeff"/><path d="M23.99,220.57c-.79-2.09.27-4.42,2.36-5.21l78.28-29.95c2.09-.79,4.42.27,5.21,2.36l.4,1.05-85.84,32.8-.4-1.06Z" fill="#8ebeff"/><path d="M203.1,115.24c1.33.48,2.64,1.01,3.95,1.6,25.93,11.76,37.46,42.43,25.69,68.36-11.76,25.93-42.44,37.44-68.36,25.69-25.93-11.76-37.46-42.43-25.69-68.36,11.17-24.62,39.39-36.26,64.41-27.29Z" fill="none"/><path d="M206.98,104.4c1.62.58,3.23,1.23,4.83,1.96,31.71,14.39,45.8,51.89,31.42,83.59-14.39,31.71-51.9,45.79-83.6,31.42-31.71-14.39-45.8-51.89-31.42-83.59,13.66-30.11,48.17-44.34,78.77-33.38ZM164.38,210.89c25.92,11.75,56.6.24,68.36-25.69,11.76-25.93.24-56.59-25.69-68.36-1.3-.59-2.62-1.12-3.95-1.6-25.02-8.97-53.24,2.67-64.41,27.29-11.76,25.93-.24,56.59,25.69,68.36Z" fill="#044f85"/><path d="M203.1,115.24c1.33.48,2.64,1.01,3.95,1.6,25.93,11.76,37.46,42.43,25.69,68.36-11.76,25.93-42.44,37.44-68.36,25.69-25.93-11.76-37.46-42.43-25.69-68.36,11.17-24.62,39.39-36.26,64.41-27.29Z" fill="#fff" opacity=".3"/><path d="M204.23,112.21c28.53,10.22,43.36,41.63,33.14,70.16-10.22,28.53-41.63,43.36-70.16,33.14-28.53-10.22-43.36-41.63-33.14-70.16,10.22-28.53,41.63-43.36,70.16-33.14ZM164.38,210.89c25.92,11.75,56.6.24,68.36-25.69,11.76-25.93.24-56.59-25.69-68.36-1.3-.59-2.62-1.13-3.95-1.6-25.02-8.97-53.24,2.67-64.41,27.29-11.76,25.93-.24,56.59,25.69,68.36Z" fill="#044f85"/><path d="M204.23,112.21c28.53,10.22,43.36,41.63,33.14,70.16-10.22,28.53-41.63,43.36-70.16,33.14-28.53-10.22-43.36-41.63-33.14-70.16,10.22-28.53,41.63-43.36,70.16-33.14ZM164.38,210.89c25.92,11.75,56.6.24,68.36-25.69,11.76-25.93.24-56.59-25.69-68.36-1.3-.59-2.62-1.13-3.95-1.6-25.02-8.97-53.24,2.67-64.41,27.29-11.76,25.93-.24,56.59,25.69,68.36Z" fill="#0072bc"/><path d="M137.23,146.49c-9.6,26.78,4.33,56.27,31.11,65.86,26.78,9.6,56.27-4.33,65.86-31.11,9.6-26.78-4.33-56.26-31.11-65.86-26.78-9.6-56.27,4.33-65.86,31.11Z" fill="#0e97d5" opacity=".4"/><path d="M142.39,148.34c-8.58,23.93,3.87,50.28,27.8,58.86,23.93,8.58,50.28-3.87,58.86-27.8,8.58-23.93-3.87-50.28-27.8-58.86-23.93-8.58-50.28,3.87-58.86,27.8Z" fill="#fff" opacity=".3"/><path d="M184.2,140.47c-16.47-1.38-31.63,2.14-42.34,8.82.11-.34.22-.68.34-1.02,8.61-24.04,35.08-36.54,59.12-27.93,19.21,6.88,31.04,25.17,30.62,44.51-7.93-12.73-26.02-22.56-47.74-24.38Z" fill="#fff" opacity=".6"/><rect x="51.6" y="166.24" width="10.8" height="6.75" transform="translate(-119.84 196.98) rotate(-80.22)" fill="#ffbcc1"/><path d="M67.54,159.21c-.1,4.81-3.51,8.64-7.61,8.56-4.1-.08-7.35-4.05-7.25-8.87.01-.68-.17-9.45-.03-10.08l3.21-2.52,6.14-1.54,4.87,1.5c.03.18,1.76,1.84,1.59,4.89-.16,2.83-.91,7.58-.92,8.06Z" fill="#ffbcc1"/><path d="M69.11,147.41c1.67-2.47.97-4.3.13-5.17-.42-.43-1.85-1.27-5.5-.58-3.65.7-3.44-1.05-5.68-.44-3.54.96-7.19,5.07-7.58,8.8-.3,2.82.83,6.36,1.4,7.92l.61,3.16c.22,1.14,1.12,2.03,2.27,2.22l3.18.54c1.02.17,2.43.12,3.32-.41l.52-.3c1.1-.64,1.74-1.85,1.66-3.12v-3.23s.35-2.08.35-2.08l.89-.18.14,2.03.93-.29c-.04-.64.54-1.92.53-3.28,0-.22.59-.51.59-.73-.01-1.15-.06-2.3-.1-3.04.79-.19,1.52-.61,2.35-1.83Z" fill="#2f393e"/><path d="M65.74,156.29s-.15,3.33.33,3.72c.48.39,1.41.07,1.41.07,0,0,.05.84-.09,1.29-.11.36-1.05,3.61-2.23,4.88-1.18,1.27-3.33,1.3-3.33,1.3,0,0,.01-.11.07-.22.22-.44.77-1.42,1.05-1.75.37-.44,1.76-5.05,1.78-5.64.01-.59.09-3.36.09-3.36l.93-.29Z" fill="#2f393e"/><path d="M85.26,351.55h-.2l-.04.99h-4.73l.13-1.31h.15s0-.02,0-.02v-4.81h4.92l.1.63,2.27,1.66,7.17,2.05s.57.25.55.56l-.02.57v.34s-.1.15-.68.32h-8.22l-.5-.66-.48-.3-.42-.02Z" fill="#333"/><path d="M39.56,351.55h-.2l-.04.99h-4.73l.13-1.31h.15s0-.02,0-.02l1.08-4.81h4.91l.1.63,1.2,1.66,7.17,2.05s.57.25.55.56l-.02.57v.34s-.1.15-.68.32h-8.22l-.5-.66-.48-.3-.42-.02Z" fill="#333"/><polygon points="32.9 230.73 66.67 229.57 66.59 234.22 66.77 242.52 87.12 293.45 86.83 346.41 78.95 347.72 75.31 296.07 49.88 251.67 49.25 250.63 55.65 295.35 42.24 346.57 34.59 346.99 43.57 294.32 32.97 249.77 30.22 240.16 32.9 230.73" fill="#3f4c53"/><path d="M61.66,170.71l.84.11,5.02,1.85c4.85,1.41,5.43,6.93,4.65,10.91-1.11,5.64-3.27,20.57-3.27,20.57l-.86,6.88.76,19.6-2.08,2.91-34.39-2.07-.12-3.78s.07-15.08.32-20.1c.2-3.94.99-11.81,1.78-15.68.73-3.6,3.14-10.67,4.51-13.99,1.8-4.36,3.34-7.55,7.63-8.31,2.28-.4,5.85-.07,5.85-.07,0,0,3.21,1.01,4.3,1.15,1.25.16,5.07.02,5.07.02Z" fill="#589be5"/><polygon points="94.48 202.28 98.39 203.01 99.73 202.05 101.73 200.99 106.52 200.86 106.88 201.94 104.08 202.47 104.23 202.88 109.51 202.08 108.24 205.65 103.78 207.51 101.66 207.58 98.18 206.93 94.31 206.49 94.48 202.28" fill="#ffbcc1"/><path d="M82.51,204.34l.32-.24c1.87-1.57,1.47-3.64-.06-6.51-3.54-6.63-6.68-14.91-11.31-21.83-2.41-3.6-4.95-2.92-7.14-2.07l-.41.17c-2.72,1.49-2.01,4.65-.7,6.97,4.55,8,13.26,22.34,13.26,22.34,1.65,2.08,4.18,2.73,6.05,1.17Z" fill="#589be5"/><path d="M97.01,207.67l.7-5.3s-7.82-1.45-15.13-4.14c-3.21-1.18-5.64-1.02-6.32,1.32h0c-.68,2.34.04,5.14,4.06,5.85,6.12,1.09,16.69,2.26,16.69,2.26Z" fill="#589be5"/></g></svg>